<?xml version="1.0" encoding="UTF-8" standalone="no"?>
<!DOCTYPE svg PUBLIC "-//W3C//DTD SVG 1.1//EN"
 "http://www.w3.org/Graphics/SVG/1.1/DTD/svg11.dtd">
<!-- Generated by graphviz version 2.43.0 (0)
 -->
<!-- Title: xronos::sdk::InputPort&lt; T &gt; Pages: 1 -->
<svg width="176pt" height="192pt"
 viewBox="0.00 0.00 176.00 192.00" xmlns="http://www.w3.org/2000/svg" xmlns:xlink="http://www.w3.org/1999/xlink">
<g id="graph0" class="graph" transform="scale(1 1) rotate(0) translate(4 188)">
<title>xronos::sdk::InputPort&lt; T &gt;</title>
<!-- Node1 -->
<g id="Node000001" class="node">
<title>Node1</title>
<g id="a_Node000001"><a xlink:title="A port that receives values from other reactors.">
<polygon fill="#999999" stroke="#666666" points="160,-19 8,-19 8,0 160,0 160,-19"/>
<text text-anchor="middle" x="84" y="-7" font-family="Helvetica,sans-Serif" font-size="10.00">xronos::sdk::InputPort&lt; T &gt;</text>
</a>
</g>
</g>
<!-- Node2 -->
<g id="Node000002" class="node">
<title>Node2</title>
<g id="a_Node000002"><a xlink:href="classxronos_1_1sdk_1_1Port.html" target="_top" xlink:title="Base class for inputs and outputs of reactors.">
<polygon fill="white" stroke="#666666" points="147.5,-74 20.5,-74 20.5,-55 147.5,-55 147.5,-74"/>
<text text-anchor="middle" x="84" y="-62" font-family="Helvetica,sans-Serif" font-size="10.00">xronos::sdk::Port&lt; T &gt;</text>
</a>
</g>
</g>
<!-- Node2&#45;&gt;Node1 -->
<g id="edge1_Node000001_Node000002" class="edge">
<title>Node2&#45;&gt;Node1</title>
<g id="a_edge1_Node000001_Node000002"><a xlink:title=" ">
<path fill="none" stroke="#63b8ff" d="M84,-44.66C84,-35.93 84,-25.99 84,-19.09"/>
<polygon fill="#63b8ff" stroke="#63b8ff" points="80.5,-44.75 84,-54.75 87.5,-44.75 80.5,-44.75"/>
</a>
</g>
</g>
<!-- Node3 -->
<g id="Node000003" class="node">
<title>Node3</title>
<g id="a_Node000003"><a xlink:href="classxronos_1_1sdk_1_1EventSource.html" target="_top" xlink:title="Base class for reactor elements that can be used as triggers of reactions.">
<polygon fill="white" stroke="#666666" points="168,-129 0,-129 0,-110 168,-110 168,-129"/>
<text text-anchor="middle" x="84" y="-117" font-family="Helvetica,sans-Serif" font-size="10.00">xronos::sdk::EventSource&lt; T &gt;</text>
</a>
</g>
</g>
<!-- Node3&#45;&gt;Node2 -->
<g id="edge2_Node000002_Node000003" class="edge">
<title>Node3&#45;&gt;Node2</title>
<g id="a_edge2_Node000002_Node000003"><a xlink:title=" ">
<path fill="none" stroke="#63b8ff" d="M84,-99.66C84,-90.93 84,-80.99 84,-74.09"/>
<polygon fill="#63b8ff" stroke="#63b8ff" points="80.5,-99.75 84,-109.75 87.5,-99.75 80.5,-99.75"/>
</a>
</g>
</g>
<!-- Node4 -->
<g id="Node000004" class="node">
<title>Node4</title>
<g id="a_Node000004"><a xlink:href="classxronos_1_1sdk_1_1Element.html" target="_top" xlink:title="Base class for all reactor elements.">
<polygon fill="white" stroke="#666666" points="143.5,-184 24.5,-184 24.5,-165 143.5,-165 143.5,-184"/>
<text text-anchor="middle" x="84" y="-172" font-family="Helvetica,sans-Serif" font-size="10.00">xronos::sdk::Element</text>
</a>
</g>
</g>
<!-- Node4&#45;&gt;Node3 -->
<g id="edge3_Node000003_Node000004" class="edge">
<title>Node4&#45;&gt;Node3</title>
<g id="a_edge3_Node000003_Node000004"><a xlink:title=" ">
<path fill="none" stroke="#63b8ff" d="M84,-154.66C84,-145.93 84,-135.99 84,-129.09"/>
<polygon fill="#63b8ff" stroke="#63b8ff" points="80.5,-154.75 84,-164.75 87.5,-154.75 80.5,-154.75"/>
</a>
</g>
</g>
</g>
</svg>
