<?xml version="1.0" encoding="UTF-8" standalone="no"?>
<!DOCTYPE svg PUBLIC "-//W3C//DTD SVG 1.1//EN"
 "http://www.w3.org/Graphics/SVG/1.1/DTD/svg11.dtd">
<!-- Generated by graphviz version 2.43.0 (0)
 -->
<!-- Title: xronos::sdk::Element Pages: 1 -->
<svg width="834pt" height="365pt"
 viewBox="0.00 0.00 834.00 365.35" xmlns="http://www.w3.org/2000/svg" xmlns:xlink="http://www.w3.org/1999/xlink">
<g id="graph0" class="graph" transform="scale(1 1) rotate(0) translate(4 361.35)">
<title>xronos::sdk::Element</title>
<!-- Node1 -->
<g id="Node000001" class="node">
<title>Node1</title>
<g id="a_Node000001"><a xlink:title="Base class for all reactor elements.">
<polygon fill="#999999" stroke="#666666" points="119,-126.35 0,-126.35 0,-107.35 119,-107.35 119,-126.35"/>
<text text-anchor="middle" x="59.5" y="-114.35" font-family="Helvetica,sans-Serif" font-size="10.00">xronos::sdk::Element</text>
</a>
</g>
</g>
<!-- Node2 -->
<g id="Node000002" class="node">
<title>Node2</title>
<g id="a_Node000002"><a xlink:href="classxronos_1_1sdk_1_1EventSource_3_01void_01_4.html" target="_top" xlink:title="Base class for reactor elements that can be used as triggers of reactions.">
<polygon fill="white" stroke="#666666" points="565,-149.85 425,-149.85 425,-119.85 565,-119.85 565,-149.85"/>
<text text-anchor="start" x="433" y="-137.85" font-family="Helvetica,sans-Serif" font-size="10.00">xronos::sdk::EventSource</text>
<text text-anchor="middle" x="495" y="-126.85" font-family="Helvetica,sans-Serif" font-size="10.00">&lt; void &gt;</text>
</a>
</g>
</g>
<!-- Node1&#45;&gt;Node2 -->
<g id="edge1_Node000001_Node000002" class="edge">
<title>Node1&#45;&gt;Node2</title>
<g id="a_edge1_Node000001_Node000002"><a xlink:title=" ">
<path fill="none" stroke="#63b8ff" d="M129.5,-114.62C210.44,-115.78 343.82,-121.31 424.83,-126.88"/>
<polygon fill="#63b8ff" stroke="#63b8ff" points="129.46,-111.12 119.41,-114.49 129.37,-118.12 129.46,-111.12"/>
</a>
</g>
</g>
<!-- Node1&#45;&gt;Node2 -->
<g id="edge23_Node000001_Node000002" class="edge">
<title>Node1&#45;&gt;Node2</title>
<g id="a_edge23_Node000001_Node000002"><a xlink:title=" ">
<path fill="none" stroke="#63b8ff" d="M129.5,-124.81C210.44,-130.37 343.82,-135.91 424.83,-137.08"/>
<polygon fill="#63b8ff" stroke="#63b8ff" points="129.64,-121.31 119.41,-124.1 129.14,-128.3 129.64,-121.31"/>
</a>
</g>
</g>
<!-- Node9 -->
<g id="Node000009" class="node">
<title>Node9</title>
<g id="a_Node000009"><a xlink:href="classxronos_1_1sdk_1_1BaseReaction.html" target="_top" xlink:title="Non&#45;template base class for reactions.">
<polygon fill="white" stroke="#666666" points="313,-97.35 167,-97.35 167,-78.35 313,-78.35 313,-97.35"/>
<text text-anchor="middle" x="240" y="-85.35" font-family="Helvetica,sans-Serif" font-size="10.00">xronos::sdk::BaseReaction</text>
</a>
</g>
</g>
<!-- Node1&#45;&gt;Node9 -->
<g id="edge11_Node000001_Node000009" class="edge">
<title>Node1&#45;&gt;Node9</title>
<g id="a_edge11_Node000001_Node000009"><a xlink:title=" ">
<path fill="none" stroke="#63b8ff" d="M129.72,-105.6C146.47,-102.88 164.22,-100 180.42,-97.37"/>
<polygon fill="#63b8ff" stroke="#63b8ff" points="128.75,-102.22 119.44,-107.27 129.87,-109.12 128.75,-102.22"/>
</a>
</g>
</g>
<!-- Node11 -->
<g id="Node000011" class="node">
<title>Node11</title>
<g id="a_Node000011"><a xlink:href="classxronos_1_1sdk_1_1EventSource.html" target="_top" xlink:title="Base class for reactor elements that can be used as triggers of reactions.">
<polygon fill="white" stroke="#666666" points="324,-211.35 156,-211.35 156,-192.35 324,-192.35 324,-211.35"/>
<text text-anchor="middle" x="240" y="-199.35" font-family="Helvetica,sans-Serif" font-size="10.00">xronos::sdk::EventSource&lt; T &gt;</text>
</a>
</g>
</g>
<!-- Node1&#45;&gt;Node11 -->
<g id="edge13_Node000001_Node000011" class="edge">
<title>Node1&#45;&gt;Node11</title>
<g id="a_edge13_Node000001_Node000011"><a xlink:title=" ">
<path fill="none" stroke="#63b8ff" d="M86.3,-131.38C101,-139.48 119.86,-149.58 137,-157.85 163.4,-170.59 194.41,-183.71 215.25,-192.27"/>
<polygon fill="#63b8ff" stroke="#63b8ff" points="87.74,-128.18 77.3,-126.39 84.35,-134.3 87.74,-128.18"/>
</a>
</g>
</g>
<!-- Node17 -->
<g id="Node000017" class="node">
<title>Node17</title>
<g id="a_Node000017"><a xlink:href="classxronos_1_1sdk_1_1Metric.html" target="_top" xlink:title="Allows recording values to an external data base from reaction handlers.">
<polygon fill="white" stroke="#666666" points="295,-60.35 185,-60.35 185,-41.35 295,-41.35 295,-60.35"/>
<text text-anchor="middle" x="240" y="-48.35" font-family="Helvetica,sans-Serif" font-size="10.00">xronos::sdk::Metric</text>
</a>
</g>
</g>
<!-- Node1&#45;&gt;Node17 -->
<g id="edge24_Node000001_Node000017" class="edge">
<title>Node1&#45;&gt;Node17</title>
<g id="a_edge24_Node000001_Node000017"><a xlink:title=" ">
<path fill="none" stroke="#63b8ff" d="M85.73,-102.41C104.59,-92.13 131.27,-78.63 156,-69.85 166.31,-66.19 177.59,-63.06 188.43,-60.45"/>
<polygon fill="#63b8ff" stroke="#63b8ff" points="83.94,-99.41 76.89,-107.31 87.34,-105.53 83.94,-99.41"/>
</a>
</g>
</g>
<!-- Node18 -->
<g id="Node000018" class="node">
<title>Node18</title>
<g id="a_Node000018"><a xlink:href="classxronos_1_1sdk_1_1Reactor.html" target="_top" xlink:title="An abstract reactor that can be subclassed to define new reactors.">
<polygon fill="white" stroke="#666666" points="298,-23.35 182,-23.35 182,-4.35 298,-4.35 298,-23.35"/>
<text text-anchor="middle" x="240" y="-11.35" font-family="Helvetica,sans-Serif" font-size="10.00">xronos::sdk::Reactor</text>
</a>
</g>
</g>
<!-- Node1&#45;&gt;Node18 -->
<g id="edge25_Node000001_Node000018" class="edge">
<title>Node1&#45;&gt;Node18</title>
<g id="a_edge25_Node000001_Node000018"><a xlink:title=" ">
<path fill="none" stroke="#63b8ff" d="M75.04,-99.35C92.29,-79.8 122.91,-48.68 156,-31.85 164.02,-27.77 172.93,-24.62 181.85,-22.17"/>
<polygon fill="#63b8ff" stroke="#63b8ff" points="72.17,-97.33 68.3,-107.19 77.48,-101.89 72.17,-97.33"/>
</a>
</g>
</g>
<!-- Node3 -->
<g id="Node000003" class="node">
<title>Node3</title>
<g id="a_Node000003"><a xlink:href="classxronos_1_1sdk_1_1PhysicalEvent_3_01void_01_4.html" target="_top" xlink:title="An element for scheduling new events from external contexts.">
<polygon fill="white" stroke="#666666" points="819.5,-249.85 672.5,-249.85 672.5,-219.85 819.5,-219.85 819.5,-249.85"/>
<text text-anchor="start" x="680.5" y="-237.85" font-family="Helvetica,sans-Serif" font-size="10.00">xronos::sdk::PhysicalEvent</text>
<text text-anchor="middle" x="746" y="-226.85" font-family="Helvetica,sans-Serif" font-size="10.00">&lt; void &gt;</text>
</a>
</g>
</g>
<!-- Node2&#45;&gt;Node3 -->
<g id="edge2_Node000002_Node000003" class="edge">
<title>Node2&#45;&gt;Node3</title>
<g id="a_edge2_Node000002_Node000003"><a xlink:title=" ">
<path fill="none" stroke="#63b8ff" d="M550.83,-154.08C583.72,-168.51 626.67,-187.75 666,-201.85 683.41,-208.09 703.33,-214.14 718.81,-219.75"/>
<polygon fill="#63b8ff" stroke="#63b8ff" points="551.97,-150.76 541.4,-149.96 549.16,-157.17 551.97,-150.76"/>
</a>
</g>
</g>
<!-- Node2&#45;&gt;Node3 -->
<g id="edge6_Node000002_Node000003" class="edge">
<title>Node2&#45;&gt;Node3</title>
<g id="a_edge6_Node000002_Node000003"><a xlink:title=" ">
<path fill="none" stroke="#63b8ff" d="M523.68,-155.2C556.89,-174.16 614.54,-201.4 666,-219.85 668.02,-220.58 670.08,-221.3 672.16,-222.02"/>
<polygon fill="#63b8ff" stroke="#63b8ff" points="525.38,-152.14 514.98,-150.09 521.83,-158.18 525.38,-152.14"/>
</a>
</g>
</g>
<!-- Node4 -->
<g id="Node000004" class="node">
<title>Node4</title>
<g id="a_Node000004"><a xlink:href="classxronos_1_1sdk_1_1Port_3_01void_01_4.html" target="_top" xlink:title="Base class for ports that do not communicate values.">
<polygon fill="white" stroke="#666666" points="799.5,-201.85 692.5,-201.85 692.5,-171.85 799.5,-171.85 799.5,-201.85"/>
<text text-anchor="start" x="700.5" y="-189.85" font-family="Helvetica,sans-Serif" font-size="10.00">xronos::sdk::Port&lt;</text>
<text text-anchor="middle" x="746" y="-178.85" font-family="Helvetica,sans-Serif" font-size="10.00"> void &gt;</text>
</a>
</g>
</g>
<!-- Node2&#45;&gt;Node4 -->
<g id="edge3_Node000002_Node000004" class="edge">
<title>Node2&#45;&gt;Node4</title>
<g id="a_edge3_Node000002_Node000004"><a xlink:title=" ">
<path fill="none" stroke="#63b8ff" d="M574.94,-145C615.69,-152.73 663.99,-163.13 698.68,-171.79"/>
<polygon fill="#63b8ff" stroke="#63b8ff" points="575.5,-141.55 565.03,-143.15 574.22,-148.43 575.5,-141.55"/>
</a>
</g>
</g>
<!-- Node2&#45;&gt;Node4 -->
<g id="edge7_Node000002_Node000004" class="edge">
<title>Node2&#45;&gt;Node4</title>
<g id="a_edge7_Node000002_Node000004"><a xlink:title=" ">
<path fill="none" stroke="#63b8ff" d="M552.03,-152.3C593.96,-162.43 650.93,-174.29 692.09,-181.44"/>
<polygon fill="#63b8ff" stroke="#63b8ff" points="552.8,-148.88 542.25,-149.9 551.13,-155.68 552.8,-148.88"/>
</a>
</g>
</g>
<!-- Node5 -->
<g id="Node000005" class="node">
<title>Node5</title>
<g id="a_Node000005"><a xlink:href="classxronos_1_1sdk_1_1ProgrammableTimer_3_01void_01_4.html" target="_top" xlink:title="An element for scheduling new events.">
<polygon fill="white" stroke="#666666" points="821.5,-41.85 670.5,-41.85 670.5,-11.85 821.5,-11.85 821.5,-41.85"/>
<text text-anchor="start" x="678.5" y="-29.85" font-family="Helvetica,sans-Serif" font-size="10.00">xronos::sdk::Programmable</text>
<text text-anchor="middle" x="746" y="-18.85" font-family="Helvetica,sans-Serif" font-size="10.00">Timer&lt; void &gt;</text>
</a>
</g>
</g>
<!-- Node2&#45;&gt;Node5 -->
<g id="edge4_Node000002_Node000005" class="edge">
<title>Node2&#45;&gt;Node5</title>
<g id="a_edge4_Node000002_Node000005"><a xlink:title=" ">
<path fill="none" stroke="#63b8ff" d="M549.03,-116.84C560.78,-113.11 572.77,-108.34 583,-101.85 593.38,-95.26 591.56,-88.73 601,-80.85 626.69,-59.4 635.41,-56.43 666,-42.85 667.45,-42.21 668.91,-41.57 670.4,-40.95"/>
<polygon fill="#63b8ff" stroke="#63b8ff" points="547.84,-113.54 539.25,-119.74 549.84,-120.25 547.84,-113.54"/>
</a>
</g>
</g>
<!-- Node2&#45;&gt;Node5 -->
<g id="edge8_Node000002_Node000005" class="edge">
<title>Node2&#45;&gt;Node5</title>
<g id="a_edge8_Node000002_Node000005"><a xlink:title=" ">
<path fill="none" stroke="#63b8ff" d="M574.32,-124.76C577.31,-123.25 580.22,-121.61 583,-119.85 593.38,-113.26 591.56,-106.73 601,-98.85 626.69,-77.4 635.41,-74.43 666,-60.85 682.57,-53.5 701.96,-47.32 717.39,-41.88"/>
<polygon fill="#63b8ff" stroke="#63b8ff" points="572.77,-121.62 565.1,-128.93 575.65,-128 572.77,-121.62"/>
</a>
</g>
</g>
<!-- Node6 -->
<g id="Node000006" class="node">
<title>Node6</title>
<g id="a_Node000006"><a xlink:href="classxronos_1_1sdk_1_1PeriodicTimer.html" target="_top" xlink:title="An event source that emits events in regular intervals.">
<polygon fill="white" stroke="#666666" points="819,-153.35 673,-153.35 673,-134.35 819,-134.35 819,-153.35"/>
<text text-anchor="middle" x="746" y="-141.35" font-family="Helvetica,sans-Serif" font-size="10.00">xronos::sdk::PeriodicTimer</text>
</a>
</g>
</g>
<!-- Node2&#45;&gt;Node6 -->
<g id="edge5_Node000002_Node000006" class="edge">
<title>Node2&#45;&gt;Node6</title>
<g id="a_edge5_Node000002_Node000006"><a xlink:title=" ">
<path fill="none" stroke="#63b8ff" d="M575.04,-137.71C606.37,-138.84 642.16,-140.13 672.79,-141.24"/>
<polygon fill="#63b8ff" stroke="#63b8ff" points="575.15,-134.21 565.03,-137.34 574.9,-141.2 575.15,-134.21"/>
</a>
</g>
</g>
<!-- Node7 -->
<g id="Node000007" class="node">
<title>Node7</title>
<g id="a_Node000007"><a xlink:href="classxronos_1_1sdk_1_1Shutdown.html" target="_top" xlink:title="An event that triggers before the program shuts down.">
<polygon fill="white" stroke="#666666" points="809.5,-116.35 682.5,-116.35 682.5,-97.35 809.5,-97.35 809.5,-116.35"/>
<text text-anchor="middle" x="746" y="-104.35" font-family="Helvetica,sans-Serif" font-size="10.00">xronos::sdk::Shutdown</text>
</a>
</g>
</g>
<!-- Node2&#45;&gt;Node7 -->
<g id="edge9_Node000002_Node000007" class="edge">
<title>Node2&#45;&gt;Node7</title>
<g id="a_edge9_Node000002_Node000007"><a xlink:title=" ">
<path fill="none" stroke="#63b8ff" d="M575.11,-125.95C609.71,-122.06 649.72,-117.56 682.23,-113.91"/>
<polygon fill="#63b8ff" stroke="#63b8ff" points="574.58,-122.49 565.03,-127.09 575.36,-129.45 574.58,-122.49"/>
</a>
</g>
</g>
<!-- Node8 -->
<g id="Node000008" class="node">
<title>Node8</title>
<g id="a_Node000008"><a xlink:href="classxronos_1_1sdk_1_1Startup.html" target="_top" xlink:title="An event that triggers when the program starts executing.">
<polygon fill="white" stroke="#666666" points="803,-79.35 689,-79.35 689,-60.35 803,-60.35 803,-79.35"/>
<text text-anchor="middle" x="746" y="-67.35" font-family="Helvetica,sans-Serif" font-size="10.00">xronos::sdk::Startup</text>
</a>
</g>
</g>
<!-- Node2&#45;&gt;Node8 -->
<g id="edge10_Node000002_Node000008" class="edge">
<title>Node2&#45;&gt;Node8</title>
<g id="a_edge10_Node000002_Node000008"><a xlink:title=" ">
<path fill="none" stroke="#63b8ff" d="M560.59,-117.17C599.78,-106.48 646,-93.96 666,-88.85 678.44,-85.67 692.01,-82.35 704.35,-79.39"/>
<polygon fill="#63b8ff" stroke="#63b8ff" points="559.52,-113.84 550.79,-119.84 561.36,-120.59 559.52,-113.84"/>
</a>
</g>
</g>
<!-- Node10 -->
<g id="Node000010" class="node">
<title>Node10</title>
<g id="a_Node000010"><a xlink:href="classxronos_1_1sdk_1_1Reaction.html" target="_top" xlink:title="Reaction base class that is intended to be inherited by application code.">
<polygon fill="white" stroke="#666666" points="570.5,-53.35 419.5,-53.35 419.5,-34.35 570.5,-34.35 570.5,-53.35"/>
<text text-anchor="middle" x="495" y="-41.35" font-family="Helvetica,sans-Serif" font-size="10.00">xronos::sdk::Reaction&lt; R &gt;</text>
</a>
</g>
</g>
<!-- Node9&#45;&gt;Node10 -->
<g id="edge12_Node000009_Node000010" class="edge">
<title>Node9&#45;&gt;Node10</title>
<g id="a_edge12_Node000009_Node000010"><a xlink:title=" ">
<path fill="none" stroke="#63b8ff" d="M305.86,-76.57C347.15,-69.39 400.03,-60.19 439.21,-53.38"/>
<polygon fill="#63b8ff" stroke="#63b8ff" points="305.15,-73.14 295.9,-78.3 306.35,-80.04 305.15,-73.14"/>
</a>
</g>
</g>
<!-- Node11&#45;&gt;Node2 -->
<g id="edge22_Node000011_Node000002" class="edge">
<title>Node11&#45;&gt;Node2</title>
<g id="a_edge22_Node000011_Node000002"><a xlink:title=" ">
<path fill="none" stroke="orange" stroke-dasharray="5,2" d="M334.46,-191.69C352.72,-188.66 371.6,-184.78 389,-179.85 415.33,-172.39 443.79,-159.89 464.42,-149.96"/>
<polygon fill="orange" stroke="orange" points="333.71,-188.26 324.38,-193.29 334.81,-195.18 333.71,-188.26"/>
</a>
</g>
<text text-anchor="middle" x="365.5" y="-192.85" font-family="Helvetica,sans-Serif" font-size="10.00" fill="grey"> &lt; void &gt;</text>
</g>
<!-- Node12 -->
<g id="Node000012" class="node">
<title>Node12</title>
<g id="a_Node000012"><a xlink:href="classxronos_1_1sdk_1_1PhysicalEvent.html" target="_top" xlink:title="An element for scheduling new events from external contexts.">
<polygon fill="white" stroke="#666666" points="583,-255.35 407,-255.35 407,-236.35 583,-236.35 583,-255.35"/>
<text text-anchor="middle" x="495" y="-243.35" font-family="Helvetica,sans-Serif" font-size="10.00">xronos::sdk::PhysicalEvent&lt; T &gt;</text>
</a>
</g>
</g>
<!-- Node11&#45;&gt;Node12 -->
<g id="edge14_Node000011_Node000012" class="edge">
<title>Node11&#45;&gt;Node12</title>
<g id="a_edge14_Node000011_Node000012"><a xlink:title=" ">
<path fill="none" stroke="#63b8ff" d="M305.86,-213.13C347.15,-220.31 400.03,-229.51 439.21,-236.32"/>
<polygon fill="#63b8ff" stroke="#63b8ff" points="306.35,-209.66 295.9,-211.4 305.15,-216.56 306.35,-209.66"/>
</a>
</g>
</g>
<!-- Node13 -->
<g id="Node000013" class="node">
<title>Node13</title>
<g id="a_Node000013"><a xlink:href="classxronos_1_1sdk_1_1Port.html" target="_top" xlink:title="Base class for inputs and outputs of reactors.">
<polygon fill="white" stroke="#666666" points="558.5,-298.35 431.5,-298.35 431.5,-279.35 558.5,-279.35 558.5,-298.35"/>
<text text-anchor="middle" x="495" y="-286.35" font-family="Helvetica,sans-Serif" font-size="10.00">xronos::sdk::Port&lt; T &gt;</text>
</a>
</g>
</g>
<!-- Node11&#45;&gt;Node13 -->
<g id="edge16_Node000011_Node000013" class="edge">
<title>Node11&#45;&gt;Node13</title>
<g id="a_edge16_Node000011_Node000013"><a xlink:title=" ">
<path fill="none" stroke="#63b8ff" d="M273.78,-215.33C307.03,-228.76 360.13,-249.53 407,-264.85 423.08,-270.11 441.08,-275.2 456.52,-279.33"/>
<polygon fill="#63b8ff" stroke="#63b8ff" points="274.7,-211.93 264.12,-211.41 272.07,-218.42 274.7,-211.93"/>
</a>
</g>
</g>
<!-- Node16 -->
<g id="Node000016" class="node">
<title>Node16</title>
<g id="a_Node000016"><a xlink:href="classxronos_1_1sdk_1_1ProgrammableTimer.html" target="_top" xlink:title="A reactor element for scheduling new events.">
<polygon fill="white" stroke="#666666" points="570.5,-101.85 419.5,-101.85 419.5,-71.85 570.5,-71.85 570.5,-101.85"/>
<text text-anchor="start" x="427.5" y="-89.85" font-family="Helvetica,sans-Serif" font-size="10.00">xronos::sdk::Programmable</text>
<text text-anchor="middle" x="495" y="-78.85" font-family="Helvetica,sans-Serif" font-size="10.00">Timer&lt; T &gt;</text>
</a>
</g>
</g>
<!-- Node11&#45;&gt;Node16 -->
<g id="edge20_Node000011_Node000016" class="edge">
<title>Node11&#45;&gt;Node16</title>
<g id="a_edge20_Node000011_Node000016"><a xlink:title=" ">
<path fill="none" stroke="#63b8ff" d="M264.47,-186.69C295.87,-166.95 353.78,-132.44 407,-110.85 415.13,-107.55 423.87,-104.55 432.56,-101.87"/>
<polygon fill="#63b8ff" stroke="#63b8ff" points="262.54,-183.77 255.97,-192.08 266.29,-189.68 262.54,-183.77"/>
</a>
</g>
</g>
<!-- Node12&#45;&gt;Node3 -->
<g id="edge15_Node000012_Node000003" class="edge">
<title>Node12&#45;&gt;Node3</title>
<g id="a_edge15_Node000012_Node000003"><a xlink:title=" ">
<path fill="none" stroke="orange" stroke-dasharray="5,2" d="M593.11,-241.56C619.5,-240.39 647.62,-239.15 672.39,-238.06"/>
<polygon fill="orange" stroke="orange" points="592.92,-238.06 583.09,-242 593.23,-245.06 592.92,-238.06"/>
</a>
</g>
<text text-anchor="middle" x="624.5" y="-243.85" font-family="Helvetica,sans-Serif" font-size="10.00" fill="grey"> &lt; void &gt;</text>
</g>
<!-- Node13&#45;&gt;Node4 -->
<g id="edge19_Node000013_Node000004" class="edge">
<title>Node13&#45;&gt;Node4</title>
<g id="a_edge19_Node000013_Node000004"><a xlink:title=" ">
<path fill="none" stroke="orange" stroke-dasharray="5,2" d="M568.56,-287.22C596.09,-283.24 626.06,-274.41 648,-255.85 664.45,-241.94 650.13,-225.42 666,-210.85 673.39,-204.06 682.65,-199.2 692.2,-195.7"/>
<polygon fill="orange" stroke="orange" points="568.03,-283.76 558.54,-288.48 568.9,-290.71 568.03,-283.76"/>
</a>
</g>
<text text-anchor="middle" x="624.5" y="-281.85" font-family="Helvetica,sans-Serif" font-size="10.00" fill="grey"> &lt; void &gt;</text>
</g>
<!-- Node14 -->
<g id="Node000014" class="node">
<title>Node14</title>
<g id="a_Node000014"><a xlink:href="classxronos_1_1sdk_1_1InputPort.html" target="_top" xlink:title="A port that receives values from other reactors.">
<polygon fill="white" stroke="#666666" points="822,-357.35 670,-357.35 670,-338.35 822,-338.35 822,-357.35"/>
<text text-anchor="middle" x="746" y="-345.35" font-family="Helvetica,sans-Serif" font-size="10.00">xronos::sdk::InputPort&lt; T &gt;</text>
</a>
</g>
</g>
<!-- Node13&#45;&gt;Node14 -->
<g id="edge17_Node000013_Node000014" class="edge">
<title>Node13&#45;&gt;Node14</title>
<g id="a_edge17_Node000013_Node000014"><a xlink:title=" ">
<path fill="none" stroke="#63b8ff" d="M544.91,-300.82C578.86,-309.08 625.15,-320.27 666,-329.85 677.91,-332.64 690.86,-335.62 702.75,-338.33"/>
<polygon fill="#63b8ff" stroke="#63b8ff" points="545.33,-297.32 534.79,-298.35 543.68,-304.12 545.33,-297.32"/>
</a>
</g>
</g>
<!-- Node15 -->
<g id="Node000015" class="node">
<title>Node15</title>
<g id="a_Node000015"><a xlink:href="classxronos_1_1sdk_1_1OutputPort.html" target="_top" xlink:title="A port that sends values to other reactors.">
<polygon fill="white" stroke="#666666" points="826,-320.35 666,-320.35 666,-301.35 826,-301.35 826,-320.35"/>
<text text-anchor="middle" x="746" y="-308.35" font-family="Helvetica,sans-Serif" font-size="10.00">xronos::sdk::OutputPort&lt; T &gt;</text>
</a>
</g>
</g>
<!-- Node13&#45;&gt;Node15 -->
<g id="edge18_Node000013_Node000015" class="edge">
<title>Node13&#45;&gt;Node15</title>
<g id="a_edge18_Node000013_Node000015"><a xlink:title=" ">
<path fill="none" stroke="#63b8ff" d="M568.65,-295.27C599.17,-297.96 634.74,-301.11 665.92,-303.86"/>
<polygon fill="#63b8ff" stroke="#63b8ff" points="568.78,-291.77 558.51,-294.37 568.16,-298.74 568.78,-291.77"/>
</a>
</g>
</g>
<!-- Node16&#45;&gt;Node5 -->
<g id="edge21_Node000016_Node000005" class="edge">
<title>Node16&#45;&gt;Node5</title>
<g id="a_edge21_Node000016_Node000005"><a xlink:title=" ">
<path fill="none" stroke="orange" stroke-dasharray="5,2" d="M579.42,-65.9C580.65,-64.93 581.85,-63.91 583,-62.85 600.07,-47.14 581.98,-27.13 601,-13.85 632.7,8.28 678.37,-0.92 709.73,-11.77"/>
<polygon fill="orange" stroke="orange" points="577.15,-63.21 570.79,-71.68 581.04,-69.02 577.15,-63.21"/>
</a>
</g>
<text text-anchor="middle" x="624.5" y="-16.85" font-family="Helvetica,sans-Serif" font-size="10.00" fill="grey"> &lt; void &gt;</text>
</g>
</g>
</svg>
