<?xml version="1.0" encoding="UTF-8" standalone="no"?>
<!DOCTYPE svg PUBLIC "-//W3C//DTD SVG 1.1//EN"
 "http://www.w3.org/Graphics/SVG/1.1/DTD/svg11.dtd">
<!-- Generated by graphviz version 2.43.0 (0)
 -->
<!-- Title: xronos::sdk::PhysicalEvent&lt; T &gt; Pages: 1 -->
<svg width="314pt" height="160pt"
 viewBox="0.00 0.00 313.50 160.00" xmlns="http://www.w3.org/2000/svg" xmlns:xlink="http://www.w3.org/1999/xlink">
<g id="graph0" class="graph" transform="scale(1 1) rotate(0) translate(4 156)">
<title>xronos::sdk::PhysicalEvent&lt; T &gt;</title>
<!-- Node1 -->
<g id="Node000001" class="node">
<title>Node1</title>
<g id="a_Node000001"><a xlink:title="An element for scheduling new events from external contexts.">
<polygon fill="#999999" stroke="#666666" points="228.5,-96 52.5,-96 52.5,-77 228.5,-77 228.5,-96"/>
<text text-anchor="middle" x="140.5" y="-84" font-family="Helvetica,sans-Serif" font-size="10.00">xronos::sdk::PhysicalEvent&lt; T &gt;</text>
</a>
</g>
</g>
<!-- Node4 -->
<g id="Node000004" class="node">
<title>Node4</title>
<g id="a_Node000004"><a xlink:href="classxronos_1_1sdk_1_1PhysicalEvent_3_01void_01_4.html" target="_top" xlink:title="An element for scheduling new events from external contexts.">
<polygon fill="white" stroke="#666666" points="214,-30 67,-30 67,0 214,0 214,-30"/>
<text text-anchor="start" x="75" y="-18" font-family="Helvetica,sans-Serif" font-size="10.00">xronos::sdk::PhysicalEvent</text>
<text text-anchor="middle" x="140.5" y="-7" font-family="Helvetica,sans-Serif" font-size="10.00">&lt; void &gt;</text>
</a>
</g>
</g>
<!-- Node1&#45;&gt;Node4 -->
<g id="edge3_Node000001_Node000004" class="edge">
<title>Node1&#45;&gt;Node4</title>
<g id="a_edge3_Node000001_Node000004"><a xlink:title=" ">
<path fill="none" stroke="orange" stroke-dasharray="5,2" d="M140.5,-66.71C140.5,-55.19 140.5,-40.68 140.5,-30.14"/>
<polygon fill="orange" stroke="orange" points="137,-66.98 140.5,-76.98 144,-66.98 137,-66.98"/>
</a>
</g>
<text text-anchor="middle" x="164" y="-51" font-family="Helvetica,sans-Serif" font-size="10.00" fill="grey"> &lt; void &gt;</text>
</g>
<!-- Node2 -->
<g id="Node000002" class="node">
<title>Node2</title>
<g id="a_Node000002"><a xlink:href="classxronos_1_1sdk_1_1Element.html" target="_top" xlink:title="Base class for all reactor elements.">
<polygon fill="white" stroke="#666666" points="119,-152 0,-152 0,-133 119,-133 119,-152"/>
<text text-anchor="middle" x="59.5" y="-140" font-family="Helvetica,sans-Serif" font-size="10.00">xronos::sdk::Element</text>
</a>
</g>
</g>
<!-- Node2&#45;&gt;Node1 -->
<g id="edge1_Node000001_Node000002" class="edge">
<title>Node2&#45;&gt;Node1</title>
<g id="a_edge1_Node000001_Node000002"><a xlink:title=" ">
<path fill="none" stroke="#63b8ff" d="M81.07,-127.12C95.86,-117.26 115.01,-104.49 127.52,-96.15"/>
<polygon fill="#63b8ff" stroke="#63b8ff" points="78.89,-124.36 72.51,-132.82 82.78,-130.19 78.89,-124.36"/>
</a>
</g>
</g>
<!-- Node3 -->
<g id="Node000003" class="node">
<title>Node3</title>
<g id="a_Node000003"><a xlink:href="classxronos_1_1sdk_1_1EventSource.html" target="_top" xlink:title="Base class for reactor elements that can be used as triggers of reactions.">
<polygon fill="white" stroke="#666666" points="305.5,-152 137.5,-152 137.5,-133 305.5,-133 305.5,-152"/>
<text text-anchor="middle" x="221.5" y="-140" font-family="Helvetica,sans-Serif" font-size="10.00">xronos::sdk::EventSource&lt; T &gt;</text>
</a>
</g>
</g>
<!-- Node3&#45;&gt;Node1 -->
<g id="edge2_Node000001_Node000003" class="edge">
<title>Node3&#45;&gt;Node1</title>
<g id="a_edge2_Node000001_Node000003"><a xlink:title=" ">
<path fill="none" stroke="#63b8ff" d="M199.93,-127.12C185.14,-117.26 165.99,-104.49 153.48,-96.15"/>
<polygon fill="#63b8ff" stroke="#63b8ff" points="198.22,-130.19 208.49,-132.82 202.11,-124.36 198.22,-130.19"/>
</a>
</g>
</g>
</g>
</svg>
