<?xml version="1.0" encoding="UTF-8" standalone="no"?>
<!DOCTYPE svg PUBLIC "-//W3C//DTD SVG 1.1//EN"
 "http://www.w3.org/Graphics/SVG/1.1/DTD/svg11.dtd">
<!-- Generated by graphviz version 2.43.0 (0)
 -->
<!-- Title: xronos::sdk::EventSource&lt; T &gt; Pages: 1 -->
<svg width="678pt" height="354pt"
 viewBox="0.00 0.00 678.00 354.00" xmlns="http://www.w3.org/2000/svg" xmlns:xlink="http://www.w3.org/1999/xlink">
<g id="graph0" class="graph" transform="scale(1 1) rotate(0) translate(4 350)">
<title>xronos::sdk::EventSource&lt; T &gt;</title>
<!-- Node1 -->
<g id="Node000001" class="node">
<title>Node1</title>
<g id="a_Node000001"><a xlink:title="Base class for reactor elements that can be used as triggers of reactions.">
<polygon fill="#999999" stroke="#666666" points="168,-160 0,-160 0,-141 168,-141 168,-160"/>
<text text-anchor="middle" x="84" y="-148" font-family="Helvetica,sans-Serif" font-size="10.00">xronos::sdk::EventSource&lt; T &gt;</text>
</a>
</g>
</g>
<!-- Node2 -->
<g id="Node000002" class="node">
<title>Node2</title>
<g id="a_Node000002"><a xlink:href="classxronos_1_1sdk_1_1PhysicalEvent.html" target="_top" xlink:title="An element for scheduling new events from external contexts.">
<polygon fill="white" stroke="#666666" points="427,-236 251,-236 251,-217 427,-217 427,-236"/>
<text text-anchor="middle" x="339" y="-224" font-family="Helvetica,sans-Serif" font-size="10.00">xronos::sdk::PhysicalEvent&lt; T &gt;</text>
</a>
</g>
</g>
<!-- Node1&#45;&gt;Node2 -->
<g id="edge1_Node000001_Node000002" class="edge">
<title>Node1&#45;&gt;Node2</title>
<g id="a_edge1_Node000001_Node000002"><a xlink:title=" ">
<path fill="none" stroke="#63b8ff" d="M126.38,-162.93C176.71,-178.05 260.57,-203.24 306.14,-216.93"/>
<polygon fill="#63b8ff" stroke="#63b8ff" points="127.37,-159.57 116.79,-160.05 125.36,-166.28 127.37,-159.57"/>
</a>
</g>
</g>
<!-- Node4 -->
<g id="Node000004" class="node">
<title>Node4</title>
<g id="a_Node000004"><a xlink:href="classxronos_1_1sdk_1_1Port.html" target="_top" xlink:title="Base class for inputs and outputs of reactors.">
<polygon fill="white" stroke="#666666" points="402.5,-295 275.5,-295 275.5,-276 402.5,-276 402.5,-295"/>
<text text-anchor="middle" x="339" y="-283" font-family="Helvetica,sans-Serif" font-size="10.00">xronos::sdk::Port&lt; T &gt;</text>
</a>
</g>
</g>
<!-- Node1&#45;&gt;Node4 -->
<g id="edge3_Node000001_Node000004" class="edge">
<title>Node1&#45;&gt;Node4</title>
<g id="a_edge3_Node000001_Node000004"><a xlink:title=" ">
<path fill="none" stroke="#63b8ff" d="M109.46,-165.41C141.51,-184.74 199.68,-219.08 251,-245.5 272.58,-256.61 297.84,-268.06 315.57,-275.84"/>
<polygon fill="#63b8ff" stroke="#63b8ff" points="111.13,-162.33 100.76,-160.15 107.51,-168.32 111.13,-162.33"/>
</a>
</g>
</g>
<!-- Node8 -->
<g id="Node000008" class="node">
<title>Node8</title>
<g id="a_Node000008"><a xlink:href="classxronos_1_1sdk_1_1ProgrammableTimer.html" target="_top" xlink:title="A reactor element for scheduling new events.">
<polygon fill="white" stroke="#666666" points="414.5,-58.5 263.5,-58.5 263.5,-28.5 414.5,-28.5 414.5,-58.5"/>
<text text-anchor="start" x="271.5" y="-46.5" font-family="Helvetica,sans-Serif" font-size="10.00">xronos::sdk::Programmable</text>
<text text-anchor="middle" x="339" y="-35.5" font-family="Helvetica,sans-Serif" font-size="10.00">Timer&lt; T &gt;</text>
</a>
</g>
</g>
<!-- Node1&#45;&gt;Node8 -->
<g id="edge7_Node000001_Node000008" class="edge">
<title>Node1&#45;&gt;Node8</title>
<g id="a_edge7_Node000001_Node000008"><a xlink:title=" ">
<path fill="none" stroke="#63b8ff" d="M117.37,-136.81C164.77,-116.76 252.77,-79.55 302.1,-58.68"/>
<polygon fill="#63b8ff" stroke="#63b8ff" points="115.75,-133.7 107.9,-140.82 118.47,-140.14 115.75,-133.7"/>
</a>
</g>
</g>
<!-- Node10 -->
<g id="Node000010" class="node">
<title>Node10</title>
<g id="a_Node000010"><a xlink:href="classxronos_1_1sdk_1_1EventSource_3_01void_01_4.html" target="_top" xlink:title="Base class for reactor elements that can be used as triggers of reactions.">
<polygon fill="white" stroke="#666666" points="409,-141.5 269,-141.5 269,-111.5 409,-111.5 409,-141.5"/>
<text text-anchor="start" x="277" y="-129.5" font-family="Helvetica,sans-Serif" font-size="10.00">xronos::sdk::EventSource</text>
<text text-anchor="middle" x="339" y="-118.5" font-family="Helvetica,sans-Serif" font-size="10.00">&lt; void &gt;</text>
</a>
</g>
</g>
<!-- Node1&#45;&gt;Node10 -->
<g id="edge9_Node000001_Node000010" class="edge">
<title>Node1&#45;&gt;Node10</title>
<g id="a_edge9_Node000001_Node000010"><a xlink:title=" ">
<path fill="none" stroke="orange" stroke-dasharray="5,2" d="M178.23,-141.66C208.18,-138.82 240.8,-135.72 268.71,-133.07"/>
<polygon fill="orange" stroke="orange" points="177.82,-138.18 168.19,-142.61 178.48,-145.15 177.82,-138.18"/>
</a>
</g>
<text text-anchor="middle" x="209.5" y="-144.5" font-family="Helvetica,sans-Serif" font-size="10.00" fill="grey"> &lt; void &gt;</text>
</g>
<!-- Node3 -->
<g id="Node000003" class="node">
<title>Node3</title>
<g id="a_Node000003"><a xlink:href="classxronos_1_1sdk_1_1PhysicalEvent_3_01void_01_4.html" target="_top" xlink:title="An element for scheduling new events from external contexts.">
<polygon fill="white" stroke="#666666" points="663.5,-190.5 516.5,-190.5 516.5,-160.5 663.5,-160.5 663.5,-190.5"/>
<text text-anchor="start" x="524.5" y="-178.5" font-family="Helvetica,sans-Serif" font-size="10.00">xronos::sdk::PhysicalEvent</text>
<text text-anchor="middle" x="590" y="-167.5" font-family="Helvetica,sans-Serif" font-size="10.00">&lt; void &gt;</text>
</a>
</g>
</g>
<!-- Node2&#45;&gt;Node3 -->
<g id="edge2_Node000002_Node000003" class="edge">
<title>Node2&#45;&gt;Node3</title>
<g id="a_edge2_Node000002_Node000003"><a xlink:title=" ">
<path fill="none" stroke="orange" stroke-dasharray="5,2" d="M396.71,-214.88C432.16,-207.62 478.14,-198.21 516.26,-190.4"/>
<polygon fill="orange" stroke="orange" points="395.64,-211.53 386.54,-216.97 397.04,-218.39 395.64,-211.53"/>
</a>
</g>
<text text-anchor="middle" x="468.5" y="-206.5" font-family="Helvetica,sans-Serif" font-size="10.00" fill="grey"> &lt; void &gt;</text>
</g>
<!-- Node5 -->
<g id="Node000005" class="node">
<title>Node5</title>
<g id="a_Node000005"><a xlink:href="classxronos_1_1sdk_1_1InputPort.html" target="_top" xlink:title="A port that receives values from other reactors.">
<polygon fill="white" stroke="#666666" points="666,-309 514,-309 514,-290 666,-290 666,-309"/>
<text text-anchor="middle" x="590" y="-297" font-family="Helvetica,sans-Serif" font-size="10.00">xronos::sdk::InputPort&lt; T &gt;</text>
</a>
</g>
</g>
<!-- Node4&#45;&gt;Node5 -->
<g id="edge4_Node000004_Node000005" class="edge">
<title>Node4&#45;&gt;Node5</title>
<g id="a_edge4_Node000004_Node000005"><a xlink:title=" ">
<path fill="none" stroke="#63b8ff" d="M412.61,-289.58C444.34,-291.37 481.54,-293.46 513.58,-295.26"/>
<polygon fill="#63b8ff" stroke="#63b8ff" points="412.69,-286.08 402.51,-289.01 412.3,-293.07 412.69,-286.08"/>
</a>
</g>
</g>
<!-- Node6 -->
<g id="Node000006" class="node">
<title>Node6</title>
<g id="a_Node000006"><a xlink:href="classxronos_1_1sdk_1_1OutputPort.html" target="_top" xlink:title="A port that sends values to other reactors.">
<polygon fill="white" stroke="#666666" points="670,-346 510,-346 510,-327 670,-327 670,-346"/>
<text text-anchor="middle" x="590" y="-334" font-family="Helvetica,sans-Serif" font-size="10.00">xronos::sdk::OutputPort&lt; T &gt;</text>
</a>
</g>
</g>
<!-- Node4&#45;&gt;Node6 -->
<g id="edge5_Node000004_Node000006" class="edge">
<title>Node4&#45;&gt;Node6</title>
<g id="a_edge5_Node000004_Node000006"><a xlink:title=" ">
<path fill="none" stroke="#63b8ff" d="M396.52,-297.08C440.55,-306.09 500.94,-318.46 542.26,-326.93"/>
<polygon fill="#63b8ff" stroke="#63b8ff" points="397.04,-293.61 386.54,-295.03 395.64,-300.47 397.04,-293.61"/>
</a>
</g>
</g>
<!-- Node7 -->
<g id="Node000007" class="node">
<title>Node7</title>
<g id="a_Node000007"><a xlink:href="classxronos_1_1sdk_1_1Port_3_01void_01_4.html" target="_top" xlink:title="Base class for ports that do not communicate values.">
<polygon fill="white" stroke="#666666" points="643.5,-238.5 536.5,-238.5 536.5,-208.5 643.5,-208.5 643.5,-238.5"/>
<text text-anchor="start" x="544.5" y="-226.5" font-family="Helvetica,sans-Serif" font-size="10.00">xronos::sdk::Port&lt;</text>
<text text-anchor="middle" x="590" y="-215.5" font-family="Helvetica,sans-Serif" font-size="10.00"> void &gt;</text>
</a>
</g>
</g>
<!-- Node4&#45;&gt;Node7 -->
<g id="edge6_Node000004_Node000007" class="edge">
<title>Node4&#45;&gt;Node7</title>
<g id="a_edge6_Node000004_Node000007"><a xlink:title=" ">
<path fill="none" stroke="orange" stroke-dasharray="5,2" d="M388.19,-273.5C430.67,-262.92 492.46,-247.54 536.26,-236.63"/>
<polygon fill="orange" stroke="orange" points="387.22,-270.14 378.36,-275.95 388.91,-276.93 387.22,-270.14"/>
</a>
</g>
<text text-anchor="middle" x="468.5" y="-260.5" font-family="Helvetica,sans-Serif" font-size="10.00" fill="grey"> &lt; void &gt;</text>
</g>
<!-- Node9 -->
<g id="Node000009" class="node">
<title>Node9</title>
<g id="a_Node000009"><a xlink:href="classxronos_1_1sdk_1_1ProgrammableTimer_3_01void_01_4.html" target="_top" xlink:title="An element for scheduling new events.">
<polygon fill="white" stroke="#666666" points="665.5,-67.5 514.5,-67.5 514.5,-37.5 665.5,-37.5 665.5,-67.5"/>
<text text-anchor="start" x="522.5" y="-55.5" font-family="Helvetica,sans-Serif" font-size="10.00">xronos::sdk::Programmable</text>
<text text-anchor="middle" x="590" y="-44.5" font-family="Helvetica,sans-Serif" font-size="10.00">Timer&lt; void &gt;</text>
</a>
</g>
</g>
<!-- Node8&#45;&gt;Node9 -->
<g id="edge8_Node000008_Node000009" class="edge">
<title>Node8&#45;&gt;Node9</title>
<g id="a_edge8_Node000008_Node000009"><a xlink:title=" ">
<path fill="none" stroke="orange" stroke-dasharray="5,2" d="M424.64,-27.64C446.6,-25.43 470.2,-24.74 492,-27.5 508.04,-29.53 525.23,-33.39 540.62,-37.48"/>
<polygon fill="orange" stroke="orange" points="424.23,-24.17 414.68,-28.76 425.01,-31.13 424.23,-24.17"/>
</a>
</g>
<text text-anchor="middle" x="468.5" y="-30.5" font-family="Helvetica,sans-Serif" font-size="10.00" fill="grey"> &lt; void &gt;</text>
</g>
<!-- Node10&#45;&gt;Node3 -->
<g id="edge10_Node000010_Node000003" class="edge">
<title>Node10&#45;&gt;Node3</title>
<g id="a_edge10_Node000010_Node000003"><a xlink:title=" ">
<path fill="none" stroke="#63b8ff" d="M418.99,-135.71C458.83,-142.79 505.89,-152.33 540.38,-160.45"/>
<polygon fill="#63b8ff" stroke="#63b8ff" points="419.48,-132.25 409.03,-133.97 418.28,-139.14 419.48,-132.25"/>
</a>
</g>
</g>
<!-- Node10&#45;&gt;Node3 -->
<g id="edge14_Node000010_Node000003" class="edge">
<title>Node10&#45;&gt;Node3</title>
<g id="a_edge14_Node000010_Node000003"><a xlink:title=" ">
<path fill="none" stroke="#63b8ff" d="M398.73,-143.89C433.95,-151.91 479.02,-160.9 516.45,-167.42"/>
<polygon fill="#63b8ff" stroke="#63b8ff" points="399.13,-140.39 388.6,-141.54 397.55,-147.21 399.13,-140.39"/>
</a>
</g>
</g>
<!-- Node10&#45;&gt;Node7 -->
<g id="edge11_Node000010_Node000007" class="edge">
<title>Node10&#45;&gt;Node7</title>
<g id="a_edge11_Node000010_Node000007"><a xlink:title=" ">
<path fill="none" stroke="#63b8ff" d="M399.47,-145.74C414.27,-152.2 430.15,-159.26 445,-165.5 473.53,-177.5 480.73,-180.44 510,-190.5 527.76,-196.6 548.03,-202.75 563.59,-208.49"/>
<polygon fill="#63b8ff" stroke="#63b8ff" points="400.49,-142.36 389.93,-141.59 397.7,-148.78 400.49,-142.36"/>
</a>
</g>
</g>
<!-- Node10&#45;&gt;Node7 -->
<g id="edge15_Node000010_Node000007" class="edge">
<title>Node10&#45;&gt;Node7</title>
<g id="a_edge15_Node000010_Node000007"><a xlink:title=" ">
<path fill="none" stroke="#63b8ff" d="M366.79,-146.65C387.88,-158.24 418.12,-172.2 445,-183.5 473.53,-195.5 480.73,-198.44 510,-208.5 518.4,-211.39 527.37,-214.29 536.14,-216.89"/>
<polygon fill="#63b8ff" stroke="#63b8ff" points="368.48,-143.58 358.06,-141.67 365.01,-149.66 368.48,-143.58"/>
</a>
</g>
</g>
<!-- Node10&#45;&gt;Node9 -->
<g id="edge12_Node000010_Node000009" class="edge">
<title>Node10&#45;&gt;Node9</title>
<g id="a_edge12_Node000010_Node000009"><a xlink:title=" ">
<path fill="none" stroke="#63b8ff" d="M383.86,-108.18C420.86,-95.59 474.54,-79.35 517.7,-67.52"/>
<polygon fill="#63b8ff" stroke="#63b8ff" points="382.67,-104.89 374.36,-111.46 384.96,-111.5 382.67,-104.89"/>
</a>
</g>
</g>
<!-- Node10&#45;&gt;Node9 -->
<g id="edge16_Node000010_Node000009" class="edge">
<title>Node10&#45;&gt;Node9</title>
<g id="a_edge16_Node000010_Node000009"><a xlink:title=" ">
<path fill="none" stroke="#63b8ff" d="M418.92,-109.38C464.59,-96.68 519.75,-79.79 554.61,-67.55"/>
<polygon fill="#63b8ff" stroke="#63b8ff" points="417.74,-106.07 409.03,-112.1 419.6,-112.82 417.74,-106.07"/>
</a>
</g>
</g>
<!-- Node11 -->
<g id="Node000011" class="node">
<title>Node11</title>
<g id="a_Node000011"><a xlink:href="classxronos_1_1sdk_1_1PeriodicTimer.html" target="_top" xlink:title="A trigger that emits events in regular intervals.">
<polygon fill="white" stroke="#666666" points="663,-105 517,-105 517,-86 663,-86 663,-105"/>
<text text-anchor="middle" x="590" y="-93" font-family="Helvetica,sans-Serif" font-size="10.00">xronos::sdk::PeriodicTimer</text>
</a>
</g>
</g>
<!-- Node10&#45;&gt;Node11 -->
<g id="edge13_Node000010_Node000011" class="edge">
<title>Node10&#45;&gt;Node11</title>
<g id="a_edge13_Node000010_Node000011"><a xlink:title=" ">
<path fill="none" stroke="#63b8ff" d="M419.04,-116.66C450.37,-112.76 486.16,-108.3 516.79,-104.49"/>
<polygon fill="#63b8ff" stroke="#63b8ff" points="418.52,-113.2 409.03,-117.91 419.39,-120.14 418.52,-113.2"/>
</a>
</g>
</g>
<!-- Node12 -->
<g id="Node000012" class="node">
<title>Node12</title>
<g id="a_Node000012"><a xlink:href="classxronos_1_1sdk_1_1Shutdown.html" target="_top" xlink:title="An event that triggers before the program shuts down.">
<polygon fill="white" stroke="#666666" points="653.5,-19 526.5,-19 526.5,0 653.5,0 653.5,-19"/>
<text text-anchor="middle" x="590" y="-7" font-family="Helvetica,sans-Serif" font-size="10.00">xronos::sdk::Shutdown</text>
</a>
</g>
</g>
<!-- Node10&#45;&gt;Node12 -->
<g id="edge17_Node000010_Node000012" class="edge">
<title>Node10&#45;&gt;Node12</title>
<g id="a_edge17_Node000010_Node000012"><a xlink:title=" ">
<path fill="none" stroke="#63b8ff" d="M370.21,-105.49C403.19,-83.43 458.23,-49.15 510,-28.5 519.43,-24.74 529.81,-21.59 539.85,-19.01"/>
<polygon fill="#63b8ff" stroke="#63b8ff" points="367.84,-102.87 361.51,-111.37 371.76,-108.67 367.84,-102.87"/>
</a>
</g>
</g>
<!-- Node13 -->
<g id="Node000013" class="node">
<title>Node13</title>
<g id="a_Node000013"><a xlink:href="classxronos_1_1sdk_1_1Startup.html" target="_top" xlink:title="An event that triggers when the program starts executing.">
<polygon fill="white" stroke="#666666" points="647,-142 533,-142 533,-123 647,-123 647,-142"/>
<text text-anchor="middle" x="590" y="-130" font-family="Helvetica,sans-Serif" font-size="10.00">xronos::sdk::Startup</text>
</a>
</g>
</g>
<!-- Node10&#45;&gt;Node13 -->
<g id="edge18_Node000010_Node000013" class="edge">
<title>Node10&#45;&gt;Node13</title>
<g id="a_edge18_Node000010_Node000013"><a xlink:title=" ">
<path fill="none" stroke="#63b8ff" d="M419.27,-128.41C456.22,-129.3 499.32,-130.34 532.84,-131.15"/>
<polygon fill="#63b8ff" stroke="#63b8ff" points="419.11,-124.91 409.03,-128.16 418.94,-131.9 419.11,-124.91"/>
</a>
</g>
</g>
</g>
</svg>
