<?xml version="1.0" encoding="UTF-8" standalone="no"?>
<!DOCTYPE svg PUBLIC "-//W3C//DTD SVG 1.1//EN"
 "http://www.w3.org/Graphics/SVG/1.1/DTD/svg11.dtd">
<!-- Generated by graphviz version 2.43.0 (0)
 -->
<!-- Title: xronos::sdk::Port&lt; void &gt; Pages: 1 -->
<svg width="500pt" height="181pt"
 viewBox="0.00 0.00 499.50 181.00" xmlns="http://www.w3.org/2000/svg" xmlns:xlink="http://www.w3.org/1999/xlink">
<g id="graph0" class="graph" transform="scale(1 1) rotate(0) translate(4 177)">
<title>xronos::sdk::Port&lt; void &gt;</title>
<!-- Node1 -->
<g id="Node000001" class="node">
<title>Node1</title>
<g id="a_Node000001"><a xlink:title="Base class for ports that do not communicate values.">
<polygon fill="#999999" stroke="#666666" points="214,-30 107,-30 107,0 214,0 214,-30"/>
<text text-anchor="start" x="115" y="-18" font-family="Helvetica,sans-Serif" font-size="10.00">xronos::sdk::Port&lt;</text>
<text text-anchor="middle" x="160.5" y="-7" font-family="Helvetica,sans-Serif" font-size="10.00"> void &gt;</text>
</a>
</g>
</g>
<!-- Node2 -->
<g id="Node000002" class="node">
<title>Node2</title>
<g id="a_Node000002"><a xlink:href="classxronos_1_1sdk_1_1Element.html" target="_top" xlink:title="Base class for all reactor elements.">
<polygon fill="white" stroke="#666666" points="119,-173 0,-173 0,-154 119,-154 119,-173"/>
<text text-anchor="middle" x="59.5" y="-161" font-family="Helvetica,sans-Serif" font-size="10.00">xronos::sdk::Element</text>
</a>
</g>
</g>
<!-- Node2&#45;&gt;Node1 -->
<g id="edge1_Node000001_Node000002" class="edge">
<title>Node2&#45;&gt;Node1</title>
<g id="a_edge1_Node000001_Node000002"><a xlink:title=" ">
<path fill="none" stroke="#63b8ff" d="M55.69,-143.57C57.21,-125.3 64.63,-97.46 78.5,-77 91.56,-57.72 112.38,-41.18 129.95,-30.2"/>
<polygon fill="#63b8ff" stroke="#63b8ff" points="52.19,-143.74 55.52,-153.8 59.19,-143.86 52.19,-143.74"/>
</a>
</g>
</g>
<!-- Node2&#45;&gt;Node1 -->
<g id="edge4_Node000001_Node000002" class="edge">
<title>Node2&#45;&gt;Node1</title>
<g id="a_edge4_Node000001_Node000002"><a xlink:title=" ">
<path fill="none" stroke="#63b8ff" d="M69.27,-144.09C75.07,-125.83 82.5,-97.66 96.5,-77 109.56,-57.72 130.38,-41.18 144.95,-30.2"/>
<polygon fill="#63b8ff" stroke="#63b8ff" points="65.88,-143.2 65.92,-153.8 72.5,-145.49 65.88,-143.2"/>
</a>
</g>
</g>
<!-- Node5 -->
<g id="Node000005" class="node">
<title>Node5</title>
<g id="a_Node000005"><a xlink:href="classxronos_1_1sdk_1_1Port.html" target="_top" xlink:title="Base class for inputs and outputs of reactors.">
<polygon fill="white" stroke="#666666" points="224,-101.5 97,-101.5 97,-82.5 224,-82.5 224,-101.5"/>
<text text-anchor="middle" x="160.5" y="-89.5" font-family="Helvetica,sans-Serif" font-size="10.00">xronos::sdk::Port&lt; T &gt;</text>
</a>
</g>
</g>
<!-- Node2&#45;&gt;Node5 -->
<g id="edge7_Node000005_Node000002" class="edge">
<title>Node2&#45;&gt;Node5</title>
<g id="a_edge7_Node000005_Node000002"><a xlink:title=" ">
<path fill="none" stroke="#63b8ff" d="M80.2,-148.26C100.59,-134.23 131.07,-113.25 148.01,-101.59"/>
<polygon fill="#63b8ff" stroke="#63b8ff" points="78.14,-145.43 71.88,-153.98 82.11,-151.19 78.14,-145.43"/>
</a>
</g>
</g>
<!-- Node3 -->
<g id="Node000003" class="node">
<title>Node3</title>
<g id="a_Node000003"><a xlink:href="classxronos_1_1sdk_1_1EventSource_3_01void_01_4.html" target="_top" xlink:title="Base class for reactor elements that can be used as sources or triggers of reactions.">
<polygon fill="white" stroke="#666666" points="382.5,-107 242.5,-107 242.5,-77 382.5,-77 382.5,-107"/>
<text text-anchor="start" x="250.5" y="-95" font-family="Helvetica,sans-Serif" font-size="10.00">xronos::sdk::EventSource</text>
<text text-anchor="middle" x="312.5" y="-84" font-family="Helvetica,sans-Serif" font-size="10.00">&lt; void &gt;</text>
</a>
</g>
</g>
<!-- Node3&#45;&gt;Node1 -->
<g id="edge2_Node000001_Node000003" class="edge">
<title>Node3&#45;&gt;Node1</title>
<g id="a_edge2_Node000001_Node000003"><a xlink:title=" ">
<path fill="none" stroke="#63b8ff" d="M269.34,-72.62C241.44,-59.48 206.32,-42.07 183.56,-30.04"/>
<polygon fill="#63b8ff" stroke="#63b8ff" points="267.96,-75.83 278.5,-76.89 270.92,-69.49 267.96,-75.83"/>
</a>
</g>
</g>
<!-- Node3&#45;&gt;Node1 -->
<g id="edge5_Node000001_Node000003" class="edge">
<title>Node3&#45;&gt;Node1</title>
<g id="a_edge5_Node000001_Node000003"><a xlink:title=" ">
<path fill="none" stroke="#63b8ff" d="M280.15,-72.1C254.88,-59.03 220.01,-41.91 194.36,-30.04"/>
<polygon fill="#63b8ff" stroke="#63b8ff" points="278.84,-75.37 289.32,-76.89 282.08,-69.16 278.84,-75.37"/>
</a>
</g>
</g>
<!-- Node4 -->
<g id="Node000004" class="node">
<title>Node4</title>
<g id="a_Node000004"><a xlink:href="classxronos_1_1sdk_1_1EventSource.html" target="_top" xlink:title="Base class for reactor elements that can be used as sources or triggers of reactions.">
<polygon fill="white" stroke="#666666" points="491.5,-173 323.5,-173 323.5,-154 491.5,-154 491.5,-173"/>
<text text-anchor="middle" x="407.5" y="-161" font-family="Helvetica,sans-Serif" font-size="10.00">xronos::sdk::EventSource&lt; T &gt;</text>
</a>
</g>
</g>
<!-- Node4&#45;&gt;Node3 -->
<g id="edge3_Node000003_Node000004" class="edge">
<title>Node4&#45;&gt;Node3</title>
<g id="a_edge3_Node000003_Node000004"><a xlink:title=" ">
<path fill="none" stroke="orange" stroke-dasharray="5,2" d="M387.51,-147.88C371.12,-135.88 348.04,-119 331.82,-107.14"/>
<polygon fill="orange" stroke="orange" points="385.71,-150.9 395.85,-153.98 389.85,-145.25 385.71,-150.9"/>
</a>
</g>
<text text-anchor="middle" x="393" y="-128" font-family="Helvetica,sans-Serif" font-size="10.00" fill="grey"> &lt; void &gt;</text>
</g>
<!-- Node5&#45;&gt;Node1 -->
<g id="edge6_Node000001_Node000005" class="edge">
<title>Node5&#45;&gt;Node1</title>
<g id="a_edge6_Node000001_Node000005"><a xlink:title=" ">
<path fill="none" stroke="orange" stroke-dasharray="5,2" d="M160.5,-72.2C160.5,-59.14 160.5,-42.01 160.5,-30.11"/>
<polygon fill="orange" stroke="orange" points="157,-72.4 160.5,-82.4 164,-72.4 157,-72.4"/>
</a>
</g>
<text text-anchor="middle" x="184" y="-51" font-family="Helvetica,sans-Serif" font-size="10.00" fill="grey"> &lt; void &gt;</text>
</g>
<!-- Node6 -->
<g id="Node000006" class="node">
<title>Node6</title>
<g id="a_Node000006"><a xlink:href="classxronos_1_1sdk_1_1EventSource.html" target="_top" xlink:title="Base class for reactor elements that can be used as sources or triggers of reactions.">
<polygon fill="white" stroke="#666666" points="305.5,-173 137.5,-173 137.5,-154 305.5,-154 305.5,-173"/>
<text text-anchor="middle" x="221.5" y="-161" font-family="Helvetica,sans-Serif" font-size="10.00">xronos::sdk::EventSource&lt; T &gt;</text>
</a>
</g>
</g>
<!-- Node6&#45;&gt;Node5 -->
<g id="edge8_Node000005_Node000006" class="edge">
<title>Node6&#45;&gt;Node5</title>
<g id="a_edge8_Node000005_Node000006"><a xlink:title=" ">
<path fill="none" stroke="#63b8ff" d="M207.13,-146.13C194.89,-132.18 177.77,-112.67 168.04,-101.59"/>
<polygon fill="#63b8ff" stroke="#63b8ff" points="204.79,-148.77 214.02,-153.98 210.05,-144.15 204.79,-148.77"/>
</a>
</g>
</g>
</g>
</svg>
