<?xml version="1.0" encoding="UTF-8" standalone="no"?>
<!DOCTYPE svg PUBLIC "-//W3C//DTD SVG 1.1//EN"
 "http://www.w3.org/Graphics/SVG/1.1/DTD/svg11.dtd">
<!-- Generated by graphviz version 2.43.0 (0)
 -->
<!-- Title: xronos::sdk::Element Pages: 1 -->
<svg width="583pt" height="512pt"
 viewBox="0.00 0.00 583.00 511.74" xmlns="http://www.w3.org/2000/svg" xmlns:xlink="http://www.w3.org/1999/xlink">
<g id="graph0" class="graph" transform="scale(1 1) rotate(0) translate(4 507.74)">
<title>xronos::sdk::Element</title>
<!-- Node1 -->
<g id="Node000001" class="node">
<title>Node1</title>
<g id="a_Node000001"><a xlink:title="Base class for all reactor elements.">
<polygon fill="#999999" stroke="#666666" points="119,-299 0,-299 0,-280 119,-280 119,-299"/>
<text text-anchor="middle" x="59.5" y="-287" font-family="Helvetica,sans-Serif" font-size="10.00">xronos::sdk::Element</text>
</a>
</g>
</g>
<!-- Node2 -->
<g id="Node000002" class="node">
<title>Node2</title>
<g id="a_Node000002"><a xlink:href="classxronos_1_1sdk_1_1PhysicalEvent_3_01void_01_4.html" target="_top" xlink:title="An element for scheduling new events from external contexts.">
<polygon fill="white" stroke="#666666" points="568.5,-494.5 421.5,-494.5 421.5,-464.5 568.5,-464.5 568.5,-494.5"/>
<text text-anchor="start" x="429.5" y="-482.5" font-family="Helvetica,sans-Serif" font-size="10.00">xronos::sdk::PhysicalEvent</text>
<text text-anchor="middle" x="495" y="-471.5" font-family="Helvetica,sans-Serif" font-size="10.00">&lt; void &gt;</text>
</a>
</g>
</g>
<!-- Node1&#45;&gt;Node2 -->
<g id="edge1_Node000001_Node000002" class="edge">
<title>Node1&#45;&gt;Node2</title>
<g id="a_edge1_Node000001_Node000002"><a xlink:title=" ">
<path fill="none" stroke="#63b8ff" d="M66.98,-308.75C78.13,-342.85 104.86,-412.07 156,-442.5 236.96,-490.67 348.75,-489.57 421.21,-484.16"/>
<polygon fill="#63b8ff" stroke="#63b8ff" points="70.25,-307.48 63.89,-299 63.57,-309.59 70.25,-307.48"/>
</a>
</g>
</g>
<!-- Node1&#45;&gt;Node2 -->
<g id="edge10_Node000001_Node000002" class="edge">
<title>Node1&#45;&gt;Node2</title>
<g id="a_edge10_Node000001_Node000002"><a xlink:title=" ">
<path fill="none" stroke="#63b8ff" d="M64.12,-309.15C73.1,-346.83 99.82,-427.07 156,-460.5 245.31,-513.64 372.14,-506.81 442.3,-494.5"/>
<polygon fill="#63b8ff" stroke="#63b8ff" points="67.53,-308.34 61.97,-299.32 60.69,-309.84 67.53,-308.34"/>
</a>
</g>
</g>
<!-- Node3 -->
<g id="Node000003" class="node">
<title>Node3</title>
<g id="a_Node000003"><a xlink:href="classxronos_1_1sdk_1_1Port_3_01void_01_4.html" target="_top" xlink:title="Base class for ports that do not communicate values.">
<polygon fill="white" stroke="#666666" points="548.5,-415.5 441.5,-415.5 441.5,-385.5 548.5,-385.5 548.5,-415.5"/>
<text text-anchor="start" x="449.5" y="-403.5" font-family="Helvetica,sans-Serif" font-size="10.00">xronos::sdk::Port&lt;</text>
<text text-anchor="middle" x="495" y="-392.5" font-family="Helvetica,sans-Serif" font-size="10.00"> void &gt;</text>
</a>
</g>
</g>
<!-- Node1&#45;&gt;Node3 -->
<g id="edge2_Node000001_Node000003" class="edge">
<title>Node1&#45;&gt;Node3</title>
<g id="a_edge2_Node000001_Node000003"><a xlink:title=" ">
<path fill="none" stroke="#63b8ff" d="M87.01,-305.32C105.16,-318.67 130.47,-336.64 156,-346.5 251.95,-383.55 373.35,-391.04 441.46,-394.84"/>
<polygon fill="#63b8ff" stroke="#63b8ff" points="88.83,-302.31 78.71,-299.18 84.67,-307.94 88.83,-302.31"/>
</a>
</g>
</g>
<!-- Node1&#45;&gt;Node3 -->
<g id="edge15_Node000001_Node000003" class="edge">
<title>Node1&#45;&gt;Node3</title>
<g id="a_edge15_Node000001_Node000003"><a xlink:title=" ">
<path fill="none" stroke="#63b8ff" d="M72.69,-306.86C89.84,-325.05 122.74,-351.66 156,-364.5 251.95,-401.55 373.35,-409.04 441.46,-407.21"/>
<polygon fill="#63b8ff" stroke="#63b8ff" points="75.19,-304.4 65.97,-299.18 69.92,-309.01 75.19,-304.4"/>
</a>
</g>
</g>
<!-- Node4 -->
<g id="Node000004" class="node">
<title>Node4</title>
<g id="a_Node000004"><a xlink:href="classxronos_1_1sdk_1_1ProgrammableTimer_3_01void_01_4.html" target="_top" xlink:title="An element for scheduling new events.">
<polygon fill="white" stroke="#666666" points="570.5,-279.5 419.5,-279.5 419.5,-249.5 570.5,-249.5 570.5,-279.5"/>
<text text-anchor="start" x="427.5" y="-267.5" font-family="Helvetica,sans-Serif" font-size="10.00">xronos::sdk::Programmable</text>
<text text-anchor="middle" x="495" y="-256.5" font-family="Helvetica,sans-Serif" font-size="10.00">Timer&lt; void &gt;</text>
</a>
</g>
</g>
<!-- Node1&#45;&gt;Node4 -->
<g id="edge3_Node000001_Node000004" class="edge">
<title>Node1&#45;&gt;Node4</title>
<g id="a_edge3_Node000001_Node000004"><a xlink:title=" ">
<path fill="none" stroke="#63b8ff" d="M129.76,-280.4C208.88,-273.69 337.86,-266.21 419.22,-263.56"/>
<polygon fill="#63b8ff" stroke="#63b8ff" points="129.07,-276.95 119.41,-281.3 129.68,-283.92 129.07,-276.95"/>
</a>
</g>
</g>
<!-- Node1&#45;&gt;Node4 -->
<g id="edge18_Node000001_Node000004" class="edge">
<title>Node1&#45;&gt;Node4</title>
<g id="a_edge18_Node000001_Node000004"><a xlink:title=" ">
<path fill="none" stroke="#63b8ff" d="M129.76,-290.61C208.88,-288.19 337.86,-280.8 419.22,-274.06"/>
<polygon fill="#63b8ff" stroke="#63b8ff" points="129.31,-287.12 119.41,-290.91 129.51,-294.12 129.31,-287.12"/>
</a>
</g>
</g>
<!-- Node5 -->
<g id="Node000005" class="node">
<title>Node5</title>
<g id="a_Node000005"><a xlink:href="classxronos_1_1sdk_1_1BaseReaction.html" target="_top" xlink:title="Non&#45;template base class for reactions.">
<polygon fill="white" stroke="#666666" points="317,-204 171,-204 171,-185 317,-185 317,-204"/>
<text text-anchor="middle" x="244" y="-192" font-family="Helvetica,sans-Serif" font-size="10.00">xronos::sdk::BaseReaction</text>
</a>
</g>
</g>
<!-- Node1&#45;&gt;Node5 -->
<g id="edge4_Node000001_Node000005" class="edge">
<title>Node1&#45;&gt;Node5</title>
<g id="a_edge4_Node000001_Node000005"><a xlink:title=" ">
<path fill="none" stroke="#8b1a1a" d="M76.79,-272.58C94.61,-255.09 124.8,-228.33 156,-213.5 164.1,-209.65 172.99,-206.57 181.91,-204.11"/>
<polygon fill="#8b1a1a" stroke="#8b1a1a" points="74.09,-270.32 69.52,-279.88 79.06,-275.26 74.09,-270.32"/>
</a>
</g>
</g>
<!-- Node7 -->
<g id="Node000007" class="node">
<title>Node7</title>
<g id="a_Node000007"><a xlink:href="classxronos_1_1sdk_1_1Metric.html" target="_top" xlink:title="Allows recording values to an external data base from reaction handlers.">
<polygon fill="white" stroke="#666666" points="299,-167 189,-167 189,-148 299,-148 299,-167"/>
<text text-anchor="middle" x="244" y="-155" font-family="Helvetica,sans-Serif" font-size="10.00">xronos::sdk::Metric</text>
</a>
</g>
</g>
<!-- Node1&#45;&gt;Node7 -->
<g id="edge6_Node000001_Node000007" class="edge">
<title>Node1&#45;&gt;Node7</title>
<g id="a_edge6_Node000001_Node000007"><a xlink:title=" ">
<path fill="none" stroke="#63b8ff" d="M70.73,-271.09C85.88,-245.62 116.78,-200.12 156,-176.5 165.93,-170.52 177.51,-166.41 188.92,-163.59"/>
<polygon fill="#63b8ff" stroke="#63b8ff" points="67.68,-269.37 65.71,-279.78 73.74,-272.87 67.68,-269.37"/>
</a>
</g>
</g>
<!-- Node8 -->
<g id="Node000008" class="node">
<title>Node8</title>
<g id="a_Node000008"><a xlink:href="classxronos_1_1sdk_1_1PeriodicTimer.html" target="_top" xlink:title="A trigger that emits events in regular intervals.">
<polygon fill="white" stroke="#666666" points="317,-130 171,-130 171,-111 317,-111 317,-130"/>
<text text-anchor="middle" x="244" y="-118" font-family="Helvetica,sans-Serif" font-size="10.00">xronos::sdk::PeriodicTimer</text>
</a>
</g>
</g>
<!-- Node1&#45;&gt;Node8 -->
<g id="edge7_Node000001_Node000008" class="edge">
<title>Node1&#45;&gt;Node8</title>
<g id="a_edge7_Node000001_Node000008"><a xlink:title=" ">
<path fill="none" stroke="#63b8ff" d="M67.11,-270.29C79.28,-237.89 108.47,-172.68 156,-139.5 161.45,-135.69 167.53,-132.63 173.86,-130.17"/>
<polygon fill="#63b8ff" stroke="#63b8ff" points="63.73,-269.33 63.63,-279.92 70.31,-271.71 63.73,-269.33"/>
</a>
</g>
</g>
<!-- Node9 -->
<g id="Node000009" class="node">
<title>Node9</title>
<g id="a_Node000009"><a xlink:href="classxronos_1_1sdk_1_1PhysicalEvent.html" target="_top" xlink:title="An element for scheduling new events from external contexts.">
<polygon fill="white" stroke="#666666" points="332,-442 156,-442 156,-423 332,-423 332,-442"/>
<text text-anchor="middle" x="244" y="-430" font-family="Helvetica,sans-Serif" font-size="10.00">xronos::sdk::PhysicalEvent&lt; T &gt;</text>
</a>
</g>
</g>
<!-- Node1&#45;&gt;Node9 -->
<g id="edge8_Node000001_Node000009" class="edge">
<title>Node1&#45;&gt;Node9</title>
<g id="a_edge8_Node000001_Node000009"><a xlink:title=" ">
<path fill="none" stroke="#63b8ff" d="M67.29,-308.38C77.88,-335.03 100.95,-383.25 137,-408.5 146.04,-414.83 156.48,-419.52 167.22,-422.99"/>
<polygon fill="#63b8ff" stroke="#63b8ff" points="70.55,-307.12 63.73,-299.01 64.01,-309.6 70.55,-307.12"/>
</a>
</g>
</g>
<!-- Node10 -->
<g id="Node000010" class="node">
<title>Node10</title>
<g id="a_Node000010"><a xlink:href="classxronos_1_1sdk_1_1Port.html" target="_top" xlink:title="Base class for inputs and outputs of reactors.">
<polygon fill="white" stroke="#666666" points="307.5,-346 180.5,-346 180.5,-327 307.5,-327 307.5,-346"/>
<text text-anchor="middle" x="244" y="-334" font-family="Helvetica,sans-Serif" font-size="10.00">xronos::sdk::Port&lt; T &gt;</text>
</a>
</g>
</g>
<!-- Node1&#45;&gt;Node10 -->
<g id="edge11_Node000001_Node000010" class="edge">
<title>Node1&#45;&gt;Node10</title>
<g id="a_edge11_Node000001_Node000010"><a xlink:title=" ">
<path fill="none" stroke="#63b8ff" d="M100.12,-301.98C111.94,-305.55 124.95,-309.33 137,-312.5 156.8,-317.71 178.86,-322.82 197.7,-326.97"/>
<polygon fill="#63b8ff" stroke="#63b8ff" points="101.11,-298.62 90.52,-299.05 99.06,-305.32 101.11,-298.62"/>
</a>
</g>
</g>
<!-- Node13 -->
<g id="Node000013" class="node">
<title>Node13</title>
<g id="a_Node000013"><a xlink:href="classxronos_1_1sdk_1_1ProgrammableTimer.html" target="_top" xlink:title="A reactor element for scheduling new events.">
<polygon fill="white" stroke="#666666" points="319.5,-252.5 168.5,-252.5 168.5,-222.5 319.5,-222.5 319.5,-252.5"/>
<text text-anchor="start" x="176.5" y="-240.5" font-family="Helvetica,sans-Serif" font-size="10.00">xronos::sdk::Programmable</text>
<text text-anchor="middle" x="244" y="-229.5" font-family="Helvetica,sans-Serif" font-size="10.00">Timer&lt; T &gt;</text>
</a>
</g>
</g>
<!-- Node1&#45;&gt;Node13 -->
<g id="edge16_Node000001_Node000013" class="edge">
<title>Node1&#45;&gt;Node13</title>
<g id="a_edge16_Node000001_Node000013"><a xlink:title=" ">
<path fill="none" stroke="#63b8ff" d="M101.49,-276.97C112.96,-273.52 125.45,-269.81 137,-266.5 153.23,-261.84 170.91,-256.94 187.09,-252.52"/>
<polygon fill="#63b8ff" stroke="#63b8ff" points="100.27,-273.68 91.71,-279.92 102.3,-280.38 100.27,-273.68"/>
</a>
</g>
</g>
<!-- Node14 -->
<g id="Node000014" class="node">
<title>Node14</title>
<g id="a_Node000014"><a xlink:href="classxronos_1_1sdk_1_1Reactor.html" target="_top" xlink:title="An abstract reactor that can be subclassed to define new reactors.">
<polygon fill="white" stroke="#666666" points="302,-93 186,-93 186,-74 302,-74 302,-93"/>
<text text-anchor="middle" x="244" y="-81" font-family="Helvetica,sans-Serif" font-size="10.00">xronos::sdk::Reactor</text>
</a>
</g>
</g>
<!-- Node1&#45;&gt;Node14 -->
<g id="edge19_Node000001_Node000014" class="edge">
<title>Node1&#45;&gt;Node14</title>
<g id="a_edge19_Node000001_Node000014"><a xlink:title=" ">
<path fill="none" stroke="#63b8ff" d="M64.63,-269.97C73.82,-231.49 99.77,-145.85 156,-102.5 164.69,-95.8 175.26,-91.35 185.98,-88.43"/>
<polygon fill="#63b8ff" stroke="#63b8ff" points="61.17,-269.37 62.38,-279.9 68,-270.92 61.17,-269.37"/>
</a>
</g>
</g>
<!-- Node15 -->
<g id="Node000015" class="node">
<title>Node15</title>
<g id="a_Node000015"><a xlink:href="classxronos_1_1sdk_1_1Shutdown.html" target="_top" xlink:title="An event that triggers before the program shuts down.">
<polygon fill="white" stroke="#666666" points="307.5,-56 180.5,-56 180.5,-37 307.5,-37 307.5,-56"/>
<text text-anchor="middle" x="244" y="-44" font-family="Helvetica,sans-Serif" font-size="10.00">xronos::sdk::Shutdown</text>
</a>
</g>
</g>
<!-- Node1&#45;&gt;Node15 -->
<g id="edge20_Node000001_Node000015" class="edge">
<title>Node1&#45;&gt;Node15</title>
<g id="a_edge20_Node000001_Node000015"><a xlink:title=" ">
<path fill="none" stroke="#63b8ff" d="M62.9,-269.52C69.3,-225.4 90.99,-119.31 156,-65.5 163.03,-59.68 171.44,-55.54 180.22,-52.61"/>
<polygon fill="#63b8ff" stroke="#63b8ff" points="59.41,-269.18 61.55,-279.56 66.35,-270.11 59.41,-269.18"/>
</a>
</g>
</g>
<!-- Node16 -->
<g id="Node000016" class="node">
<title>Node16</title>
<g id="a_Node000016"><a xlink:href="classxronos_1_1sdk_1_1Startup.html" target="_top" xlink:title="An event that triggers when the program starts executing.">
<polygon fill="white" stroke="#666666" points="301,-19 187,-19 187,0 301,0 301,-19"/>
<text text-anchor="middle" x="244" y="-7" font-family="Helvetica,sans-Serif" font-size="10.00">xronos::sdk::Startup</text>
</a>
</g>
</g>
<!-- Node1&#45;&gt;Node16 -->
<g id="edge21_Node000001_Node000016" class="edge">
<title>Node1&#45;&gt;Node16</title>
<g id="a_edge21_Node000001_Node000016"><a xlink:title=" ">
<path fill="none" stroke="#63b8ff" d="M61.46,-269.55C64.97,-220.26 81.2,-92.09 156,-27.5 164.64,-20.04 175.55,-15.39 186.71,-12.55"/>
<polygon fill="#63b8ff" stroke="#63b8ff" points="57.95,-269.61 60.84,-279.81 64.94,-270.04 57.95,-269.61"/>
</a>
</g>
</g>
<!-- Node6 -->
<g id="Node000006" class="node">
<title>Node6</title>
<g id="a_Node000006"><a xlink:href="classxronos_1_1sdk_1_1Reaction.html" target="_top" xlink:title="Reaction base class that is intended to be inherited by application code.">
<polygon fill="white" stroke="#666666" points="570.5,-204 419.5,-204 419.5,-185 570.5,-185 570.5,-204"/>
<text text-anchor="middle" x="495" y="-192" font-family="Helvetica,sans-Serif" font-size="10.00">xronos::sdk::Reaction&lt; R &gt;</text>
</a>
</g>
</g>
<!-- Node5&#45;&gt;Node6 -->
<g id="edge5_Node000005_Node000006" class="edge">
<title>Node5&#45;&gt;Node6</title>
<g id="a_edge5_Node000005_Node000006"><a xlink:title=" ">
<path fill="none" stroke="#63b8ff" d="M327.33,-194.5C356.94,-194.5 390.17,-194.5 419.11,-194.5"/>
<polygon fill="#63b8ff" stroke="#63b8ff" points="327.02,-191 317.02,-194.5 327.02,-198 327.02,-191"/>
</a>
</g>
</g>
<!-- Node9&#45;&gt;Node2 -->
<g id="edge9_Node000009_Node000002" class="edge">
<title>Node9&#45;&gt;Node2</title>
<g id="a_edge9_Node000009_Node000002"><a xlink:title=" ">
<path fill="none" stroke="orange" stroke-dasharray="5,2" d="M342.44,-437.17C360.69,-439.08 379.52,-441.75 397,-445.5 417.59,-449.91 439.81,-457.48 457.78,-464.36"/>
<polygon fill="orange" stroke="orange" points="342.66,-433.67 332.37,-436.19 341.98,-440.64 342.66,-433.67"/>
</a>
</g>
<text text-anchor="middle" x="373.5" y="-448.5" font-family="Helvetica,sans-Serif" font-size="10.00" fill="grey"> &lt; void &gt;</text>
</g>
<!-- Node10&#45;&gt;Node3 -->
<g id="edge14_Node000010_Node000003" class="edge">
<title>Node10&#45;&gt;Node3</title>
<g id="a_edge14_Node000010_Node000003"><a xlink:title=" ">
<path fill="none" stroke="orange" stroke-dasharray="5,2" d="M313.44,-347.87C339.75,-352.79 369.96,-359.13 397,-366.5 416.46,-371.8 437.63,-379.05 455.23,-385.49"/>
<polygon fill="orange" stroke="orange" points="314.02,-344.41 303.55,-346.05 312.76,-351.3 314.02,-344.41"/>
</a>
</g>
<text text-anchor="middle" x="373.5" y="-369.5" font-family="Helvetica,sans-Serif" font-size="10.00" fill="grey"> &lt; void &gt;</text>
</g>
<!-- Node11 -->
<g id="Node000011" class="node">
<title>Node11</title>
<g id="a_Node000011"><a xlink:href="classxronos_1_1sdk_1_1InputPort.html" target="_top" xlink:title="A port that receives values from other reactors.">
<polygon fill="white" stroke="#666666" points="571,-354 419,-354 419,-335 571,-335 571,-354"/>
<text text-anchor="middle" x="495" y="-342" font-family="Helvetica,sans-Serif" font-size="10.00">xronos::sdk::InputPort&lt; T &gt;</text>
</a>
</g>
</g>
<!-- Node10&#45;&gt;Node11 -->
<g id="edge12_Node000010_Node000011" class="edge">
<title>Node10&#45;&gt;Node11</title>
<g id="a_edge12_Node000010_Node000011"><a xlink:title=" ">
<path fill="none" stroke="#63b8ff" d="M317.61,-338.83C349.34,-339.85 386.54,-341.05 418.58,-342.08"/>
<polygon fill="#63b8ff" stroke="#63b8ff" points="317.62,-335.33 307.51,-338.51 317.39,-342.33 317.62,-335.33"/>
</a>
</g>
</g>
<!-- Node12 -->
<g id="Node000012" class="node">
<title>Node12</title>
<g id="a_Node000012"><a xlink:href="classxronos_1_1sdk_1_1OutputPort.html" target="_top" xlink:title="A port that sends values to other reactors.">
<polygon fill="white" stroke="#666666" points="575,-317 415,-317 415,-298 575,-298 575,-317"/>
<text text-anchor="middle" x="495" y="-305" font-family="Helvetica,sans-Serif" font-size="10.00">xronos::sdk::OutputPort&lt; T &gt;</text>
</a>
</g>
</g>
<!-- Node10&#45;&gt;Node12 -->
<g id="edge13_Node000010_Node000012" class="edge">
<title>Node10&#45;&gt;Node12</title>
<g id="a_edge13_Node000010_Node000012"><a xlink:title=" ">
<path fill="none" stroke="#63b8ff" d="M317.65,-328.04C348.17,-324.48 383.74,-320.34 414.92,-316.71"/>
<polygon fill="#63b8ff" stroke="#63b8ff" points="317.04,-324.59 307.51,-329.22 317.85,-331.54 317.04,-324.59"/>
</a>
</g>
</g>
<!-- Node13&#45;&gt;Node4 -->
<g id="edge17_Node000013_Node000004" class="edge">
<title>Node13&#45;&gt;Node4</title>
<g id="a_edge17_Node000013_Node000004"><a xlink:title=" ">
<path fill="none" stroke="orange" stroke-dasharray="5,2" d="M330.12,-235.04C351.99,-235.39 375.43,-236.62 397,-239.5 412.86,-241.62 429.85,-245.44 445.1,-249.47"/>
<polygon fill="orange" stroke="orange" points="329.9,-231.54 319.86,-234.94 329.83,-238.54 329.9,-231.54"/>
</a>
</g>
<text text-anchor="middle" x="373.5" y="-242.5" font-family="Helvetica,sans-Serif" font-size="10.00" fill="grey"> &lt; void &gt;</text>
</g>
</g>
</svg>
