<?xml version="1.0" encoding="UTF-8" standalone="no"?>
<!DOCTYPE svg PUBLIC "-//W3C//DTD SVG 1.1//EN"
 "http://www.w3.org/Graphics/SVG/1.1/DTD/svg11.dtd">
<!-- Generated by graphviz version 2.43.0 (0)
 -->
<!-- Title: xronos::sdk::Port&lt; void &gt; Pages: 1 -->
<svg width="454pt" height="237pt"
 viewBox="0.00 0.00 454.00 237.00" xmlns="http://www.w3.org/2000/svg" xmlns:xlink="http://www.w3.org/1999/xlink">
<g id="graph0" class="graph" transform="scale(1 1) rotate(0) translate(4 233)">
<title>xronos::sdk::Port&lt; void &gt;</title>
<!-- Node1 -->
<g id="Node000001" class="node">
<title>Node1</title>
<g id="a_Node000001"><a xlink:title="Base class for ports that do not communicate values.">
<polygon fill="#999999" stroke="#666666" points="123.5,-30 16.5,-30 16.5,0 123.5,0 123.5,-30"/>
<text text-anchor="start" x="24.5" y="-18" font-family="Helvetica,sans-Serif" font-size="10.00">xronos::sdk::Port&lt;</text>
<text text-anchor="middle" x="70" y="-7" font-family="Helvetica,sans-Serif" font-size="10.00"> void &gt;</text>
</a>
</g>
</g>
<!-- Node2 -->
<g id="Node000002" class="node">
<title>Node2</title>
<g id="a_Node000002"><a xlink:href="classxronos_1_1sdk_1_1EventSource_3_01void_01_4.html" target="_top" xlink:title="Base class for reactor elements that can be used as triggers of reactions.">
<polygon fill="white" stroke="#666666" points="140,-107 0,-107 0,-77 140,-77 140,-107"/>
<text text-anchor="start" x="8" y="-95" font-family="Helvetica,sans-Serif" font-size="10.00">xronos::sdk::EventSource</text>
<text text-anchor="middle" x="70" y="-84" font-family="Helvetica,sans-Serif" font-size="10.00">&lt; void &gt;</text>
</a>
</g>
</g>
<!-- Node2&#45;&gt;Node1 -->
<g id="edge1_Node000001_Node000002" class="edge">
<title>Node2&#45;&gt;Node1</title>
<g id="a_edge1_Node000001_Node000002"><a xlink:title=" ">
<path fill="none" stroke="#63b8ff" d="M63.65,-66.91C62.89,-54.74 63.21,-40.4 64.6,-30.04"/>
<polygon fill="#63b8ff" stroke="#63b8ff" points="60.17,-67.26 64.59,-76.89 67.14,-66.61 60.17,-67.26"/>
</a>
</g>
</g>
<!-- Node2&#45;&gt;Node1 -->
<g id="edge6_Node000001_Node000002" class="edge">
<title>Node2&#45;&gt;Node1</title>
<g id="a_edge6_Node000001_Node000002"><a xlink:title=" ">
<path fill="none" stroke="#63b8ff" d="M76.35,-66.91C77.11,-54.74 76.79,-40.4 75.4,-30.04"/>
<polygon fill="#63b8ff" stroke="#63b8ff" points="72.86,-66.61 75.41,-76.89 79.83,-67.26 72.86,-66.61"/>
</a>
</g>
</g>
<!-- Node3 -->
<g id="Node000003" class="node">
<title>Node3</title>
<g id="a_Node000003"><a xlink:href="classxronos_1_1sdk_1_1Element.html" target="_top" xlink:title="Base class for all reactor elements.">
<polygon fill="white" stroke="#666666" points="131.5,-229 12.5,-229 12.5,-210 131.5,-210 131.5,-229"/>
<text text-anchor="middle" x="72" y="-217" font-family="Helvetica,sans-Serif" font-size="10.00">xronos::sdk::Element</text>
</a>
</g>
</g>
<!-- Node3&#45;&gt;Node2 -->
<g id="edge2_Node000002_Node000003" class="edge">
<title>Node3&#45;&gt;Node2</title>
<g id="a_edge2_Node000002_Node000003"><a xlink:title=" ">
<path fill="none" stroke="#63b8ff" d="M66.72,-199.76C63.8,-174.48 63.26,-130.02 65.75,-107.27"/>
<polygon fill="#63b8ff" stroke="#63b8ff" points="63.3,-200.5 68.23,-209.87 70.22,-199.47 63.3,-200.5"/>
</a>
</g>
</g>
<!-- Node3&#45;&gt;Node2 -->
<g id="edge3_Node000002_Node000003" class="edge">
<title>Node3&#45;&gt;Node2</title>
<g id="a_edge3_Node000002_Node000003"><a xlink:title=" ">
<path fill="none" stroke="#63b8ff" d="M76.68,-199.76C78.8,-174.48 77.92,-130.02 74.71,-107.27"/>
<polygon fill="#63b8ff" stroke="#63b8ff" points="73.18,-199.53 75.49,-209.87 80.13,-200.35 73.18,-199.53"/>
</a>
</g>
</g>
<!-- Node4 -->
<g id="Node000004" class="node">
<title>Node4</title>
<g id="a_Node000004"><a xlink:href="classxronos_1_1sdk_1_1EventSource.html" target="_top" xlink:title="Base class for reactor elements that can be used as triggers of reactions.">
<polygon fill="white" stroke="#666666" points="260,-173 92,-173 92,-154 260,-154 260,-173"/>
<text text-anchor="middle" x="176" y="-161" font-family="Helvetica,sans-Serif" font-size="10.00">xronos::sdk::EventSource&lt; T &gt;</text>
</a>
</g>
</g>
<!-- Node3&#45;&gt;Node4 -->
<g id="edge5_Node000004_Node000003" class="edge">
<title>Node3&#45;&gt;Node4</title>
<g id="a_edge5_Node000004_Node000003"><a xlink:title=" ">
<path fill="none" stroke="#63b8ff" d="M97.83,-205.09C117.06,-195.11 142.74,-181.77 159.33,-173.15"/>
<polygon fill="#63b8ff" stroke="#63b8ff" points="95.97,-202.11 88.71,-209.82 99.2,-208.32 95.97,-202.11"/>
</a>
</g>
</g>
<!-- Node6 -->
<g id="Node000006" class="node">
<title>Node6</title>
<g id="a_Node000006"><a xlink:href="classxronos_1_1sdk_1_1EventSource.html" target="_top" xlink:title="Base class for reactor elements that can be used as triggers of reactions.">
<polygon fill="white" stroke="#666666" points="446,-173 278,-173 278,-154 446,-154 446,-173"/>
<text text-anchor="middle" x="362" y="-161" font-family="Helvetica,sans-Serif" font-size="10.00">xronos::sdk::EventSource&lt; T &gt;</text>
</a>
</g>
</g>
<!-- Node3&#45;&gt;Node6 -->
<g id="edge9_Node000006_Node000003" class="edge">
<title>Node3&#45;&gt;Node6</title>
<g id="a_edge9_Node000006_Node000003"><a xlink:title=" ">
<path fill="none" stroke="#63b8ff" d="M127.85,-208.1C182.65,-197.9 265.23,-182.52 316.26,-173.02"/>
<polygon fill="#63b8ff" stroke="#63b8ff" points="127.14,-204.67 117.95,-209.94 128.42,-211.55 127.14,-204.67"/>
</a>
</g>
</g>
<!-- Node4&#45;&gt;Node2 -->
<g id="edge4_Node000002_Node000004" class="edge">
<title>Node4&#45;&gt;Node2</title>
<g id="a_edge4_Node000002_Node000004"><a xlink:title=" ">
<path fill="none" stroke="orange" stroke-dasharray="5,2" d="M154.46,-148.38C136.12,-136.35 109.91,-119.17 91.56,-107.14"/>
<polygon fill="orange" stroke="orange" points="152.72,-151.42 163,-153.98 156.56,-145.57 152.72,-151.42"/>
</a>
</g>
<text text-anchor="middle" x="155.5" y="-128" font-family="Helvetica,sans-Serif" font-size="10.00" fill="grey"> &lt; void &gt;</text>
</g>
<!-- Node5 -->
<g id="Node000005" class="node">
<title>Node5</title>
<g id="a_Node000005"><a xlink:href="classxronos_1_1sdk_1_1Port.html" target="_top" xlink:title="Base class for inputs and outputs of reactors.">
<polygon fill="white" stroke="#666666" points="308.5,-101.5 181.5,-101.5 181.5,-82.5 308.5,-82.5 308.5,-101.5"/>
<text text-anchor="middle" x="245" y="-89.5" font-family="Helvetica,sans-Serif" font-size="10.00">xronos::sdk::Port&lt; T &gt;</text>
</a>
</g>
</g>
<!-- Node5&#45;&gt;Node1 -->
<g id="edge7_Node000001_Node000005" class="edge">
<title>Node5&#45;&gt;Node1</title>
<g id="a_edge7_Node000001_Node000005"><a xlink:title=" ">
<path fill="none" stroke="orange" stroke-dasharray="5,2" d="M215.48,-78.35C184.32,-64.99 135.32,-43.99 102.93,-30.11"/>
<polygon fill="orange" stroke="orange" points="214.36,-81.67 224.93,-82.4 217.11,-75.24 214.36,-81.67"/>
</a>
</g>
<text text-anchor="middle" x="190.5" y="-51" font-family="Helvetica,sans-Serif" font-size="10.00" fill="grey"> &lt; void &gt;</text>
</g>
<!-- Node6&#45;&gt;Node5 -->
<g id="edge8_Node000005_Node000006" class="edge">
<title>Node6&#45;&gt;Node5</title>
<g id="a_edge8_Node000005_Node000006"><a xlink:title=" ">
<path fill="none" stroke="#63b8ff" d="M338.97,-148.82C315.36,-134.79 279.35,-113.41 259.46,-101.59"/>
<polygon fill="#63b8ff" stroke="#63b8ff" points="337.27,-151.88 347.65,-153.98 340.84,-145.86 337.27,-151.88"/>
</a>
</g>
</g>
</g>
</svg>
