<?xml version="1.0" encoding="UTF-8" standalone="no"?>
<!DOCTYPE svg PUBLIC "-//W3C//DTD SVG 1.1//EN"
 "http://www.w3.org/Graphics/SVG/1.1/DTD/svg11.dtd">
<!-- Generated by graphviz version 2.43.0 (0)
 -->
<!-- Title: xronos::sdk::PhysicalEvent&lt; void &gt; Pages: 1 -->
<svg width="470pt" height="237pt"
 viewBox="0.00 0.00 469.50 237.00" xmlns="http://www.w3.org/2000/svg" xmlns:xlink="http://www.w3.org/1999/xlink">
<g id="graph0" class="graph" transform="scale(1 1) rotate(0) translate(4 233)">
<title>xronos::sdk::PhysicalEvent&lt; void &gt;</title>
<!-- Node1 -->
<g id="Node000001" class="node">
<title>Node1</title>
<g id="a_Node000001"><a xlink:title="An element for scheduling new events from external contexts.">
<polygon fill="#999999" stroke="#666666" points="147,-30 0,-30 0,0 147,0 147,-30"/>
<text text-anchor="start" x="8" y="-18" font-family="Helvetica,sans-Serif" font-size="10.00">xronos::sdk::PhysicalEvent</text>
<text text-anchor="middle" x="73.5" y="-7" font-family="Helvetica,sans-Serif" font-size="10.00">&lt; void &gt;</text>
</a>
</g>
</g>
<!-- Node2 -->
<g id="Node000002" class="node">
<title>Node2</title>
<g id="a_Node000002"><a xlink:href="classxronos_1_1sdk_1_1EventSource_3_01void_01_4.html" target="_top" xlink:title="Base class for reactor elements that can be used as triggers of reactions.">
<polygon fill="white" stroke="#666666" points="143.5,-107 3.5,-107 3.5,-77 143.5,-77 143.5,-107"/>
<text text-anchor="start" x="11.5" y="-95" font-family="Helvetica,sans-Serif" font-size="10.00">xronos::sdk::EventSource</text>
<text text-anchor="middle" x="73.5" y="-84" font-family="Helvetica,sans-Serif" font-size="10.00">&lt; void &gt;</text>
</a>
</g>
</g>
<!-- Node2&#45;&gt;Node1 -->
<g id="edge1_Node000001_Node000002" class="edge">
<title>Node2&#45;&gt;Node1</title>
<g id="a_edge1_Node000001_Node000002"><a xlink:title=" ">
<path fill="none" stroke="#63b8ff" d="M67.15,-66.91C66.39,-54.74 66.71,-40.4 68.1,-30.04"/>
<polygon fill="#63b8ff" stroke="#63b8ff" points="63.67,-67.26 68.09,-76.89 70.64,-66.61 63.67,-67.26"/>
</a>
</g>
</g>
<!-- Node2&#45;&gt;Node1 -->
<g id="edge6_Node000001_Node000002" class="edge">
<title>Node2&#45;&gt;Node1</title>
<g id="a_edge6_Node000001_Node000002"><a xlink:title=" ">
<path fill="none" stroke="#63b8ff" d="M79.85,-66.91C80.61,-54.74 80.29,-40.4 78.9,-30.04"/>
<polygon fill="#63b8ff" stroke="#63b8ff" points="76.36,-66.61 78.91,-76.89 83.33,-67.26 76.36,-66.61"/>
</a>
</g>
</g>
<!-- Node3 -->
<g id="Node000003" class="node">
<title>Node3</title>
<g id="a_Node000003"><a xlink:href="classxronos_1_1sdk_1_1Element.html" target="_top" xlink:title="Base class for all reactor elements.">
<polygon fill="white" stroke="#666666" points="147,-229 28,-229 28,-210 147,-210 147,-229"/>
<text text-anchor="middle" x="87.5" y="-217" font-family="Helvetica,sans-Serif" font-size="10.00">xronos::sdk::Element</text>
</a>
</g>
</g>
<!-- Node3&#45;&gt;Node2 -->
<g id="edge2_Node000002_Node000003" class="edge">
<title>Node3&#45;&gt;Node2</title>
<g id="a_edge2_Node000002_Node000003"><a xlink:title=" ">
<path fill="none" stroke="#63b8ff" d="M80.5,-200.1C75.14,-174.88 70.3,-130.12 70.61,-107.27"/>
<polygon fill="#63b8ff" stroke="#63b8ff" points="77.12,-201 82.91,-209.87 83.92,-199.33 77.12,-201"/>
</a>
</g>
</g>
<!-- Node3&#45;&gt;Node2 -->
<g id="edge3_Node000002_Node000003" class="edge">
<title>Node3&#45;&gt;Node2</title>
<g id="a_edge3_Node000002_Node000003"><a xlink:title=" ">
<path fill="none" stroke="#63b8ff" d="M90.39,-199.76C90.09,-174.48 84.96,-130.02 79.57,-107.27"/>
<polygon fill="#63b8ff" stroke="#63b8ff" points="86.89,-199.8 90.17,-209.87 93.88,-199.95 86.89,-199.8"/>
</a>
</g>
</g>
<!-- Node4 -->
<g id="Node000004" class="node">
<title>Node4</title>
<g id="a_Node000004"><a xlink:href="classxronos_1_1sdk_1_1EventSource.html" target="_top" xlink:title="Base class for reactor elements that can be used as triggers of reactions.">
<polygon fill="white" stroke="#666666" points="275.5,-173 107.5,-173 107.5,-154 275.5,-154 275.5,-173"/>
<text text-anchor="middle" x="191.5" y="-161" font-family="Helvetica,sans-Serif" font-size="10.00">xronos::sdk::EventSource&lt; T &gt;</text>
</a>
</g>
</g>
<!-- Node3&#45;&gt;Node4 -->
<g id="edge5_Node000004_Node000003" class="edge">
<title>Node3&#45;&gt;Node4</title>
<g id="a_edge5_Node000004_Node000003"><a xlink:title=" ">
<path fill="none" stroke="#63b8ff" d="M113.33,-205.09C132.56,-195.11 158.24,-181.77 174.83,-173.15"/>
<polygon fill="#63b8ff" stroke="#63b8ff" points="111.47,-202.11 104.21,-209.82 114.7,-208.32 111.47,-202.11"/>
</a>
</g>
</g>
<!-- Node6 -->
<g id="Node000006" class="node">
<title>Node6</title>
<g id="a_Node000006"><a xlink:href="classxronos_1_1sdk_1_1EventSource.html" target="_top" xlink:title="Base class for reactor elements that can be used as triggers of reactions.">
<polygon fill="white" stroke="#666666" points="461.5,-173 293.5,-173 293.5,-154 461.5,-154 461.5,-173"/>
<text text-anchor="middle" x="377.5" y="-161" font-family="Helvetica,sans-Serif" font-size="10.00">xronos::sdk::EventSource&lt; T &gt;</text>
</a>
</g>
</g>
<!-- Node3&#45;&gt;Node6 -->
<g id="edge9_Node000006_Node000003" class="edge">
<title>Node3&#45;&gt;Node6</title>
<g id="a_edge9_Node000006_Node000003"><a xlink:title=" ">
<path fill="none" stroke="#63b8ff" d="M143.35,-208.1C198.15,-197.9 280.73,-182.52 331.76,-173.02"/>
<polygon fill="#63b8ff" stroke="#63b8ff" points="142.64,-204.67 133.45,-209.94 143.92,-211.55 142.64,-204.67"/>
</a>
</g>
</g>
<!-- Node4&#45;&gt;Node2 -->
<g id="edge4_Node000002_Node000004" class="edge">
<title>Node4&#45;&gt;Node2</title>
<g id="a_edge4_Node000002_Node000004"><a xlink:title=" ">
<path fill="none" stroke="orange" stroke-dasharray="5,2" d="M168.35,-148.87C147.91,-136.82 118.2,-119.33 97.5,-107.14"/>
<polygon fill="orange" stroke="orange" points="166.64,-151.92 177.03,-153.98 170.19,-145.89 166.64,-151.92"/>
</a>
</g>
<text text-anchor="middle" x="166" y="-128" font-family="Helvetica,sans-Serif" font-size="10.00" fill="grey"> &lt; void &gt;</text>
</g>
<!-- Node5 -->
<g id="Node000005" class="node">
<title>Node5</title>
<g id="a_Node000005"><a xlink:href="classxronos_1_1sdk_1_1PhysicalEvent.html" target="_top" xlink:title="An element for scheduling new events from external contexts.">
<polygon fill="white" stroke="#666666" points="357.5,-101.5 181.5,-101.5 181.5,-82.5 357.5,-82.5 357.5,-101.5"/>
<text text-anchor="middle" x="269.5" y="-89.5" font-family="Helvetica,sans-Serif" font-size="10.00">xronos::sdk::PhysicalEvent&lt; T &gt;</text>
</a>
</g>
</g>
<!-- Node5&#45;&gt;Node1 -->
<g id="edge7_Node000001_Node000005" class="edge">
<title>Node5&#45;&gt;Node1</title>
<g id="a_edge7_Node000001_Node000005"><a xlink:title=" ">
<path fill="none" stroke="orange" stroke-dasharray="5,2" d="M237.34,-78.69C202.49,-65.36 146.97,-44.11 110.38,-30.11"/>
<polygon fill="orange" stroke="orange" points="236.43,-82.09 247.02,-82.4 238.93,-75.55 236.43,-82.09"/>
</a>
</g>
<text text-anchor="middle" x="206" y="-51" font-family="Helvetica,sans-Serif" font-size="10.00" fill="grey"> &lt; void &gt;</text>
</g>
<!-- Node6&#45;&gt;Node5 -->
<g id="edge8_Node000005_Node000006" class="edge">
<title>Node6&#45;&gt;Node5</title>
<g id="a_edge8_Node000005_Node000006"><a xlink:title=" ">
<path fill="none" stroke="#63b8ff" d="M355.66,-148.45C333.86,-134.41 301.05,-113.3 282.85,-101.59"/>
<polygon fill="#63b8ff" stroke="#63b8ff" points="353.95,-151.51 364.26,-153.98 357.74,-145.62 353.95,-151.51"/>
</a>
</g>
</g>
</g>
</svg>
