<?xml version="1.0" encoding="UTF-8" standalone="no"?>
<!DOCTYPE svg PUBLIC "-//W3C//DTD SVG 1.1//EN"
 "http://www.w3.org/Graphics/SVG/1.1/DTD/svg11.dtd">
<!-- Generated by graphviz version 2.43.0 (0)
 -->
<!-- Title: xronos::sdk::Port&lt; T &gt; Pages: 1 -->
<svg width="464pt" height="160pt"
 viewBox="0.00 0.00 463.50 160.00" xmlns="http://www.w3.org/2000/svg" xmlns:xlink="http://www.w3.org/1999/xlink">
<g id="graph0" class="graph" transform="scale(1 1) rotate(0) translate(4 156)">
<title>xronos::sdk::Port&lt; T &gt;</title>
<!-- Node1 -->
<g id="Node000001" class="node">
<title>Node1</title>
<g id="a_Node000001"><a xlink:title="Base class for inputs and outputs of reactors.">
<polygon fill="#999999" stroke="#666666" points="313.5,-96 186.5,-96 186.5,-77 313.5,-77 313.5,-96"/>
<text text-anchor="middle" x="250" y="-84" font-family="Helvetica,sans-Serif" font-size="10.00">xronos::sdk::Port&lt; T &gt;</text>
</a>
</g>
</g>
<!-- Node4 -->
<g id="Node000004" class="node">
<title>Node4</title>
<g id="a_Node000004"><a xlink:href="classxronos_1_1sdk_1_1InputPort.html" target="_top" xlink:title="A port that receives values from other reactors.">
<polygon fill="white" stroke="#666666" points="152,-24.5 0,-24.5 0,-5.5 152,-5.5 152,-24.5"/>
<text text-anchor="middle" x="76" y="-12.5" font-family="Helvetica,sans-Serif" font-size="10.00">xronos::sdk::InputPort&lt; T &gt;</text>
</a>
</g>
</g>
<!-- Node1&#45;&gt;Node4 -->
<g id="edge3_Node000001_Node000004" class="edge">
<title>Node1&#45;&gt;Node4</title>
<g id="a_edge3_Node000001_Node000004"><a xlink:title=" ">
<path fill="none" stroke="#63b8ff" d="M218.96,-73.1C183.97,-59.13 128,-36.77 97.51,-24.59"/>
<polygon fill="#63b8ff" stroke="#63b8ff" points="218.08,-76.52 228.66,-76.98 220.68,-70.02 218.08,-76.52"/>
</a>
</g>
</g>
<!-- Node5 -->
<g id="Node000005" class="node">
<title>Node5</title>
<g id="a_Node000005"><a xlink:href="classxronos_1_1sdk_1_1OutputPort.html" target="_top" xlink:title="A port that sends values to other reactors.">
<polygon fill="white" stroke="#666666" points="330,-24.5 170,-24.5 170,-5.5 330,-5.5 330,-24.5"/>
<text text-anchor="middle" x="250" y="-12.5" font-family="Helvetica,sans-Serif" font-size="10.00">xronos::sdk::OutputPort&lt; T &gt;</text>
</a>
</g>
</g>
<!-- Node1&#45;&gt;Node5 -->
<g id="edge4_Node000001_Node000005" class="edge">
<title>Node1&#45;&gt;Node5</title>
<g id="a_edge4_Node000001_Node000005"><a xlink:title=" ">
<path fill="none" stroke="#63b8ff" d="M250,-66.71C250,-53 250,-35.05 250,-24.59"/>
<polygon fill="#63b8ff" stroke="#63b8ff" points="246.5,-66.98 250,-76.98 253.5,-66.98 246.5,-66.98"/>
</a>
</g>
</g>
<!-- Node6 -->
<g id="Node000006" class="node">
<title>Node6</title>
<g id="a_Node000006"><a xlink:href="classxronos_1_1sdk_1_1Port_3_01void_01_4.html" target="_top" xlink:title="Base class for ports that do not communicate values.">
<polygon fill="white" stroke="#666666" points="455.5,-30 348.5,-30 348.5,0 455.5,0 455.5,-30"/>
<text text-anchor="start" x="356.5" y="-18" font-family="Helvetica,sans-Serif" font-size="10.00">xronos::sdk::Port&lt;</text>
<text text-anchor="middle" x="402" y="-7" font-family="Helvetica,sans-Serif" font-size="10.00"> void &gt;</text>
</a>
</g>
</g>
<!-- Node1&#45;&gt;Node6 -->
<g id="edge5_Node000001_Node000006" class="edge">
<title>Node1&#45;&gt;Node6</title>
<g id="a_edge5_Node000001_Node000006"><a xlink:title=" ">
<path fill="none" stroke="orange" stroke-dasharray="5,2" d="M277.74,-72.82C304.2,-60.72 343.98,-42.53 371.37,-30.01"/>
<polygon fill="orange" stroke="orange" points="276.28,-69.64 268.64,-76.98 279.19,-76 276.28,-69.64"/>
</a>
</g>
<text text-anchor="middle" x="353.5" y="-51" font-family="Helvetica,sans-Serif" font-size="10.00" fill="grey"> &lt; void &gt;</text>
</g>
<!-- Node2 -->
<g id="Node000002" class="node">
<title>Node2</title>
<g id="a_Node000002"><a xlink:href="classxronos_1_1sdk_1_1Element.html" target="_top" xlink:title="Base class for all reactor elements.">
<polygon fill="white" stroke="#666666" points="228.5,-152 109.5,-152 109.5,-133 228.5,-133 228.5,-152"/>
<text text-anchor="middle" x="169" y="-140" font-family="Helvetica,sans-Serif" font-size="10.00">xronos::sdk::Element</text>
</a>
</g>
</g>
<!-- Node2&#45;&gt;Node1 -->
<g id="edge1_Node000001_Node000002" class="edge">
<title>Node2&#45;&gt;Node1</title>
<g id="a_edge1_Node000001_Node000002"><a xlink:title=" ">
<path fill="none" stroke="#63b8ff" d="M190.57,-127.12C205.36,-117.26 224.51,-104.49 237.02,-96.15"/>
<polygon fill="#63b8ff" stroke="#63b8ff" points="188.39,-124.36 182.01,-132.82 192.28,-130.19 188.39,-124.36"/>
</a>
</g>
</g>
<!-- Node3 -->
<g id="Node000003" class="node">
<title>Node3</title>
<g id="a_Node000003"><a xlink:href="classxronos_1_1sdk_1_1EventSource.html" target="_top" xlink:title="Base class for reactor elements that can be used as sources or triggers of reactions.">
<polygon fill="white" stroke="#666666" points="415,-152 247,-152 247,-133 415,-133 415,-152"/>
<text text-anchor="middle" x="331" y="-140" font-family="Helvetica,sans-Serif" font-size="10.00">xronos::sdk::EventSource&lt; T &gt;</text>
</a>
</g>
</g>
<!-- Node3&#45;&gt;Node1 -->
<g id="edge2_Node000001_Node000003" class="edge">
<title>Node3&#45;&gt;Node1</title>
<g id="a_edge2_Node000001_Node000003"><a xlink:title=" ">
<path fill="none" stroke="#63b8ff" d="M309.43,-127.12C294.64,-117.26 275.49,-104.49 262.98,-96.15"/>
<polygon fill="#63b8ff" stroke="#63b8ff" points="307.72,-130.19 317.99,-132.82 311.61,-124.36 307.72,-130.19"/>
</a>
</g>
</g>
</g>
</svg>
