<?xml version="1.0" encoding="UTF-8" standalone="no"?>
<!DOCTYPE svg PUBLIC "-//W3C//DTD SVG 1.1//EN"
 "http://www.w3.org/Graphics/SVG/1.1/DTD/svg11.dtd">
<!-- Generated by graphviz version 2.43.0 (0)
 -->
<!-- Title: xronos::sdk::EventSource&lt; void &gt; Pages: 1 -->
<svg width="743pt" height="246pt"
 viewBox="0.00 0.00 743.00 245.50" xmlns="http://www.w3.org/2000/svg" xmlns:xlink="http://www.w3.org/1999/xlink">
<g id="graph0" class="graph" transform="scale(1 1) rotate(0) translate(4 241.5)">
<title>xronos::sdk::EventSource&lt; void &gt;</title>
<!-- Node1 -->
<g id="Node000001" class="node">
<title>Node1</title>
<g id="a_Node000001"><a xlink:title="Base class for reactor elements that can be used as triggers of reactions.">
<polygon fill="#999999" stroke="#666666" points="547,-141.5 407,-141.5 407,-111.5 547,-111.5 547,-141.5"/>
<text text-anchor="start" x="415" y="-129.5" font-family="Helvetica,sans-Serif" font-size="10.00">xronos::sdk::EventSource</text>
<text text-anchor="middle" x="477" y="-118.5" font-family="Helvetica,sans-Serif" font-size="10.00">&lt; void &gt;</text>
</a>
</g>
</g>
<!-- Node4 -->
<g id="Node000004" class="node">
<title>Node4</title>
<g id="a_Node000004"><a xlink:href="classxronos_1_1sdk_1_1PhysicalEvent_3_01void_01_4.html" target="_top" xlink:title="An element for scheduling new events from external contexts.">
<polygon fill="white" stroke="#666666" points="733,-237.5 586,-237.5 586,-207.5 733,-207.5 733,-237.5"/>
<text text-anchor="start" x="594" y="-225.5" font-family="Helvetica,sans-Serif" font-size="10.00">xronos::sdk::PhysicalEvent</text>
<text text-anchor="middle" x="659.5" y="-214.5" font-family="Helvetica,sans-Serif" font-size="10.00">&lt; void &gt;</text>
</a>
</g>
</g>
<!-- Node1&#45;&gt;Node4 -->
<g id="edge5_Node000001_Node000004" class="edge">
<title>Node1&#45;&gt;Node4</title>
<g id="a_edge5_Node000001_Node000004"><a xlink:title=" ">
<path fill="none" stroke="#63b8ff" d="M514.7,-147.23C534.41,-160.7 559.62,-177.6 584,-189.5 598.78,-196.71 616.23,-202.47 630.52,-207.48"/>
<polygon fill="#63b8ff" stroke="#63b8ff" points="516.56,-144.26 506.33,-141.51 512.61,-150.04 516.56,-144.26"/>
</a>
</g>
</g>
<!-- Node1&#45;&gt;Node4 -->
<g id="edge9_Node000001_Node000004" class="edge">
<title>Node1&#45;&gt;Node4</title>
<g id="a_edge9_Node000001_Node000004"><a xlink:title=" ">
<path fill="none" stroke="#63b8ff" d="M497.11,-148.67C517.59,-166.92 551.53,-191.65 584,-207.5 584.61,-207.8 585.23,-208.09 585.84,-208.39"/>
<polygon fill="#63b8ff" stroke="#63b8ff" points="499.41,-146.03 489.71,-141.78 494.65,-151.15 499.41,-146.03"/>
</a>
</g>
</g>
<!-- Node5 -->
<g id="Node000005" class="node">
<title>Node5</title>
<g id="a_Node000005"><a xlink:href="classxronos_1_1sdk_1_1Port_3_01void_01_4.html" target="_top" xlink:title="Base class for ports that do not communicate values.">
<polygon fill="white" stroke="#666666" points="713,-189.5 606,-189.5 606,-159.5 713,-159.5 713,-189.5"/>
<text text-anchor="start" x="614" y="-177.5" font-family="Helvetica,sans-Serif" font-size="10.00">xronos::sdk::Port&lt;</text>
<text text-anchor="middle" x="659.5" y="-166.5" font-family="Helvetica,sans-Serif" font-size="10.00"> void &gt;</text>
</a>
</g>
</g>
<!-- Node1&#45;&gt;Node5 -->
<g id="edge6_Node000001_Node000005" class="edge">
<title>Node1&#45;&gt;Node5</title>
<g id="a_edge6_Node000001_Node000005"><a xlink:title=" ">
<path fill="none" stroke="#63b8ff" d="M556.78,-140.75C579.74,-146.66 603.72,-153.43 622.62,-159.44"/>
<polygon fill="#63b8ff" stroke="#63b8ff" points="557.57,-137.34 547.01,-138.27 555.84,-144.12 557.57,-137.34"/>
</a>
</g>
</g>
<!-- Node1&#45;&gt;Node5 -->
<g id="edge10_Node000001_Node000005" class="edge">
<title>Node1&#45;&gt;Node5</title>
<g id="a_edge10_Node000001_Node000005"><a xlink:title=" ">
<path fill="none" stroke="#63b8ff" d="M523.69,-144.61C548.66,-152.21 579.7,-160.55 605.7,-166.66"/>
<polygon fill="#63b8ff" stroke="#63b8ff" points="524.68,-141.25 514.09,-141.62 522.6,-147.94 524.68,-141.25"/>
</a>
</g>
</g>
<!-- Node6 -->
<g id="Node000006" class="node">
<title>Node6</title>
<g id="a_Node000006"><a xlink:href="classxronos_1_1sdk_1_1ProgrammableTimer_3_01void_01_4.html" target="_top" xlink:title="An element for scheduling new events.">
<polygon fill="white" stroke="#666666" points="735,-141.5 584,-141.5 584,-111.5 735,-111.5 735,-141.5"/>
<text text-anchor="start" x="592" y="-129.5" font-family="Helvetica,sans-Serif" font-size="10.00">xronos::sdk::Programmable</text>
<text text-anchor="middle" x="659.5" y="-118.5" font-family="Helvetica,sans-Serif" font-size="10.00">Timer&lt; void &gt;</text>
</a>
</g>
</g>
<!-- Node1&#45;&gt;Node6 -->
<g id="edge7_Node000001_Node000006" class="edge">
<title>Node1&#45;&gt;Node6</title>
<g id="a_edge7_Node000001_Node000006"><a xlink:title=" ">
<path fill="none" stroke="#63b8ff" d="M557.28,-119.79C566.1,-119.72 575.06,-119.74 583.82,-119.84"/>
<polygon fill="#63b8ff" stroke="#63b8ff" points="556.97,-116.3 547.01,-119.92 557.05,-123.3 556.97,-116.3"/>
</a>
</g>
</g>
<!-- Node1&#45;&gt;Node6 -->
<g id="edge11_Node000001_Node000006" class="edge">
<title>Node1&#45;&gt;Node6</title>
<g id="a_edge11_Node000001_Node000006"><a xlink:title=" ">
<path fill="none" stroke="#63b8ff" d="M557.28,-133.21C566.1,-133.28 575.06,-133.26 583.82,-133.16"/>
<polygon fill="#63b8ff" stroke="#63b8ff" points="557.05,-129.7 547.01,-133.08 556.97,-136.7 557.05,-129.7"/>
</a>
</g>
</g>
<!-- Node7 -->
<g id="Node000007" class="node">
<title>Node7</title>
<g id="a_Node000007"><a xlink:href="classxronos_1_1sdk_1_1PeriodicTimer.html" target="_top" xlink:title="An event source that emits events in regular intervals.">
<polygon fill="white" stroke="#666666" points="732.5,-93 586.5,-93 586.5,-74 732.5,-74 732.5,-93"/>
<text text-anchor="middle" x="659.5" y="-81" font-family="Helvetica,sans-Serif" font-size="10.00">xronos::sdk::PeriodicTimer</text>
</a>
</g>
</g>
<!-- Node1&#45;&gt;Node7 -->
<g id="edge8_Node000001_Node000007" class="edge">
<title>Node1&#45;&gt;Node7</title>
<g id="a_edge8_Node000001_Node000007"><a xlink:title=" ">
<path fill="none" stroke="#63b8ff" d="M550.91,-109.13C573.99,-103.63 598.65,-97.76 618.53,-93.02"/>
<polygon fill="#63b8ff" stroke="#63b8ff" points="550.05,-105.74 541.13,-111.46 551.67,-112.55 550.05,-105.74"/>
</a>
</g>
</g>
<!-- Node8 -->
<g id="Node000008" class="node">
<title>Node8</title>
<g id="a_Node000008"><a xlink:href="classxronos_1_1sdk_1_1Shutdown.html" target="_top" xlink:title="An event that triggers before the program shuts down.">
<polygon fill="white" stroke="#666666" points="723,-56 596,-56 596,-37 723,-37 723,-56"/>
<text text-anchor="middle" x="659.5" y="-44" font-family="Helvetica,sans-Serif" font-size="10.00">xronos::sdk::Shutdown</text>
</a>
</g>
</g>
<!-- Node1&#45;&gt;Node8 -->
<g id="edge12_Node000001_Node000008" class="edge">
<title>Node1&#45;&gt;Node8</title>
<g id="a_edge12_Node000001_Node000008"><a xlink:title=" ">
<path fill="none" stroke="#63b8ff" d="M507.97,-105.77C528.56,-92.35 556.96,-75.4 584,-64.5 592.15,-61.22 601.04,-58.43 609.76,-56.1"/>
<polygon fill="#63b8ff" stroke="#63b8ff" points="505.77,-103.03 499.37,-111.47 509.64,-108.86 505.77,-103.03"/>
</a>
</g>
</g>
<!-- Node9 -->
<g id="Node000009" class="node">
<title>Node9</title>
<g id="a_Node000009"><a xlink:href="classxronos_1_1sdk_1_1Startup.html" target="_top" xlink:title="An event that triggers when the program starts executing.">
<polygon fill="white" stroke="#666666" points="716.5,-19 602.5,-19 602.5,0 716.5,0 716.5,-19"/>
<text text-anchor="middle" x="659.5" y="-7" font-family="Helvetica,sans-Serif" font-size="10.00">xronos::sdk::Startup</text>
</a>
</g>
</g>
<!-- Node1&#45;&gt;Node9 -->
<g id="edge13_Node000001_Node000009" class="edge">
<title>Node1&#45;&gt;Node9</title>
<g id="a_edge13_Node000001_Node000009"><a xlink:title=" ">
<path fill="none" stroke="#63b8ff" d="M496.46,-103.37C515.86,-80.64 548.46,-46.65 584,-27.5 590.33,-24.09 597.3,-21.32 604.36,-19.07"/>
<polygon fill="#63b8ff" stroke="#63b8ff" points="493.66,-101.27 489.93,-111.19 499.03,-105.76 493.66,-101.27"/>
</a>
</g>
</g>
<!-- Node2 -->
<g id="Node000002" class="node">
<title>Node2</title>
<g id="a_Node000002"><a xlink:href="classxronos_1_1sdk_1_1Element.html" target="_top" xlink:title="Base class for all reactor elements.">
<polygon fill="white" stroke="#666666" points="119,-136 0,-136 0,-117 119,-117 119,-136"/>
<text text-anchor="middle" x="59.5" y="-124" font-family="Helvetica,sans-Serif" font-size="10.00">xronos::sdk::Element</text>
</a>
</g>
</g>
<!-- Node2&#45;&gt;Node1 -->
<g id="edge1_Node000001_Node000002" class="edge">
<title>Node2&#45;&gt;Node1</title>
<g id="a_edge1_Node000001_Node000002"><a xlink:title=" ">
<path fill="none" stroke="#63b8ff" d="M129.21,-121.33C206.08,-119.23 329.9,-119.22 406.92,-121.32"/>
<polygon fill="#63b8ff" stroke="#63b8ff" points="129.04,-117.83 119.15,-121.63 129.25,-124.83 129.04,-117.83"/>
</a>
</g>
</g>
<!-- Node2&#45;&gt;Node1 -->
<g id="edge2_Node000001_Node000002" class="edge">
<title>Node2&#45;&gt;Node1</title>
<g id="a_edge2_Node000001_Node000002"><a xlink:title=" ">
<path fill="none" stroke="#63b8ff" d="M129.21,-131.67C206.08,-133.77 329.9,-133.78 406.92,-131.68"/>
<polygon fill="#63b8ff" stroke="#63b8ff" points="129.25,-128.17 119.15,-131.37 129.04,-135.17 129.25,-128.17"/>
</a>
</g>
</g>
<!-- Node3 -->
<g id="Node000003" class="node">
<title>Node3</title>
<g id="a_Node000003"><a xlink:href="classxronos_1_1sdk_1_1EventSource.html" target="_top" xlink:title="Base class for reactor elements that can be used as triggers of reactions.">
<polygon fill="white" stroke="#666666" points="324,-89 156,-89 156,-70 324,-70 324,-89"/>
<text text-anchor="middle" x="240" y="-77" font-family="Helvetica,sans-Serif" font-size="10.00">xronos::sdk::EventSource&lt; T &gt;</text>
</a>
</g>
</g>
<!-- Node2&#45;&gt;Node3 -->
<g id="edge4_Node000003_Node000002" class="edge">
<title>Node2&#45;&gt;Node3</title>
<g id="a_edge4_Node000003_Node000002"><a xlink:title=" ">
<path fill="none" stroke="#63b8ff" d="M100.8,-113.88C112.44,-110.37 125.19,-106.66 137,-103.5 156.15,-98.37 177.49,-93.26 195.68,-89.08"/>
<polygon fill="#63b8ff" stroke="#63b8ff" points="99.45,-110.63 90.9,-116.89 101.49,-117.33 99.45,-110.63"/>
</a>
</g>
</g>
<!-- Node3&#45;&gt;Node1 -->
<g id="edge3_Node000001_Node000003" class="edge">
<title>Node3&#45;&gt;Node1</title>
<g id="a_edge3_Node000001_Node000003"><a xlink:title=" ">
<path fill="none" stroke="orange" stroke-dasharray="5,2" d="M334.32,-83.63C352.6,-85.58 371.52,-88.41 389,-92.5 407.79,-96.9 427.91,-104.56 444.06,-111.49"/>
<polygon fill="orange" stroke="orange" points="334.54,-80.13 324.25,-82.63 333.85,-87.1 334.54,-80.13"/>
</a>
</g>
<text text-anchor="middle" x="365.5" y="-95.5" font-family="Helvetica,sans-Serif" font-size="10.00" fill="grey"> &lt; void &gt;</text>
</g>
</g>
</svg>
