<?xml version="1.0" encoding="UTF-8" standalone="no"?>
<!DOCTYPE svg PUBLIC "-//W3C//DTD SVG 1.1//EN"
 "http://www.w3.org/Graphics/SVG/1.1/DTD/svg11.dtd">
<!-- Generated by graphviz version 2.43.0 (0)
 -->
<!-- Title: xronos::sdk::EventSource&lt; T &gt; Pages: 1 -->
<svg width="834pt" height="354pt"
 viewBox="0.00 0.00 834.00 354.00" xmlns="http://www.w3.org/2000/svg" xmlns:xlink="http://www.w3.org/1999/xlink">
<g id="graph0" class="graph" transform="scale(1 1) rotate(0) translate(4 350)">
<title>xronos::sdk::EventSource&lt; T &gt;</title>
<!-- Node1 -->
<g id="Node000001" class="node">
<title>Node1</title>
<g id="a_Node000001"><a xlink:title="Base class for reactor elements that can be used as triggers of reactions.">
<polygon fill="#999999" stroke="#666666" points="324,-182 156,-182 156,-163 324,-163 324,-182"/>
<text text-anchor="middle" x="240" y="-170" font-family="Helvetica,sans-Serif" font-size="10.00">xronos::sdk::EventSource&lt; T &gt;</text>
</a>
</g>
</g>
<!-- Node3 -->
<g id="Node000003" class="node">
<title>Node3</title>
<g id="a_Node000003"><a xlink:href="classxronos_1_1sdk_1_1PhysicalEvent.html" target="_top" xlink:title="An element for scheduling new events from external contexts.">
<polygon fill="white" stroke="#666666" points="583,-223 407,-223 407,-204 583,-204 583,-223"/>
<text text-anchor="middle" x="495" y="-211" font-family="Helvetica,sans-Serif" font-size="10.00">xronos::sdk::PhysicalEvent&lt; T &gt;</text>
</a>
</g>
</g>
<!-- Node1&#45;&gt;Node3 -->
<g id="edge2_Node000001_Node000003" class="edge">
<title>Node1&#45;&gt;Node3</title>
<g id="a_edge2_Node000001_Node000003"><a xlink:title=" ">
<path fill="none" stroke="#63b8ff" d="M309.71,-183.63C348.98,-190 397.71,-197.9 435.2,-203.97"/>
<polygon fill="#63b8ff" stroke="#63b8ff" points="310.11,-180.15 299.68,-182.01 308.99,-187.06 310.11,-180.15"/>
</a>
</g>
</g>
<!-- Node5 -->
<g id="Node000005" class="node">
<title>Node5</title>
<g id="a_Node000005"><a xlink:href="classxronos_1_1sdk_1_1Port.html" target="_top" xlink:title="Base class for inputs and outputs of reactors.">
<polygon fill="white" stroke="#666666" points="558.5,-296 431.5,-296 431.5,-277 558.5,-277 558.5,-296"/>
<text text-anchor="middle" x="495" y="-284" font-family="Helvetica,sans-Serif" font-size="10.00">xronos::sdk::Port&lt; T &gt;</text>
</a>
</g>
</g>
<!-- Node1&#45;&gt;Node5 -->
<g id="edge4_Node000001_Node000005" class="edge">
<title>Node1&#45;&gt;Node5</title>
<g id="a_edge4_Node000001_Node000005"><a xlink:title=" ">
<path fill="none" stroke="#63b8ff" d="M271.5,-186.24C323.47,-209.66 427.9,-256.72 472.75,-276.92"/>
<polygon fill="#63b8ff" stroke="#63b8ff" points="272.69,-182.94 262.14,-182.02 269.81,-189.32 272.69,-182.94"/>
</a>
</g>
</g>
<!-- Node9 -->
<g id="Node000009" class="node">
<title>Node9</title>
<g id="a_Node000009"><a xlink:href="classxronos_1_1sdk_1_1ProgrammableTimer.html" target="_top" xlink:title="A reactor element for scheduling new events.">
<polygon fill="white" stroke="#666666" points="570.5,-65.5 419.5,-65.5 419.5,-35.5 570.5,-35.5 570.5,-65.5"/>
<text text-anchor="start" x="427.5" y="-53.5" font-family="Helvetica,sans-Serif" font-size="10.00">xronos::sdk::Programmable</text>
<text text-anchor="middle" x="495" y="-42.5" font-family="Helvetica,sans-Serif" font-size="10.00">Timer&lt; T &gt;</text>
</a>
</g>
</g>
<!-- Node1&#45;&gt;Node9 -->
<g id="edge8_Node000001_Node000009" class="edge">
<title>Node1&#45;&gt;Node9</title>
<g id="a_edge8_Node000001_Node000009"><a xlink:title=" ">
<path fill="none" stroke="#63b8ff" d="M270.06,-158.49C318,-135.37 413.26,-89.43 462.66,-65.61"/>
<polygon fill="#63b8ff" stroke="#63b8ff" points="268.34,-155.43 260.85,-162.93 271.38,-161.74 268.34,-155.43"/>
</a>
</g>
</g>
<!-- Node11 -->
<g id="Node000011" class="node">
<title>Node11</title>
<g id="a_Node000011"><a xlink:href="classxronos_1_1sdk_1_1EventSource_3_01void_01_4.html" target="_top" xlink:title="Base class for reactor elements that can be used as triggers of reactions.">
<polygon fill="white" stroke="#666666" points="565,-148.5 425,-148.5 425,-118.5 565,-118.5 565,-148.5"/>
<text text-anchor="start" x="433" y="-136.5" font-family="Helvetica,sans-Serif" font-size="10.00">xronos::sdk::EventSource</text>
<text text-anchor="middle" x="495" y="-125.5" font-family="Helvetica,sans-Serif" font-size="10.00">&lt; void &gt;</text>
</a>
</g>
</g>
<!-- Node1&#45;&gt;Node11 -->
<g id="edge10_Node000001_Node000011" class="edge">
<title>Node1&#45;&gt;Node11</title>
<g id="a_edge10_Node000001_Node000011"><a xlink:title=" ">
<path fill="none" stroke="orange" stroke-dasharray="5,2" d="M313.06,-161.39C348.11,-155.99 390.05,-149.52 424.73,-144.18"/>
<polygon fill="orange" stroke="orange" points="312.24,-157.98 302.89,-162.96 313.31,-164.9 312.24,-157.98"/>
</a>
</g>
<text text-anchor="middle" x="365.5" y="-159.5" font-family="Helvetica,sans-Serif" font-size="10.00" fill="grey"> &lt; void &gt;</text>
</g>
<!-- Node2 -->
<g id="Node000002" class="node">
<title>Node2</title>
<g id="a_Node000002"><a xlink:href="classxronos_1_1sdk_1_1Element.html" target="_top" xlink:title="Base class for all reactor elements.">
<polygon fill="white" stroke="#666666" points="119,-182 0,-182 0,-163 119,-163 119,-182"/>
<text text-anchor="middle" x="59.5" y="-170" font-family="Helvetica,sans-Serif" font-size="10.00">xronos::sdk::Element</text>
</a>
</g>
</g>
<!-- Node2&#45;&gt;Node1 -->
<g id="edge1_Node000001_Node000002" class="edge">
<title>Node2&#45;&gt;Node1</title>
<g id="a_edge1_Node000001_Node000002"><a xlink:title=" ">
<path fill="none" stroke="#63b8ff" d="M129.46,-172.5C138.12,-172.5 147.05,-172.5 155.89,-172.5"/>
<polygon fill="#63b8ff" stroke="#63b8ff" points="129.44,-169 119.44,-172.5 129.44,-176 129.44,-169"/>
</a>
</g>
</g>
<!-- Node4 -->
<g id="Node000004" class="node">
<title>Node4</title>
<g id="a_Node000004"><a xlink:href="classxronos_1_1sdk_1_1PhysicalEvent_3_01void_01_4.html" target="_top" xlink:title="An element for scheduling new events from external contexts.">
<polygon fill="white" stroke="#666666" points="819.5,-190.5 672.5,-190.5 672.5,-160.5 819.5,-160.5 819.5,-190.5"/>
<text text-anchor="start" x="680.5" y="-178.5" font-family="Helvetica,sans-Serif" font-size="10.00">xronos::sdk::PhysicalEvent</text>
<text text-anchor="middle" x="746" y="-167.5" font-family="Helvetica,sans-Serif" font-size="10.00">&lt; void &gt;</text>
</a>
</g>
</g>
<!-- Node3&#45;&gt;Node4 -->
<g id="edge3_Node000003_Node000004" class="edge">
<title>Node3&#45;&gt;Node4</title>
<g id="a_edge3_Node000003_Node000004"><a xlink:title=" ">
<path fill="none" stroke="orange" stroke-dasharray="5,2" d="M568.45,-202.44C601.11,-197.46 639.61,-191.58 672.3,-186.59"/>
<polygon fill="orange" stroke="orange" points="567.87,-198.99 558.51,-203.96 568.93,-205.91 567.87,-198.99"/>
</a>
</g>
<text text-anchor="middle" x="624.5" y="-200.5" font-family="Helvetica,sans-Serif" font-size="10.00" fill="grey"> &lt; void &gt;</text>
</g>
<!-- Node6 -->
<g id="Node000006" class="node">
<title>Node6</title>
<g id="a_Node000006"><a xlink:href="classxronos_1_1sdk_1_1InputPort.html" target="_top" xlink:title="A port that receives values from other reactors.">
<polygon fill="white" stroke="#666666" points="822,-309 670,-309 670,-290 822,-290 822,-309"/>
<text text-anchor="middle" x="746" y="-297" font-family="Helvetica,sans-Serif" font-size="10.00">xronos::sdk::InputPort&lt; T &gt;</text>
</a>
</g>
</g>
<!-- Node5&#45;&gt;Node6 -->
<g id="edge5_Node000005_Node000006" class="edge">
<title>Node5&#45;&gt;Node6</title>
<g id="a_edge5_Node000005_Node000006"><a xlink:title=" ">
<path fill="none" stroke="#63b8ff" d="M568.61,-290.29C600.34,-291.95 637.54,-293.89 669.58,-295.56"/>
<polygon fill="#63b8ff" stroke="#63b8ff" points="568.68,-286.79 558.51,-289.76 568.32,-293.78 568.68,-286.79"/>
</a>
</g>
</g>
<!-- Node7 -->
<g id="Node000007" class="node">
<title>Node7</title>
<g id="a_Node000007"><a xlink:href="classxronos_1_1sdk_1_1OutputPort.html" target="_top" xlink:title="A port that sends values to other reactors.">
<polygon fill="white" stroke="#666666" points="826,-346 666,-346 666,-327 826,-327 826,-346"/>
<text text-anchor="middle" x="746" y="-334" font-family="Helvetica,sans-Serif" font-size="10.00">xronos::sdk::OutputPort&lt; T &gt;</text>
</a>
</g>
</g>
<!-- Node5&#45;&gt;Node7 -->
<g id="edge6_Node000005_Node000007" class="edge">
<title>Node5&#45;&gt;Node7</title>
<g id="a_edge6_Node000005_Node000007"><a xlink:title=" ">
<path fill="none" stroke="#63b8ff" d="M553.31,-298.01C596.94,-306.77 656.28,-318.69 697.33,-326.93"/>
<polygon fill="#63b8ff" stroke="#63b8ff" points="553.91,-294.56 543.42,-296.02 552.54,-301.42 553.91,-294.56"/>
</a>
</g>
</g>
<!-- Node8 -->
<g id="Node000008" class="node">
<title>Node8</title>
<g id="a_Node000008"><a xlink:href="classxronos_1_1sdk_1_1Port_3_01void_01_4.html" target="_top" xlink:title="Base class for ports that do not communicate values.">
<polygon fill="white" stroke="#666666" points="799.5,-238.5 692.5,-238.5 692.5,-208.5 799.5,-208.5 799.5,-238.5"/>
<text text-anchor="start" x="700.5" y="-226.5" font-family="Helvetica,sans-Serif" font-size="10.00">xronos::sdk::Port&lt;</text>
<text text-anchor="middle" x="746" y="-215.5" font-family="Helvetica,sans-Serif" font-size="10.00"> void &gt;</text>
</a>
</g>
</g>
<!-- Node5&#45;&gt;Node8 -->
<g id="edge7_Node000005_Node000008" class="edge">
<title>Node5&#45;&gt;Node8</title>
<g id="a_edge7_Node000005_Node000008"><a xlink:title=" ">
<path fill="none" stroke="orange" stroke-dasharray="5,2" d="M543.66,-274.44C586.23,-263.67 648.48,-247.92 692.48,-236.79"/>
<polygon fill="orange" stroke="orange" points="542.65,-271.09 533.82,-276.93 544.37,-277.87 542.65,-271.09"/>
</a>
</g>
<text text-anchor="middle" x="624.5" y="-261.5" font-family="Helvetica,sans-Serif" font-size="10.00" fill="grey"> &lt; void &gt;</text>
</g>
<!-- Node10 -->
<g id="Node000010" class="node">
<title>Node10</title>
<g id="a_Node000010"><a xlink:href="classxronos_1_1sdk_1_1ProgrammableTimer_3_01void_01_4.html" target="_top" xlink:title="An element for scheduling new events.">
<polygon fill="white" stroke="#666666" points="821.5,-67.5 670.5,-67.5 670.5,-37.5 821.5,-37.5 821.5,-67.5"/>
<text text-anchor="start" x="678.5" y="-55.5" font-family="Helvetica,sans-Serif" font-size="10.00">xronos::sdk::Programmable</text>
<text text-anchor="middle" x="746" y="-44.5" font-family="Helvetica,sans-Serif" font-size="10.00">Timer&lt; void &gt;</text>
</a>
</g>
</g>
<!-- Node9&#45;&gt;Node10 -->
<g id="edge9_Node000009_Node000010" class="edge">
<title>Node9&#45;&gt;Node10</title>
<g id="a_edge9_Node000009_Node000010"><a xlink:title=" ">
<path fill="none" stroke="orange" stroke-dasharray="5,2" d="M557.87,-33.32C585.42,-27.69 618.29,-23.73 648,-27.5 664.04,-29.53 681.23,-33.39 696.62,-37.48"/>
<polygon fill="orange" stroke="orange" points="557.01,-29.92 547.97,-35.46 558.49,-36.77 557.01,-29.92"/>
</a>
</g>
<text text-anchor="middle" x="624.5" y="-30.5" font-family="Helvetica,sans-Serif" font-size="10.00" fill="grey"> &lt; void &gt;</text>
</g>
<!-- Node11&#45;&gt;Node4 -->
<g id="edge11_Node000011_Node000004" class="edge">
<title>Node11&#45;&gt;Node4</title>
<g id="a_edge11_Node000011_Node000004"><a xlink:title=" ">
<path fill="none" stroke="#63b8ff" d="M575.35,-140.55C612.58,-146.12 656.04,-153.65 689.65,-160.44"/>
<polygon fill="#63b8ff" stroke="#63b8ff" points="575.43,-137.02 565.03,-139.03 574.41,-143.95 575.43,-137.02"/>
</a>
</g>
</g>
<!-- Node11&#45;&gt;Node4 -->
<g id="edge15_Node000011_Node000004" class="edge">
<title>Node11&#45;&gt;Node4</title>
<g id="a_edge15_Node000011_Node000004"><a xlink:title=" ">
<path fill="none" stroke="#63b8ff" d="M561.13,-150.5C595.28,-157.18 637.21,-164.31 672.4,-169.45"/>
<polygon fill="#63b8ff" stroke="#63b8ff" points="561.75,-147.06 551.26,-148.54 560.39,-153.92 561.75,-147.06"/>
</a>
</g>
</g>
<!-- Node11&#45;&gt;Node8 -->
<g id="edge12_Node000011_Node000008" class="edge">
<title>Node11&#45;&gt;Node8</title>
<g id="a_edge12_Node000011_Node000008"><a xlink:title=" ">
<path fill="none" stroke="#63b8ff" d="M561.39,-152.12C592.81,-163.78 631.13,-178.52 666,-190.5 683.76,-196.6 704.03,-202.75 719.59,-208.49"/>
<polygon fill="#63b8ff" stroke="#63b8ff" points="562.46,-148.78 551.87,-148.6 560.04,-155.35 562.46,-148.78"/>
</a>
</g>
</g>
<!-- Node11&#45;&gt;Node8 -->
<g id="edge16_Node000011_Node000008" class="edge">
<title>Node11&#45;&gt;Node8</title>
<g id="a_edge16_Node000011_Node000008"><a xlink:title=" ">
<path fill="none" stroke="#63b8ff" d="M527.45,-153.23C561.37,-169.45 617.08,-191.69 666,-208.5 674.4,-211.39 683.37,-214.29 692.14,-216.89"/>
<polygon fill="#63b8ff" stroke="#63b8ff" points="528.59,-149.89 518.07,-148.61 525.5,-156.17 528.59,-149.89"/>
</a>
</g>
</g>
<!-- Node11&#45;&gt;Node10 -->
<g id="edge13_Node000011_Node000010" class="edge">
<title>Node11&#45;&gt;Node10</title>
<g id="a_edge13_Node000011_Node000010"><a xlink:title=" ">
<path fill="none" stroke="#63b8ff" d="M531.12,-114.51C565.43,-100.65 619.18,-82.46 666,-67.5 667.37,-67.06 668.74,-66.63 670.13,-66.19"/>
<polygon fill="#63b8ff" stroke="#63b8ff" points="529.45,-111.41 521.56,-118.48 532.14,-117.88 529.45,-111.41"/>
</a>
</g>
</g>
<!-- Node11&#45;&gt;Node10 -->
<g id="edge17_Node000011_Node000010" class="edge">
<title>Node11&#45;&gt;Node10</title>
<g id="a_edge17_Node000011_Node000010"><a xlink:title=" ">
<path fill="none" stroke="#63b8ff" d="M573.73,-115.35C602.64,-106.17 635.76,-95.16 666,-85.5 684.16,-79.7 704.77,-73.45 720.39,-67.52"/>
<polygon fill="#63b8ff" stroke="#63b8ff" points="572.58,-112.04 564.1,-118.39 574.69,-118.72 572.58,-112.04"/>
</a>
</g>
</g>
<!-- Node12 -->
<g id="Node000012" class="node">
<title>Node12</title>
<g id="a_Node000012"><a xlink:href="classxronos_1_1sdk_1_1PeriodicTimer.html" target="_top" xlink:title="An event source that emits events in regular intervals.">
<polygon fill="white" stroke="#666666" points="819,-105 673,-105 673,-86 819,-86 819,-105"/>
<text text-anchor="middle" x="746" y="-93" font-family="Helvetica,sans-Serif" font-size="10.00">xronos::sdk::PeriodicTimer</text>
</a>
</g>
</g>
<!-- Node11&#45;&gt;Node12 -->
<g id="edge14_Node000011_Node000012" class="edge">
<title>Node11&#45;&gt;Node12</title>
<g id="a_edge14_Node000011_Node000012"><a xlink:title=" ">
<path fill="none" stroke="#63b8ff" d="M575.15,-121.42C609.89,-116.12 650.08,-109.99 682.65,-105.02"/>
<polygon fill="#63b8ff" stroke="#63b8ff" points="574.39,-118 565.03,-122.97 575.44,-124.92 574.39,-118"/>
</a>
</g>
</g>
<!-- Node13 -->
<g id="Node000013" class="node">
<title>Node13</title>
<g id="a_Node000013"><a xlink:href="classxronos_1_1sdk_1_1Shutdown.html" target="_top" xlink:title="An event that triggers before the program shuts down.">
<polygon fill="white" stroke="#666666" points="809.5,-19 682.5,-19 682.5,0 809.5,0 809.5,-19"/>
<text text-anchor="middle" x="746" y="-7" font-family="Helvetica,sans-Serif" font-size="10.00">xronos::sdk::Shutdown</text>
</a>
</g>
</g>
<!-- Node11&#45;&gt;Node13 -->
<g id="edge18_Node000011_Node000013" class="edge">
<title>Node11&#45;&gt;Node13</title>
<g id="a_edge18_Node000011_Node000013"><a xlink:title=" ">
<path fill="none" stroke="#63b8ff" d="M526.79,-112.84C567.6,-85.75 637.73,-40.27 666,-28.5 675.12,-24.7 685.15,-21.56 694.93,-19"/>
<polygon fill="#63b8ff" stroke="#63b8ff" points="524.7,-110.03 518.31,-118.48 528.58,-115.86 524.7,-110.03"/>
</a>
</g>
</g>
<!-- Node14 -->
<g id="Node000014" class="node">
<title>Node14</title>
<g id="a_Node000014"><a xlink:href="classxronos_1_1sdk_1_1Startup.html" target="_top" xlink:title="An event that triggers when the program starts executing.">
<polygon fill="white" stroke="#666666" points="803,-142 689,-142 689,-123 803,-123 803,-142"/>
<text text-anchor="middle" x="746" y="-130" font-family="Helvetica,sans-Serif" font-size="10.00">xronos::sdk::Startup</text>
</a>
</g>
</g>
<!-- Node11&#45;&gt;Node14 -->
<g id="edge19_Node000011_Node000014" class="edge">
<title>Node11&#45;&gt;Node14</title>
<g id="a_edge19_Node000011_Node000014"><a xlink:title=" ">
<path fill="none" stroke="#63b8ff" d="M575.27,-133.18C612.22,-133.03 655.32,-132.86 688.84,-132.73"/>
<polygon fill="#63b8ff" stroke="#63b8ff" points="575.02,-129.68 565.03,-133.22 575.04,-136.68 575.02,-129.68"/>
</a>
</g>
</g>
</g>
</svg>
