<?xml version="1.0" encoding="UTF-8" standalone="no"?>
<!DOCTYPE svg PUBLIC "-//W3C//DTD SVG 1.1//EN"
 "http://www.w3.org/Graphics/SVG/1.1/DTD/svg11.dtd">
<!-- Generated by graphviz version 2.43.0 (0)
 -->
<!-- Title: xronos::sdk::ProgrammableTimer&lt; void &gt; Pages: 1 -->
<svg width="644pt" height="133pt"
 viewBox="0.00 0.00 644.00 132.50" xmlns="http://www.w3.org/2000/svg" xmlns:xlink="http://www.w3.org/1999/xlink">
<g id="graph0" class="graph" transform="scale(1 1) rotate(0) translate(4 128.5)">
<title>xronos::sdk::ProgrammableTimer&lt; void &gt;</title>
<!-- Node1 -->
<g id="Node000001" class="node">
<title>Node1</title>
<g id="a_Node000001"><a xlink:title="An element for scheduling new events.">
<polygon fill="#999999" stroke="#666666" points="636,-78 485,-78 485,-48 636,-48 636,-78"/>
<text text-anchor="start" x="493" y="-66" font-family="Helvetica,sans-Serif" font-size="10.00">xronos::sdk::Programmable</text>
<text text-anchor="middle" x="560.5" y="-55" font-family="Helvetica,sans-Serif" font-size="10.00">Timer&lt; void &gt;</text>
</a>
</g>
</g>
<!-- Node2 -->
<g id="Node000002" class="node">
<title>Node2</title>
<g id="a_Node000002"><a xlink:href="classxronos_1_1sdk_1_1Element.html" target="_top" xlink:title="Base class for all reactor elements.">
<polygon fill="white" stroke="#666666" points="143.5,-124.5 24.5,-124.5 24.5,-105.5 143.5,-105.5 143.5,-124.5"/>
<text text-anchor="middle" x="84" y="-112.5" font-family="Helvetica,sans-Serif" font-size="10.00">xronos::sdk::Element</text>
</a>
</g>
</g>
<!-- Node2&#45;&gt;Node1 -->
<g id="edge1_Node000001_Node000002" class="edge">
<title>Node2&#45;&gt;Node1</title>
<g id="a_edge1_Node000001_Node000002"><a xlink:title=" ">
<path fill="none" stroke="#63b8ff" d="M141.74,-104.27C205.23,-96.99 311.13,-88.3 402,-78 430.98,-74.72 438.16,-73.33 467,-69 472.79,-68.13 478.78,-67.21 484.81,-66.29"/>
<polygon fill="#63b8ff" stroke="#63b8ff" points="141.06,-100.83 131.54,-105.48 141.88,-107.78 141.06,-100.83"/>
</a>
</g>
</g>
<!-- Node2&#45;&gt;Node1 -->
<g id="edge4_Node000001_Node000002" class="edge">
<title>Node2&#45;&gt;Node1</title>
<g id="a_edge4_Node000001_Node000002"><a xlink:title=" ">
<path fill="none" stroke="#63b8ff" d="M153.52,-116.91C217.8,-113.94 316.54,-105.68 402,-96 430.98,-92.72 438.16,-91.33 467,-87 484.21,-84.41 503.2,-81.37 519.46,-78.04"/>
<polygon fill="#63b8ff" stroke="#63b8ff" points="153.35,-113.41 143.51,-117.34 153.65,-120.41 153.35,-113.41"/>
</a>
</g>
</g>
<!-- Node5 -->
<g id="Node000005" class="node">
<title>Node5</title>
<g id="a_Node000005"><a xlink:href="classxronos_1_1sdk_1_1ProgrammableTimer.html" target="_top" xlink:title="A reactor element for scheduling new events.">
<polygon fill="white" stroke="#666666" points="402,-78 251,-78 251,-48 402,-48 402,-78"/>
<text text-anchor="start" x="259" y="-66" font-family="Helvetica,sans-Serif" font-size="10.00">xronos::sdk::Programmable</text>
<text text-anchor="middle" x="326.5" y="-55" font-family="Helvetica,sans-Serif" font-size="10.00">Timer&lt; T &gt;</text>
</a>
</g>
</g>
<!-- Node2&#45;&gt;Node5 -->
<g id="edge7_Node000005_Node000002" class="edge">
<title>Node2&#45;&gt;Node5</title>
<g id="a_edge7_Node000005_Node000002"><a xlink:title=" ">
<path fill="none" stroke="#63b8ff" d="M139,-103.33C173.47,-95.87 218.52,-86.13 255.7,-78.09"/>
<polygon fill="#63b8ff" stroke="#63b8ff" points="138.15,-99.93 129.11,-105.46 139.63,-106.77 138.15,-99.93"/>
</a>
</g>
</g>
<!-- Node3 -->
<g id="Node000003" class="node">
<title>Node3</title>
<g id="a_Node000003"><a xlink:href="classxronos_1_1sdk_1_1EventSource_3_01void_01_4.html" target="_top" xlink:title="Base class for reactor elements that can be used as sources or triggers of reactions.">
<polygon fill="white" stroke="#666666" points="396.5,-30 256.5,-30 256.5,0 396.5,0 396.5,-30"/>
<text text-anchor="start" x="264.5" y="-18" font-family="Helvetica,sans-Serif" font-size="10.00">xronos::sdk::EventSource</text>
<text text-anchor="middle" x="326.5" y="-7" font-family="Helvetica,sans-Serif" font-size="10.00">&lt; void &gt;</text>
</a>
</g>
</g>
<!-- Node3&#45;&gt;Node1 -->
<g id="edge2_Node000001_Node000003" class="edge">
<title>Node3&#45;&gt;Node1</title>
<g id="a_edge2_Node000001_Node000003"><a xlink:title=" ">
<path fill="none" stroke="#63b8ff" d="M406.66,-24.94C442.18,-31.67 482.84,-40.39 513.29,-47.92"/>
<polygon fill="#63b8ff" stroke="#63b8ff" points="407.27,-21.49 396.79,-23.1 405.98,-28.37 407.27,-21.49"/>
</a>
</g>
</g>
<!-- Node3&#45;&gt;Node1 -->
<g id="edge5_Node000001_Node000003" class="edge">
<title>Node3&#45;&gt;Node1</title>
<g id="a_edge5_Node000001_Node000003"><a xlink:title=" ">
<path fill="none" stroke="#63b8ff" d="M383.6,-32.48C413.96,-39.74 451.87,-47.74 484.71,-53.88"/>
<polygon fill="#63b8ff" stroke="#63b8ff" points="384.16,-29.02 373.61,-30.06 382.5,-35.82 384.16,-29.02"/>
</a>
</g>
</g>
<!-- Node4 -->
<g id="Node000004" class="node">
<title>Node4</title>
<g id="a_Node000004"><a xlink:href="classxronos_1_1sdk_1_1EventSource.html" target="_top" xlink:title="Base class for reactor elements that can be used as sources or triggers of reactions.">
<polygon fill="white" stroke="#666666" points="168,-24.5 0,-24.5 0,-5.5 168,-5.5 168,-24.5"/>
<text text-anchor="middle" x="84" y="-12.5" font-family="Helvetica,sans-Serif" font-size="10.00">xronos::sdk::EventSource&lt; T &gt;</text>
</a>
</g>
</g>
<!-- Node4&#45;&gt;Node3 -->
<g id="edge3_Node000003_Node000004" class="edge">
<title>Node4&#45;&gt;Node3</title>
<g id="a_edge3_Node000003_Node000004"><a xlink:title=" ">
<path fill="none" stroke="orange" stroke-dasharray="5,2" d="M178.34,-15C204.31,-15 232.05,-15 256.36,-15"/>
<polygon fill="orange" stroke="orange" points="178.1,-11.5 168.1,-15 178.1,-18.5 178.1,-11.5"/>
</a>
</g>
<text text-anchor="middle" x="209.5" y="-18" font-family="Helvetica,sans-Serif" font-size="10.00" fill="grey"> &lt; void &gt;</text>
</g>
<!-- Node5&#45;&gt;Node1 -->
<g id="edge6_Node000001_Node000005" class="edge">
<title>Node5&#45;&gt;Node1</title>
<g id="a_edge6_Node000001_Node000005"><a xlink:title=" ">
<path fill="none" stroke="orange" stroke-dasharray="5,2" d="M412.26,-63C436.07,-63 461.79,-63 484.96,-63"/>
<polygon fill="orange" stroke="orange" points="412.18,-59.5 402.18,-63 412.18,-66.5 412.18,-59.5"/>
</a>
</g>
<text text-anchor="middle" x="443.5" y="-66" font-family="Helvetica,sans-Serif" font-size="10.00" fill="grey"> &lt; void &gt;</text>
</g>
<!-- Node6 -->
<g id="Node000006" class="node">
<title>Node6</title>
<g id="a_Node000006"><a xlink:href="classxronos_1_1sdk_1_1EventSource.html" target="_top" xlink:title="Base class for reactor elements that can be used as sources or triggers of reactions.">
<polygon fill="white" stroke="#666666" points="168,-65.5 0,-65.5 0,-46.5 168,-46.5 168,-65.5"/>
<text text-anchor="middle" x="84" y="-53.5" font-family="Helvetica,sans-Serif" font-size="10.00">xronos::sdk::EventSource&lt; T &gt;</text>
</a>
</g>
</g>
<!-- Node6&#45;&gt;Node5 -->
<g id="edge8_Node000005_Node000006" class="edge">
<title>Node6&#45;&gt;Node5</title>
<g id="a_edge8_Node000005_Node000006"><a xlink:title=" ">
<path fill="none" stroke="#63b8ff" d="M178.3,-58.72C202.34,-59.42 227.89,-60.16 250.85,-60.83"/>
<polygon fill="#63b8ff" stroke="#63b8ff" points="178.2,-55.21 168.1,-58.42 178,-62.21 178.2,-55.21"/>
</a>
</g>
</g>
</g>
</svg>
