<?xml version="1.0" encoding="UTF-8" standalone="no"?>
<!DOCTYPE svg PUBLIC "-//W3C//DTD SVG 1.1//EN"
 "http://www.w3.org/Graphics/SVG/1.1/DTD/svg11.dtd">
<!-- Generated by graphviz version 2.43.0 (0)
 -->
<!-- Title: xronos::sdk::ProgrammableTimer&lt; T &gt; Pages: 1 -->
<svg width="314pt" height="171pt"
 viewBox="0.00 0.00 313.50 171.00" xmlns="http://www.w3.org/2000/svg" xmlns:xlink="http://www.w3.org/1999/xlink">
<g id="graph0" class="graph" transform="scale(1 1) rotate(0) translate(4 167)">
<title>xronos::sdk::ProgrammableTimer&lt; T &gt;</title>
<!-- Node1 -->
<g id="Node000001" class="node">
<title>Node1</title>
<g id="a_Node000001"><a xlink:title="A reactor element for scheduling new events.">
<polygon fill="#999999" stroke="#666666" points="216,-107 65,-107 65,-77 216,-77 216,-107"/>
<text text-anchor="start" x="73" y="-95" font-family="Helvetica,sans-Serif" font-size="10.00">xronos::sdk::Programmable</text>
<text text-anchor="middle" x="140.5" y="-84" font-family="Helvetica,sans-Serif" font-size="10.00">Timer&lt; T &gt;</text>
</a>
</g>
</g>
<!-- Node4 -->
<g id="Node000004" class="node">
<title>Node4</title>
<g id="a_Node000004"><a xlink:href="classxronos_1_1sdk_1_1ProgrammableTimer_3_01void_01_4.html" target="_top" xlink:title="An element for scheduling new events.">
<polygon fill="white" stroke="#666666" points="216,-30 65,-30 65,0 216,0 216,-30"/>
<text text-anchor="start" x="73" y="-18" font-family="Helvetica,sans-Serif" font-size="10.00">xronos::sdk::Programmable</text>
<text text-anchor="middle" x="140.5" y="-7" font-family="Helvetica,sans-Serif" font-size="10.00">Timer&lt; void &gt;</text>
</a>
</g>
</g>
<!-- Node1&#45;&gt;Node4 -->
<g id="edge3_Node000001_Node000004" class="edge">
<title>Node1&#45;&gt;Node4</title>
<g id="a_edge3_Node000001_Node000004"><a xlink:title=" ">
<path fill="none" stroke="orange" stroke-dasharray="5,2" d="M140.5,-66.54C140.5,-54.45 140.5,-40.29 140.5,-30.04"/>
<polygon fill="orange" stroke="orange" points="137,-66.89 140.5,-76.89 144,-66.89 137,-66.89"/>
</a>
</g>
<text text-anchor="middle" x="164" y="-51" font-family="Helvetica,sans-Serif" font-size="10.00" fill="grey"> &lt; void &gt;</text>
</g>
<!-- Node2 -->
<g id="Node000002" class="node">
<title>Node2</title>
<g id="a_Node000002"><a xlink:href="classxronos_1_1sdk_1_1Element.html" target="_top" xlink:title="Base class for all reactor elements.">
<polygon fill="white" stroke="#666666" points="119,-163 0,-163 0,-144 119,-144 119,-163"/>
<text text-anchor="middle" x="59.5" y="-151" font-family="Helvetica,sans-Serif" font-size="10.00">xronos::sdk::Element</text>
</a>
</g>
</g>
<!-- Node2&#45;&gt;Node1 -->
<g id="edge1_Node000001_Node000002" class="edge">
<title>Node2&#45;&gt;Node1</title>
<g id="a_edge1_Node000001_Node000002"><a xlink:title=" ">
<path fill="none" stroke="#63b8ff" d="M79.28,-137.97C92.11,-128.55 108.73,-116.34 121.41,-107.02"/>
<polygon fill="#63b8ff" stroke="#63b8ff" points="77.09,-135.23 71.11,-143.98 81.24,-140.88 77.09,-135.23"/>
</a>
</g>
</g>
<!-- Node3 -->
<g id="Node000003" class="node">
<title>Node3</title>
<g id="a_Node000003"><a xlink:href="classxronos_1_1sdk_1_1EventSource.html" target="_top" xlink:title="Base class for reactor elements that can be used as sources or triggers of reactions.">
<polygon fill="white" stroke="#666666" points="305.5,-163 137.5,-163 137.5,-144 305.5,-144 305.5,-163"/>
<text text-anchor="middle" x="221.5" y="-151" font-family="Helvetica,sans-Serif" font-size="10.00">xronos::sdk::EventSource&lt; T &gt;</text>
</a>
</g>
</g>
<!-- Node3&#45;&gt;Node1 -->
<g id="edge2_Node000001_Node000003" class="edge">
<title>Node3&#45;&gt;Node1</title>
<g id="a_edge2_Node000001_Node000003"><a xlink:title=" ">
<path fill="none" stroke="#63b8ff" d="M201.72,-137.97C188.89,-128.55 172.27,-116.34 159.59,-107.02"/>
<polygon fill="#63b8ff" stroke="#63b8ff" points="199.76,-140.88 209.89,-143.98 203.91,-135.23 199.76,-140.88"/>
</a>
</g>
</g>
</g>
</svg>
