<?xml version="1.0" encoding="UTF-8" standalone="no"?>
<!DOCTYPE svg PUBLIC "-//W3C//DTD SVG 1.1//EN"
 "http://www.w3.org/Graphics/SVG/1.1/DTD/svg11.dtd">
<!-- Generated by graphviz version 2.43.0 (0)
 -->
<!-- Title: xronos::sdk::EventSource&lt; void &gt; Pages: 1 -->
<svg width="587pt" height="246pt"
 viewBox="0.00 0.00 587.00 245.50" xmlns="http://www.w3.org/2000/svg" xmlns:xlink="http://www.w3.org/1999/xlink">
<g id="graph0" class="graph" transform="scale(1 1) rotate(0) translate(4 241.5)">
<title>xronos::sdk::EventSource&lt; void &gt;</title>
<!-- Node1 -->
<g id="Node000001" class="node">
<title>Node1</title>
<g id="a_Node000001"><a xlink:title="Base class for reactor elements that can be used as triggers of reactions.">
<polygon fill="#999999" stroke="#666666" points="391,-141.5 251,-141.5 251,-111.5 391,-111.5 391,-141.5"/>
<text text-anchor="start" x="259" y="-129.5" font-family="Helvetica,sans-Serif" font-size="10.00">xronos::sdk::EventSource</text>
<text text-anchor="middle" x="321" y="-118.5" font-family="Helvetica,sans-Serif" font-size="10.00">&lt; void &gt;</text>
</a>
</g>
</g>
<!-- Node3 -->
<g id="Node000003" class="node">
<title>Node3</title>
<g id="a_Node000003"><a xlink:href="classxronos_1_1sdk_1_1PhysicalEvent_3_01void_01_4.html" target="_top" xlink:title="An element for scheduling new events from external contexts.">
<polygon fill="white" stroke="#666666" points="577,-237.5 430,-237.5 430,-207.5 577,-207.5 577,-237.5"/>
<text text-anchor="start" x="438" y="-225.5" font-family="Helvetica,sans-Serif" font-size="10.00">xronos::sdk::PhysicalEvent</text>
<text text-anchor="middle" x="503.5" y="-214.5" font-family="Helvetica,sans-Serif" font-size="10.00">&lt; void &gt;</text>
</a>
</g>
</g>
<!-- Node1&#45;&gt;Node3 -->
<g id="edge2_Node000001_Node000003" class="edge">
<title>Node1&#45;&gt;Node3</title>
<g id="a_edge2_Node000001_Node000003"><a xlink:title=" ">
<path fill="none" stroke="#63b8ff" d="M358.7,-147.23C378.41,-160.7 403.62,-177.6 428,-189.5 442.78,-196.71 460.23,-202.47 474.52,-207.48"/>
<polygon fill="#63b8ff" stroke="#63b8ff" points="360.56,-144.26 350.33,-141.51 356.61,-150.04 360.56,-144.26"/>
</a>
</g>
</g>
<!-- Node1&#45;&gt;Node3 -->
<g id="edge6_Node000001_Node000003" class="edge">
<title>Node1&#45;&gt;Node3</title>
<g id="a_edge6_Node000001_Node000003"><a xlink:title=" ">
<path fill="none" stroke="#63b8ff" d="M341.11,-148.67C361.59,-166.92 395.53,-191.65 428,-207.5 428.61,-207.8 429.23,-208.09 429.84,-208.39"/>
<polygon fill="#63b8ff" stroke="#63b8ff" points="343.41,-146.03 333.71,-141.78 338.65,-151.15 343.41,-146.03"/>
</a>
</g>
</g>
<!-- Node4 -->
<g id="Node000004" class="node">
<title>Node4</title>
<g id="a_Node000004"><a xlink:href="classxronos_1_1sdk_1_1Port_3_01void_01_4.html" target="_top" xlink:title="Base class for ports that do not communicate values.">
<polygon fill="white" stroke="#666666" points="557,-189.5 450,-189.5 450,-159.5 557,-159.5 557,-189.5"/>
<text text-anchor="start" x="458" y="-177.5" font-family="Helvetica,sans-Serif" font-size="10.00">xronos::sdk::Port&lt;</text>
<text text-anchor="middle" x="503.5" y="-166.5" font-family="Helvetica,sans-Serif" font-size="10.00"> void &gt;</text>
</a>
</g>
</g>
<!-- Node1&#45;&gt;Node4 -->
<g id="edge3_Node000001_Node000004" class="edge">
<title>Node1&#45;&gt;Node4</title>
<g id="a_edge3_Node000001_Node000004"><a xlink:title=" ">
<path fill="none" stroke="#63b8ff" d="M400.78,-140.75C423.74,-146.66 447.72,-153.43 466.62,-159.44"/>
<polygon fill="#63b8ff" stroke="#63b8ff" points="401.57,-137.34 391.01,-138.27 399.84,-144.12 401.57,-137.34"/>
</a>
</g>
</g>
<!-- Node1&#45;&gt;Node4 -->
<g id="edge7_Node000001_Node000004" class="edge">
<title>Node1&#45;&gt;Node4</title>
<g id="a_edge7_Node000001_Node000004"><a xlink:title=" ">
<path fill="none" stroke="#63b8ff" d="M367.69,-144.61C392.66,-152.21 423.7,-160.55 449.7,-166.66"/>
<polygon fill="#63b8ff" stroke="#63b8ff" points="368.68,-141.25 358.09,-141.62 366.6,-147.94 368.68,-141.25"/>
</a>
</g>
</g>
<!-- Node5 -->
<g id="Node000005" class="node">
<title>Node5</title>
<g id="a_Node000005"><a xlink:href="classxronos_1_1sdk_1_1ProgrammableTimer_3_01void_01_4.html" target="_top" xlink:title="An element for scheduling new events.">
<polygon fill="white" stroke="#666666" points="579,-141.5 428,-141.5 428,-111.5 579,-111.5 579,-141.5"/>
<text text-anchor="start" x="436" y="-129.5" font-family="Helvetica,sans-Serif" font-size="10.00">xronos::sdk::Programmable</text>
<text text-anchor="middle" x="503.5" y="-118.5" font-family="Helvetica,sans-Serif" font-size="10.00">Timer&lt; void &gt;</text>
</a>
</g>
</g>
<!-- Node1&#45;&gt;Node5 -->
<g id="edge4_Node000001_Node000005" class="edge">
<title>Node1&#45;&gt;Node5</title>
<g id="a_edge4_Node000001_Node000005"><a xlink:title=" ">
<path fill="none" stroke="#63b8ff" d="M401.28,-119.79C410.1,-119.72 419.06,-119.74 427.82,-119.84"/>
<polygon fill="#63b8ff" stroke="#63b8ff" points="400.97,-116.3 391.01,-119.92 401.05,-123.3 400.97,-116.3"/>
</a>
</g>
</g>
<!-- Node1&#45;&gt;Node5 -->
<g id="edge8_Node000001_Node000005" class="edge">
<title>Node1&#45;&gt;Node5</title>
<g id="a_edge8_Node000001_Node000005"><a xlink:title=" ">
<path fill="none" stroke="#63b8ff" d="M401.28,-133.21C410.1,-133.28 419.06,-133.26 427.82,-133.16"/>
<polygon fill="#63b8ff" stroke="#63b8ff" points="401.05,-129.7 391.01,-133.08 400.97,-136.7 401.05,-129.7"/>
</a>
</g>
</g>
<!-- Node6 -->
<g id="Node000006" class="node">
<title>Node6</title>
<g id="a_Node000006"><a xlink:href="classxronos_1_1sdk_1_1PeriodicTimer.html" target="_top" xlink:title="A trigger that emits events in regular intervals.">
<polygon fill="white" stroke="#666666" points="576.5,-93 430.5,-93 430.5,-74 576.5,-74 576.5,-93"/>
<text text-anchor="middle" x="503.5" y="-81" font-family="Helvetica,sans-Serif" font-size="10.00">xronos::sdk::PeriodicTimer</text>
</a>
</g>
</g>
<!-- Node1&#45;&gt;Node6 -->
<g id="edge5_Node000001_Node000006" class="edge">
<title>Node1&#45;&gt;Node6</title>
<g id="a_edge5_Node000001_Node000006"><a xlink:title=" ">
<path fill="none" stroke="#63b8ff" d="M394.91,-109.13C417.99,-103.63 442.65,-97.76 462.53,-93.02"/>
<polygon fill="#63b8ff" stroke="#63b8ff" points="394.05,-105.74 385.13,-111.46 395.67,-112.55 394.05,-105.74"/>
</a>
</g>
</g>
<!-- Node7 -->
<g id="Node000007" class="node">
<title>Node7</title>
<g id="a_Node000007"><a xlink:href="classxronos_1_1sdk_1_1Shutdown.html" target="_top" xlink:title="An event that triggers before the program shuts down.">
<polygon fill="white" stroke="#666666" points="567,-56 440,-56 440,-37 567,-37 567,-56"/>
<text text-anchor="middle" x="503.5" y="-44" font-family="Helvetica,sans-Serif" font-size="10.00">xronos::sdk::Shutdown</text>
</a>
</g>
</g>
<!-- Node1&#45;&gt;Node7 -->
<g id="edge9_Node000001_Node000007" class="edge">
<title>Node1&#45;&gt;Node7</title>
<g id="a_edge9_Node000001_Node000007"><a xlink:title=" ">
<path fill="none" stroke="#63b8ff" d="M351.97,-105.77C372.56,-92.35 400.96,-75.4 428,-64.5 436.15,-61.22 445.04,-58.43 453.76,-56.1"/>
<polygon fill="#63b8ff" stroke="#63b8ff" points="349.77,-103.03 343.37,-111.47 353.64,-108.86 349.77,-103.03"/>
</a>
</g>
</g>
<!-- Node8 -->
<g id="Node000008" class="node">
<title>Node8</title>
<g id="a_Node000008"><a xlink:href="classxronos_1_1sdk_1_1Startup.html" target="_top" xlink:title="An event that triggers when the program starts executing.">
<polygon fill="white" stroke="#666666" points="560.5,-19 446.5,-19 446.5,0 560.5,0 560.5,-19"/>
<text text-anchor="middle" x="503.5" y="-7" font-family="Helvetica,sans-Serif" font-size="10.00">xronos::sdk::Startup</text>
</a>
</g>
</g>
<!-- Node1&#45;&gt;Node8 -->
<g id="edge10_Node000001_Node000008" class="edge">
<title>Node1&#45;&gt;Node8</title>
<g id="a_edge10_Node000001_Node000008"><a xlink:title=" ">
<path fill="none" stroke="#63b8ff" d="M340.46,-103.37C359.86,-80.64 392.46,-46.65 428,-27.5 434.33,-24.09 441.3,-21.32 448.36,-19.07"/>
<polygon fill="#63b8ff" stroke="#63b8ff" points="337.66,-101.27 333.93,-111.19 343.03,-105.76 337.66,-101.27"/>
</a>
</g>
</g>
<!-- Node2 -->
<g id="Node000002" class="node">
<title>Node2</title>
<g id="a_Node000002"><a xlink:href="classxronos_1_1sdk_1_1EventSource.html" target="_top" xlink:title="Base class for reactor elements that can be used as triggers of reactions.">
<polygon fill="white" stroke="#666666" points="168,-136 0,-136 0,-117 168,-117 168,-136"/>
<text text-anchor="middle" x="84" y="-124" font-family="Helvetica,sans-Serif" font-size="10.00">xronos::sdk::EventSource&lt; T &gt;</text>
</a>
</g>
</g>
<!-- Node2&#45;&gt;Node1 -->
<g id="edge1_Node000001_Node000002" class="edge">
<title>Node2&#45;&gt;Node1</title>
<g id="a_edge1_Node000001_Node000002"><a xlink:title=" ">
<path fill="none" stroke="orange" stroke-dasharray="5,2" d="M178.45,-126.5C202.62,-126.5 228.22,-126.5 250.9,-126.5"/>
<polygon fill="orange" stroke="orange" points="178.18,-123 168.18,-126.5 178.18,-130 178.18,-123"/>
</a>
</g>
<text text-anchor="middle" x="209.5" y="-129.5" font-family="Helvetica,sans-Serif" font-size="10.00" fill="grey"> &lt; void &gt;</text>
</g>
</g>
</svg>
