<?xml version="1.0" encoding="UTF-8" standalone="no"?>
<!DOCTYPE svg PUBLIC "-//W3C//DTD SVG 1.1//EN"
 "http://www.w3.org/Graphics/SVG/1.1/DTD/svg11.dtd">
<!-- Generated by graphviz version 2.43.0 (0)
 -->
<!-- Title: xronos::sdk::ProgrammableTimer&lt; void &gt; Pages: 1 -->
<svg width="466pt" height="237pt"
 viewBox="0.00 0.00 465.50 237.00" xmlns="http://www.w3.org/2000/svg" xmlns:xlink="http://www.w3.org/1999/xlink">
<g id="graph0" class="graph" transform="scale(1 1) rotate(0) translate(4 233)">
<title>xronos::sdk::ProgrammableTimer&lt; void &gt;</title>
<!-- Node1 -->
<g id="Node000001" class="node">
<title>Node1</title>
<g id="a_Node000001"><a xlink:title="An element for scheduling new events.">
<polygon fill="#999999" stroke="#666666" points="151,-30 0,-30 0,0 151,0 151,-30"/>
<text text-anchor="start" x="8" y="-18" font-family="Helvetica,sans-Serif" font-size="10.00">xronos::sdk::Programmable</text>
<text text-anchor="middle" x="75.5" y="-7" font-family="Helvetica,sans-Serif" font-size="10.00">Timer&lt; void &gt;</text>
</a>
</g>
</g>
<!-- Node2 -->
<g id="Node000002" class="node">
<title>Node2</title>
<g id="a_Node000002"><a xlink:href="classxronos_1_1sdk_1_1EventSource_3_01void_01_4.html" target="_top" xlink:title="Base class for reactor elements that can be used as triggers of reactions.">
<polygon fill="white" stroke="#666666" points="145.5,-107 5.5,-107 5.5,-77 145.5,-77 145.5,-107"/>
<text text-anchor="start" x="13.5" y="-95" font-family="Helvetica,sans-Serif" font-size="10.00">xronos::sdk::EventSource</text>
<text text-anchor="middle" x="75.5" y="-84" font-family="Helvetica,sans-Serif" font-size="10.00">&lt; void &gt;</text>
</a>
</g>
</g>
<!-- Node2&#45;&gt;Node1 -->
<g id="edge1_Node000001_Node000002" class="edge">
<title>Node2&#45;&gt;Node1</title>
<g id="a_edge1_Node000001_Node000002"><a xlink:title=" ">
<path fill="none" stroke="#63b8ff" d="M69.15,-66.91C68.39,-54.74 68.71,-40.4 70.1,-30.04"/>
<polygon fill="#63b8ff" stroke="#63b8ff" points="65.67,-67.26 70.09,-76.89 72.64,-66.61 65.67,-67.26"/>
</a>
</g>
</g>
<!-- Node2&#45;&gt;Node1 -->
<g id="edge6_Node000001_Node000002" class="edge">
<title>Node2&#45;&gt;Node1</title>
<g id="a_edge6_Node000001_Node000002"><a xlink:title=" ">
<path fill="none" stroke="#63b8ff" d="M81.85,-66.91C82.61,-54.74 82.29,-40.4 80.9,-30.04"/>
<polygon fill="#63b8ff" stroke="#63b8ff" points="78.36,-66.61 80.91,-76.89 85.33,-67.26 78.36,-66.61"/>
</a>
</g>
</g>
<!-- Node3 -->
<g id="Node000003" class="node">
<title>Node3</title>
<g id="a_Node000003"><a xlink:href="classxronos_1_1sdk_1_1Element.html" target="_top" xlink:title="Base class for all reactor elements.">
<polygon fill="white" stroke="#666666" points="143,-229 24,-229 24,-210 143,-210 143,-229"/>
<text text-anchor="middle" x="83.5" y="-217" font-family="Helvetica,sans-Serif" font-size="10.00">xronos::sdk::Element</text>
</a>
</g>
</g>
<!-- Node3&#45;&gt;Node2 -->
<g id="edge2_Node000002_Node000003" class="edge">
<title>Node3&#45;&gt;Node2</title>
<g id="a_edge2_Node000002_Node000003"><a xlink:title=" ">
<path fill="none" stroke="#63b8ff" d="M77.33,-199.76C73.2,-174.48 70.53,-130.02 71.93,-107.27"/>
<polygon fill="#63b8ff" stroke="#63b8ff" points="73.95,-200.74 79.32,-209.87 80.82,-199.39 73.95,-200.74"/>
</a>
</g>
</g>
<!-- Node3&#45;&gt;Node2 -->
<g id="edge3_Node000002_Node000003" class="edge">
<title>Node3&#45;&gt;Node2</title>
<g id="a_edge3_Node000002_Node000003"><a xlink:title=" ">
<path fill="none" stroke="#63b8ff" d="M87.28,-199.76C88.19,-174.48 85.19,-130.02 80.89,-107.27"/>
<polygon fill="#63b8ff" stroke="#63b8ff" points="83.78,-199.66 86.58,-209.87 90.77,-200.14 83.78,-199.66"/>
</a>
</g>
</g>
<!-- Node4 -->
<g id="Node000004" class="node">
<title>Node4</title>
<g id="a_Node000004"><a xlink:href="classxronos_1_1sdk_1_1EventSource.html" target="_top" xlink:title="Base class for reactor elements that can be used as triggers of reactions.">
<polygon fill="white" stroke="#666666" points="271.5,-173 103.5,-173 103.5,-154 271.5,-154 271.5,-173"/>
<text text-anchor="middle" x="187.5" y="-161" font-family="Helvetica,sans-Serif" font-size="10.00">xronos::sdk::EventSource&lt; T &gt;</text>
</a>
</g>
</g>
<!-- Node3&#45;&gt;Node4 -->
<g id="edge5_Node000004_Node000003" class="edge">
<title>Node3&#45;&gt;Node4</title>
<g id="a_edge5_Node000004_Node000003"><a xlink:title=" ">
<path fill="none" stroke="#63b8ff" d="M109.33,-205.09C128.56,-195.11 154.24,-181.77 170.83,-173.15"/>
<polygon fill="#63b8ff" stroke="#63b8ff" points="107.47,-202.11 100.21,-209.82 110.7,-208.32 107.47,-202.11"/>
</a>
</g>
</g>
<!-- Node6 -->
<g id="Node000006" class="node">
<title>Node6</title>
<g id="a_Node000006"><a xlink:href="classxronos_1_1sdk_1_1EventSource.html" target="_top" xlink:title="Base class for reactor elements that can be used as triggers of reactions.">
<polygon fill="white" stroke="#666666" points="457.5,-173 289.5,-173 289.5,-154 457.5,-154 457.5,-173"/>
<text text-anchor="middle" x="373.5" y="-161" font-family="Helvetica,sans-Serif" font-size="10.00">xronos::sdk::EventSource&lt; T &gt;</text>
</a>
</g>
</g>
<!-- Node3&#45;&gt;Node6 -->
<g id="edge9_Node000006_Node000003" class="edge">
<title>Node3&#45;&gt;Node6</title>
<g id="a_edge9_Node000006_Node000003"><a xlink:title=" ">
<path fill="none" stroke="#63b8ff" d="M139.35,-208.1C194.15,-197.9 276.73,-182.52 327.76,-173.02"/>
<polygon fill="#63b8ff" stroke="#63b8ff" points="138.64,-204.67 129.45,-209.94 139.92,-211.55 138.64,-204.67"/>
</a>
</g>
</g>
<!-- Node4&#45;&gt;Node2 -->
<g id="edge4_Node000002_Node000004" class="edge">
<title>Node4&#45;&gt;Node2</title>
<g id="a_edge4_Node000002_Node000004"><a xlink:title=" ">
<path fill="none" stroke="orange" stroke-dasharray="5,2" d="M165.27,-148.7C145.87,-136.67 117.84,-119.28 98.28,-107.14"/>
<polygon fill="orange" stroke="orange" points="163.42,-151.68 173.77,-153.98 167.12,-145.73 163.42,-151.68"/>
</a>
</g>
<text text-anchor="middle" x="165" y="-128" font-family="Helvetica,sans-Serif" font-size="10.00" fill="grey"> &lt; void &gt;</text>
</g>
<!-- Node5 -->
<g id="Node000005" class="node">
<title>Node5</title>
<g id="a_Node000005"><a xlink:href="classxronos_1_1sdk_1_1ProgrammableTimer.html" target="_top" xlink:title="A reactor element for scheduling new events.">
<polygon fill="white" stroke="#666666" points="337,-107 186,-107 186,-77 337,-77 337,-107"/>
<text text-anchor="start" x="194" y="-95" font-family="Helvetica,sans-Serif" font-size="10.00">xronos::sdk::Programmable</text>
<text text-anchor="middle" x="261.5" y="-84" font-family="Helvetica,sans-Serif" font-size="10.00">Timer&lt; T &gt;</text>
</a>
</g>
</g>
<!-- Node5&#45;&gt;Node1 -->
<g id="edge7_Node000001_Node000005" class="edge">
<title>Node5&#45;&gt;Node1</title>
<g id="a_edge7_Node000001_Node000005"><a xlink:title=" ">
<path fill="none" stroke="orange" stroke-dasharray="5,2" d="M217.18,-73.13C184.46,-59.93 140.55,-42.23 110.33,-30.04"/>
<polygon fill="orange" stroke="orange" points="215.93,-76.4 226.51,-76.89 218.55,-69.91 215.93,-76.4"/>
</a>
</g>
<text text-anchor="middle" x="203" y="-51" font-family="Helvetica,sans-Serif" font-size="10.00" fill="grey"> &lt; void &gt;</text>
</g>
<!-- Node6&#45;&gt;Node5 -->
<g id="edge8_Node000005_Node000006" class="edge">
<title>Node6&#45;&gt;Node5</title>
<g id="a_edge8_Node000005_Node000006"><a xlink:title=" ">
<path fill="none" stroke="#63b8ff" d="M351.27,-148.7C331.87,-136.67 303.84,-119.28 284.28,-107.14"/>
<polygon fill="#63b8ff" stroke="#63b8ff" points="349.42,-151.68 359.77,-153.98 353.12,-145.73 349.42,-151.68"/>
</a>
</g>
</g>
</g>
</svg>
