<?xml version="1.0" encoding="UTF-8" standalone="no"?>
<!DOCTYPE svg PUBLIC "-//W3C//DTD SVG 1.1//EN"
 "http://www.w3.org/Graphics/SVG/1.1/DTD/svg11.dtd">
<!-- Generated by graphviz version 2.43.0 (0)
 -->
<!-- Title: xronos::sdk::Shutdown Pages: 1 -->
<svg width="283pt" height="216pt"
 viewBox="0.00 0.00 283.00 216.00" xmlns="http://www.w3.org/2000/svg" xmlns:xlink="http://www.w3.org/1999/xlink">
<g id="graph0" class="graph" transform="scale(1 1) rotate(0) translate(4 212)">
<title>xronos::sdk::Shutdown</title>
<!-- Node1 -->
<g id="Node000001" class="node">
<title>Node1</title>
<g id="a_Node000001"><a xlink:title="An event that triggers before the program shuts down.">
<polygon fill="#999999" stroke="#666666" points="133.5,-19 6.5,-19 6.5,0 133.5,0 133.5,-19"/>
<text text-anchor="middle" x="70" y="-7" font-family="Helvetica,sans-Serif" font-size="10.00">xronos::sdk::Shutdown</text>
</a>
</g>
</g>
<!-- Node2 -->
<g id="Node000002" class="node">
<title>Node2</title>
<g id="a_Node000002"><a xlink:href="classxronos_1_1sdk_1_1EventSource_3_01void_01_4.html" target="_top" xlink:title="Base class for reactor elements that can be used as triggers of reactions.">
<polygon fill="white" stroke="#666666" points="140,-86 0,-86 0,-56 140,-56 140,-86"/>
<text text-anchor="start" x="8" y="-74" font-family="Helvetica,sans-Serif" font-size="10.00">xronos::sdk::EventSource</text>
<text text-anchor="middle" x="70" y="-63" font-family="Helvetica,sans-Serif" font-size="10.00">&lt; void &gt;</text>
</a>
</g>
</g>
<!-- Node2&#45;&gt;Node1 -->
<g id="edge1_Node000001_Node000002" class="edge">
<title>Node2&#45;&gt;Node1</title>
<g id="a_edge1_Node000001_Node000002"><a xlink:title=" ">
<path fill="none" stroke="#63b8ff" d="M70,-45.79C70,-36.36 70,-26.15 70,-19.16"/>
<polygon fill="#63b8ff" stroke="#63b8ff" points="66.5,-45.9 70,-55.9 73.5,-45.9 66.5,-45.9"/>
</a>
</g>
</g>
<!-- Node3 -->
<g id="Node000003" class="node">
<title>Node3</title>
<g id="a_Node000003"><a xlink:href="classxronos_1_1sdk_1_1Element.html" target="_top" xlink:title="Base class for all reactor elements.">
<polygon fill="white" stroke="#666666" points="129.5,-208 10.5,-208 10.5,-189 129.5,-189 129.5,-208"/>
<text text-anchor="middle" x="70" y="-196" font-family="Helvetica,sans-Serif" font-size="10.00">xronos::sdk::Element</text>
</a>
</g>
</g>
<!-- Node3&#45;&gt;Node2 -->
<g id="edge2_Node000002_Node000003" class="edge">
<title>Node3&#45;&gt;Node2</title>
<g id="a_edge2_Node000002_Node000003"><a xlink:title=" ">
<path fill="none" stroke="#63b8ff" d="M65.02,-178.76C62.5,-153.48 62.67,-109.02 65.52,-86.27"/>
<polygon fill="#63b8ff" stroke="#63b8ff" points="61.58,-179.42 66.37,-188.87 68.52,-178.5 61.58,-179.42"/>
</a>
</g>
</g>
<!-- Node3&#45;&gt;Node2 -->
<g id="edge3_Node000002_Node000003" class="edge">
<title>Node3&#45;&gt;Node2</title>
<g id="a_edge3_Node000002_Node000003"><a xlink:title=" ">
<path fill="none" stroke="#63b8ff" d="M74.98,-178.76C77.5,-153.48 77.33,-109.02 74.48,-86.27"/>
<polygon fill="#63b8ff" stroke="#63b8ff" points="71.48,-178.5 73.63,-188.87 78.42,-179.42 71.48,-178.5"/>
</a>
</g>
</g>
<!-- Node4 -->
<g id="Node000004" class="node">
<title>Node4</title>
<g id="a_Node000004"><a xlink:href="classxronos_1_1sdk_1_1EventSource.html" target="_top" xlink:title="Base class for reactor elements that can be used as triggers of reactions.">
<polygon fill="white" stroke="#666666" points="275,-152 107,-152 107,-133 275,-133 275,-152"/>
<text text-anchor="middle" x="191" y="-140" font-family="Helvetica,sans-Serif" font-size="10.00">xronos::sdk::EventSource&lt; T &gt;</text>
</a>
</g>
</g>
<!-- Node3&#45;&gt;Node4 -->
<g id="edge5_Node000004_Node000003" class="edge">
<title>Node3&#45;&gt;Node4</title>
<g id="a_edge5_Node000004_Node000003"><a xlink:title=" ">
<path fill="none" stroke="#63b8ff" d="M98.31,-184.87C120.97,-174.76 152.13,-160.85 171.92,-152.02"/>
<polygon fill="#63b8ff" stroke="#63b8ff" points="96.88,-181.67 89.17,-188.94 99.73,-188.06 96.88,-181.67"/>
</a>
</g>
</g>
<!-- Node4&#45;&gt;Node2 -->
<g id="edge4_Node000002_Node000004" class="edge">
<title>Node4&#45;&gt;Node2</title>
<g id="a_edge4_Node000002_Node000004"><a xlink:title=" ">
<path fill="none" stroke="orange" stroke-dasharray="5,2" d="M167.26,-127.87C146.3,-115.82 115.84,-98.33 94.61,-86.14"/>
<polygon fill="orange" stroke="orange" points="165.75,-131.03 176.16,-132.98 169.23,-124.96 165.75,-131.03"/>
</a>
</g>
<text text-anchor="middle" x="164.5" y="-107" font-family="Helvetica,sans-Serif" font-size="10.00" fill="grey"> &lt; void &gt;</text>
</g>
</g>
</svg>
