<?xml version="1.0" encoding="UTF-8" standalone="no"?>
<!DOCTYPE svg PUBLIC "-//W3C//DTD SVG 1.1//EN"
 "http://www.w3.org/Graphics/SVG/1.1/DTD/svg11.dtd">
<!-- Generated by graphviz version 2.43.0 (0)
 -->
<!-- Title: xronos::sdk::PhysicalEvent&lt; T &gt; Pages: 1 -->
<svg width="184pt" height="216pt"
 viewBox="0.00 0.00 184.00 216.00" xmlns="http://www.w3.org/2000/svg" xmlns:xlink="http://www.w3.org/1999/xlink">
<g id="graph0" class="graph" transform="scale(1 1) rotate(0) translate(4 212)">
<title>xronos::sdk::PhysicalEvent&lt; T &gt;</title>
<!-- Node1 -->
<g id="Node000001" class="node">
<title>Node1</title>
<g id="a_Node000001"><a xlink:title="An element for scheduling new events from external contexts.">
<polygon fill="#999999" stroke="#666666" points="176,-96 0,-96 0,-77 176,-77 176,-96"/>
<text text-anchor="middle" x="88" y="-84" font-family="Helvetica,sans-Serif" font-size="10.00">xronos::sdk::PhysicalEvent&lt; T &gt;</text>
</a>
</g>
</g>
<!-- Node4 -->
<g id="Node000004" class="node">
<title>Node4</title>
<g id="a_Node000004"><a xlink:href="classxronos_1_1sdk_1_1PhysicalEvent_3_01void_01_4.html" target="_top" xlink:title="An element for scheduling new events from external contexts.">
<polygon fill="white" stroke="#666666" points="161.5,-30 14.5,-30 14.5,0 161.5,0 161.5,-30"/>
<text text-anchor="start" x="22.5" y="-18" font-family="Helvetica,sans-Serif" font-size="10.00">xronos::sdk::PhysicalEvent</text>
<text text-anchor="middle" x="88" y="-7" font-family="Helvetica,sans-Serif" font-size="10.00">&lt; void &gt;</text>
</a>
</g>
</g>
<!-- Node1&#45;&gt;Node4 -->
<g id="edge3_Node000001_Node000004" class="edge">
<title>Node1&#45;&gt;Node4</title>
<g id="a_edge3_Node000001_Node000004"><a xlink:title=" ">
<path fill="none" stroke="orange" stroke-dasharray="5,2" d="M88,-66.71C88,-55.19 88,-40.68 88,-30.14"/>
<polygon fill="orange" stroke="orange" points="84.5,-66.98 88,-76.98 91.5,-66.98 84.5,-66.98"/>
</a>
</g>
<text text-anchor="middle" x="111.5" y="-51" font-family="Helvetica,sans-Serif" font-size="10.00" fill="grey"> &lt; void &gt;</text>
</g>
<!-- Node2 -->
<g id="Node000002" class="node">
<title>Node2</title>
<g id="a_Node000002"><a xlink:href="classxronos_1_1sdk_1_1EventSource.html" target="_top" xlink:title="Base class for reactor elements that can be used as triggers of reactions.">
<polygon fill="white" stroke="#666666" points="172,-152 4,-152 4,-133 172,-133 172,-152"/>
<text text-anchor="middle" x="88" y="-140" font-family="Helvetica,sans-Serif" font-size="10.00">xronos::sdk::EventSource&lt; T &gt;</text>
</a>
</g>
</g>
<!-- Node2&#45;&gt;Node1 -->
<g id="edge1_Node000001_Node000002" class="edge">
<title>Node2&#45;&gt;Node1</title>
<g id="a_edge1_Node000001_Node000002"><a xlink:title=" ">
<path fill="none" stroke="#63b8ff" d="M88,-122.3C88,-113.41 88,-103.28 88,-96.25"/>
<polygon fill="#63b8ff" stroke="#63b8ff" points="84.5,-122.58 88,-132.58 91.5,-122.58 84.5,-122.58"/>
</a>
</g>
</g>
<!-- Node3 -->
<g id="Node000003" class="node">
<title>Node3</title>
<g id="a_Node000003"><a xlink:href="classxronos_1_1sdk_1_1Element.html" target="_top" xlink:title="Base class for all reactor elements.">
<polygon fill="white" stroke="#666666" points="147.5,-208 28.5,-208 28.5,-189 147.5,-189 147.5,-208"/>
<text text-anchor="middle" x="88" y="-196" font-family="Helvetica,sans-Serif" font-size="10.00">xronos::sdk::Element</text>
</a>
</g>
</g>
<!-- Node3&#45;&gt;Node2 -->
<g id="edge2_Node000002_Node000003" class="edge">
<title>Node3&#45;&gt;Node2</title>
<g id="a_edge2_Node000002_Node000003"><a xlink:title=" ">
<path fill="none" stroke="#63b8ff" d="M88,-178.3C88,-169.41 88,-159.28 88,-152.25"/>
<polygon fill="#63b8ff" stroke="#63b8ff" points="84.5,-178.58 88,-188.58 91.5,-178.58 84.5,-178.58"/>
</a>
</g>
</g>
</g>
</svg>
