<?xml version="1.0" encoding="UTF-8" standalone="no"?>
<!DOCTYPE svg PUBLIC "-//W3C//DTD SVG 1.1//EN"
 "http://www.w3.org/Graphics/SVG/1.1/DTD/svg11.dtd">
<!-- Generated by graphviz version 2.43.0 (0)
 -->
<!-- Title: xronos::sdk::PeriodicTimer Pages: 1 -->
<svg width="301pt" height="160pt"
 viewBox="0.00 0.00 301.00 160.00" xmlns="http://www.w3.org/2000/svg" xmlns:xlink="http://www.w3.org/1999/xlink">
<g id="graph0" class="graph" transform="scale(1 1) rotate(0) translate(4 156)">
<title>xronos::sdk::PeriodicTimer</title>
<!-- Node1 -->
<g id="Node000001" class="node">
<title>Node1</title>
<g id="a_Node000001"><a xlink:title="A trigger that emits events in regular intervals.">
<polygon fill="#999999" stroke="#666666" points="146,-19 0,-19 0,0 146,0 146,-19"/>
<text text-anchor="middle" x="73" y="-7" font-family="Helvetica,sans-Serif" font-size="10.00">xronos::sdk::PeriodicTimer</text>
</a>
</g>
</g>
<!-- Node2 -->
<g id="Node000002" class="node">
<title>Node2</title>
<g id="a_Node000002"><a xlink:href="classxronos_1_1sdk_1_1Element.html" target="_top" xlink:title="Base class for all reactor elements.">
<polygon fill="white" stroke="#666666" points="120.5,-80.5 1.5,-80.5 1.5,-61.5 120.5,-61.5 120.5,-80.5"/>
<text text-anchor="middle" x="61" y="-68.5" font-family="Helvetica,sans-Serif" font-size="10.00">xronos::sdk::Element</text>
</a>
</g>
</g>
<!-- Node2&#45;&gt;Node1 -->
<g id="edge1_Node000001_Node000002" class="edge">
<title>Node2&#45;&gt;Node1</title>
<g id="a_edge1_Node000001_Node000002"><a xlink:title=" ">
<path fill="none" stroke="#63b8ff" d="M64.7,-51.66C66.89,-40.77 69.57,-27.49 71.28,-19.01"/>
<polygon fill="#63b8ff" stroke="#63b8ff" points="61.27,-50.98 62.72,-61.48 68.13,-52.36 61.27,-50.98"/>
</a>
</g>
</g>
<!-- Node3 -->
<g id="Node000003" class="node">
<title>Node3</title>
<g id="a_Node000003"><a xlink:href="classxronos_1_1sdk_1_1EventSource_3_01void_01_4.html" target="_top" xlink:title="Base class for reactor elements that can be used as triggers of reactions.">
<polygon fill="white" stroke="#666666" points="279,-86 139,-86 139,-56 279,-56 279,-86"/>
<text text-anchor="start" x="147" y="-74" font-family="Helvetica,sans-Serif" font-size="10.00">xronos::sdk::EventSource</text>
<text text-anchor="middle" x="209" y="-63" font-family="Helvetica,sans-Serif" font-size="10.00">&lt; void &gt;</text>
</a>
</g>
</g>
<!-- Node3&#45;&gt;Node1 -->
<g id="edge2_Node000001_Node000003" class="edge">
<title>Node3&#45;&gt;Node1</title>
<g id="a_edge2_Node000001_Node000003"><a xlink:title=" ">
<path fill="none" stroke="#63b8ff" d="M167.56,-51.87C142.74,-41.01 112.31,-27.7 92.79,-19.16"/>
<polygon fill="#63b8ff" stroke="#63b8ff" points="166.21,-55.1 176.77,-55.9 169.01,-48.68 166.21,-55.1"/>
</a>
</g>
</g>
<!-- Node4 -->
<g id="Node000004" class="node">
<title>Node4</title>
<g id="a_Node000004"><a xlink:href="classxronos_1_1sdk_1_1EventSource.html" target="_top" xlink:title="Base class for reactor elements that can be used as triggers of reactions.">
<polygon fill="white" stroke="#666666" points="293,-152 125,-152 125,-133 293,-133 293,-152"/>
<text text-anchor="middle" x="209" y="-140" font-family="Helvetica,sans-Serif" font-size="10.00">xronos::sdk::EventSource&lt; T &gt;</text>
</a>
</g>
</g>
<!-- Node4&#45;&gt;Node3 -->
<g id="edge3_Node000003_Node000004" class="edge">
<title>Node4&#45;&gt;Node3</title>
<g id="a_edge3_Node000003_Node000004"><a xlink:title=" ">
<path fill="none" stroke="orange" stroke-dasharray="5,2" d="M209,-122.71C209,-111.19 209,-96.68 209,-86.14"/>
<polygon fill="orange" stroke="orange" points="205.5,-122.98 209,-132.98 212.5,-122.98 205.5,-122.98"/>
</a>
</g>
<text text-anchor="middle" x="232.5" y="-107" font-family="Helvetica,sans-Serif" font-size="10.00" fill="grey"> &lt; void &gt;</text>
</g>
</g>
</svg>
