<?xml version="1.0" encoding="UTF-8" standalone="no"?>
<!DOCTYPE svg PUBLIC "-//W3C//DTD SVG 1.1//EN"
 "http://www.w3.org/Graphics/SVG/1.1/DTD/svg11.dtd">
<!-- Generated by graphviz version 2.43.0 (0)
 -->
<!-- Title: Graphical Class Hierarchy Pages: 1 -->
<svg width="739pt" height="405pt"
 viewBox="0.00 0.00 739.00 405.00" xmlns="http://www.w3.org/2000/svg" xmlns:xlink="http://www.w3.org/1999/xlink">
<g id="graph0" class="graph" transform="scale(1 1) rotate(0) translate(4 401)">
<title>Graphical Class Hierarchy</title>
<!-- Node0 -->
<g id="Node000000" class="node">
<title>Node0</title>
<g id="a_Node000000"><a xlink:href="classxronos_1_1sdk_1_1Element.html" target="_top" xlink:title="Base class for all reactor elements.">
<polygon fill="white" stroke="#666666" points="119,-104.5 0,-104.5 0,-85.5 119,-85.5 119,-104.5"/>
<text text-anchor="middle" x="59.5" y="-92.5" font-family="Helvetica,sans-Serif" font-size="10.00">xronos::sdk::Element</text>
</a>
</g>
</g>
<!-- Node1 -->
<g id="Node000001" class="node">
<title>Node1</title>
<g id="a_Node000001"><a xlink:href="classxronos_1_1sdk_1_1EventSource_3_01void_01_4.html" target="_top" xlink:title="Base class for reactor elements that can be used as triggers of reactions.">
<polygon fill="white" stroke="#666666" points="309,-258 169,-258 169,-228 309,-228 309,-258"/>
<text text-anchor="start" x="177" y="-246" font-family="Helvetica,sans-Serif" font-size="10.00">xronos::sdk::EventSource</text>
<text text-anchor="middle" x="239" y="-235" font-family="Helvetica,sans-Serif" font-size="10.00">&lt; void &gt;</text>
</a>
</g>
</g>
<!-- Node0&#45;&gt;Node1 -->
<g id="edge3_Node000000_Node000001" class="edge">
<title>Node0&#45;&gt;Node1</title>
<g id="a_edge3_Node000000_Node000001"><a xlink:title=" ">
<path fill="none" stroke="#63b8ff" d="M80.12,-111.36C114.79,-140.27 186.38,-199.96 219.92,-227.93"/>
<polygon fill="#63b8ff" stroke="#63b8ff" points="82.07,-108.43 72.15,-104.71 77.59,-113.8 82.07,-108.43"/>
</a>
</g>
</g>
<!-- Node8 -->
<g id="Node000008" class="node">
<title>Node8</title>
<g id="a_Node000008"><a xlink:href="classxronos_1_1sdk_1_1BaseReaction.html" target="_top" xlink:title="Non&#45;template base class for reactions.">
<polygon fill="white" stroke="#666666" points="312,-141.5 166,-141.5 166,-122.5 312,-122.5 312,-141.5"/>
<text text-anchor="middle" x="239" y="-129.5" font-family="Helvetica,sans-Serif" font-size="10.00">xronos::sdk::BaseReaction</text>
</a>
</g>
</g>
<!-- Node0&#45;&gt;Node8 -->
<g id="edge10_Node000000_Node000008" class="edge">
<title>Node0&#45;&gt;Node8</title>
<g id="a_edge10_Node000000_Node000008"><a xlink:title=" ">
<path fill="none" stroke="#63b8ff" d="M116.07,-106.58C140.53,-111.68 168.91,-117.6 192.14,-122.44"/>
<polygon fill="#63b8ff" stroke="#63b8ff" points="116.71,-103.14 106.21,-104.53 115.29,-110 116.71,-103.14"/>
</a>
</g>
</g>
<!-- Node10 -->
<g id="Node000010" class="node">
<title>Node10</title>
<g id="a_Node000010"><a xlink:href="classxronos_1_1sdk_1_1EventSource.html" target="_top" xlink:title="Base class for reactor elements that can be used as triggers of reactions.">
<polygon fill="white" stroke="#666666" points="323,-104.5 155,-104.5 155,-85.5 323,-85.5 323,-104.5"/>
<text text-anchor="middle" x="239" y="-92.5" font-family="Helvetica,sans-Serif" font-size="10.00">xronos::sdk::EventSource&lt; T &gt;</text>
</a>
</g>
</g>
<!-- Node0&#45;&gt;Node10 -->
<g id="edge12_Node000000_Node000010" class="edge">
<title>Node0&#45;&gt;Node10</title>
<g id="a_edge12_Node000000_Node000010"><a xlink:title=" ">
<path fill="none" stroke="#63b8ff" d="M129.17,-95C137.54,-95 146.17,-95 154.72,-95"/>
<polygon fill="#63b8ff" stroke="#63b8ff" points="129.11,-91.5 119.11,-95 129.11,-98.5 129.11,-91.5"/>
</a>
</g>
</g>
<!-- Node16 -->
<g id="Node000016" class="node">
<title>Node16</title>
<g id="a_Node000016"><a xlink:href="classxronos_1_1sdk_1_1Metric.html" target="_top" xlink:title="Allows recording values to an external data base from reaction handlers.">
<polygon fill="white" stroke="#666666" points="294,-67.5 184,-67.5 184,-48.5 294,-48.5 294,-67.5"/>
<text text-anchor="middle" x="239" y="-55.5" font-family="Helvetica,sans-Serif" font-size="10.00">xronos::sdk::Metric</text>
</a>
</g>
</g>
<!-- Node0&#45;&gt;Node16 -->
<g id="edge18_Node000000_Node000016" class="edge">
<title>Node0&#45;&gt;Node16</title>
<g id="a_edge18_Node000000_Node000016"><a xlink:title=" ">
<path fill="none" stroke="#63b8ff" d="M116.07,-83.42C140.53,-78.32 168.91,-72.4 192.14,-67.56"/>
<polygon fill="#63b8ff" stroke="#63b8ff" points="115.29,-80 106.21,-85.47 116.71,-86.86 115.29,-80"/>
</a>
</g>
</g>
<!-- Node17 -->
<g id="Node000017" class="node">
<title>Node17</title>
<g id="a_Node000017"><a xlink:href="classxronos_1_1sdk_1_1Reactor.html" target="_top" xlink:title="An abstract reactor that can be subclassed to define new reactors.">
<polygon fill="white" stroke="#666666" points="297,-30.5 181,-30.5 181,-11.5 297,-11.5 297,-30.5"/>
<text text-anchor="middle" x="239" y="-18.5" font-family="Helvetica,sans-Serif" font-size="10.00">xronos::sdk::Reactor</text>
</a>
</g>
</g>
<!-- Node0&#45;&gt;Node17 -->
<g id="edge19_Node000000_Node000017" class="edge">
<title>Node0&#45;&gt;Node17</title>
<g id="a_edge19_Node000000_Node000017"><a xlink:title=" ">
<path fill="none" stroke="#63b8ff" d="M81.85,-79.63C100.36,-66.98 128.3,-49.49 155,-39 163.51,-35.66 172.76,-32.88 181.91,-30.59"/>
<polygon fill="#63b8ff" stroke="#63b8ff" points="79.77,-76.81 73.57,-85.39 83.77,-82.55 79.77,-76.81"/>
</a>
</g>
</g>
<!-- Node2 -->
<g id="Node000002" class="node">
<title>Node2</title>
<g id="a_Node000002"><a xlink:href="classxronos_1_1sdk_1_1PhysicalEvent_3_01void_01_4.html" target="_top" xlink:title="An element for scheduling new events from external contexts.">
<polygon fill="white" stroke="#666666" points="520.5,-397 373.5,-397 373.5,-367 520.5,-367 520.5,-397"/>
<text text-anchor="start" x="381.5" y="-385" font-family="Helvetica,sans-Serif" font-size="10.00">xronos::sdk::PhysicalEvent</text>
<text text-anchor="middle" x="447" y="-374" font-family="Helvetica,sans-Serif" font-size="10.00">&lt; void &gt;</text>
</a>
</g>
</g>
<!-- Node1&#45;&gt;Node2 -->
<g id="edge4_Node000001_Node000002" class="edge">
<title>Node1&#45;&gt;Node2</title>
<g id="a_edge4_Node000001_Node000002"><a xlink:title=" ">
<path fill="none" stroke="#63b8ff" d="M257.72,-266.02C279.01,-292.1 317.12,-334.09 359,-358 364.99,-361.42 371.49,-364.37 378.14,-366.92"/>
<polygon fill="#63b8ff" stroke="#63b8ff" points="260.4,-263.77 251.42,-258.15 254.94,-268.14 260.4,-263.77"/>
</a>
</g>
</g>
<!-- Node3 -->
<g id="Node000003" class="node">
<title>Node3</title>
<g id="a_Node000003"><a xlink:href="classxronos_1_1sdk_1_1Port_3_01void_01_4.html" target="_top" xlink:title="Base class for ports that do not communicate values.">
<polygon fill="white" stroke="#666666" points="500.5,-349 393.5,-349 393.5,-319 500.5,-319 500.5,-349"/>
<text text-anchor="start" x="401.5" y="-337" font-family="Helvetica,sans-Serif" font-size="10.00">xronos::sdk::Port&lt;</text>
<text text-anchor="middle" x="447" y="-326" font-family="Helvetica,sans-Serif" font-size="10.00"> void &gt;</text>
</a>
</g>
</g>
<!-- Node1&#45;&gt;Node3 -->
<g id="edge5_Node000001_Node000003" class="edge">
<title>Node1&#45;&gt;Node3</title>
<g id="a_edge5_Node000001_Node000003"><a xlink:title=" ">
<path fill="none" stroke="#63b8ff" d="M271.32,-263.43C294.72,-277.99 327.9,-297.18 359,-310 369.86,-314.48 381.83,-318.39 393.32,-321.69"/>
<polygon fill="#63b8ff" stroke="#63b8ff" points="273.18,-260.47 262.86,-258.1 269.45,-266.39 273.18,-260.47"/>
</a>
</g>
</g>
<!-- Node4 -->
<g id="Node000004" class="node">
<title>Node4</title>
<g id="a_Node000004"><a xlink:href="classxronos_1_1sdk_1_1ProgrammableTimer_3_01void_01_4.html" target="_top" xlink:title="An element for scheduling new events.">
<polygon fill="white" stroke="#666666" points="522.5,-301 371.5,-301 371.5,-271 522.5,-271 522.5,-301"/>
<text text-anchor="start" x="379.5" y="-289" font-family="Helvetica,sans-Serif" font-size="10.00">xronos::sdk::Programmable</text>
<text text-anchor="middle" x="447" y="-278" font-family="Helvetica,sans-Serif" font-size="10.00">Timer&lt; void &gt;</text>
</a>
</g>
</g>
<!-- Node1&#45;&gt;Node4 -->
<g id="edge6_Node000001_Node000004" class="edge">
<title>Node1&#45;&gt;Node4</title>
<g id="a_edge6_Node000001_Node000004"><a xlink:title=" ">
<path fill="none" stroke="#63b8ff" d="M319.06,-259.5C337.08,-263.26 356.13,-267.24 373.84,-270.94"/>
<polygon fill="#63b8ff" stroke="#63b8ff" points="319.67,-256.06 309.17,-257.44 318.24,-262.91 319.67,-256.06"/>
</a>
</g>
</g>
<!-- Node5 -->
<g id="Node000005" class="node">
<title>Node5</title>
<g id="a_Node000005"><a xlink:href="classxronos_1_1sdk_1_1PeriodicTimer.html" target="_top" xlink:title="An event source that emits events in regular intervals.">
<polygon fill="white" stroke="#666666" points="520,-252.5 374,-252.5 374,-233.5 520,-233.5 520,-252.5"/>
<text text-anchor="middle" x="447" y="-240.5" font-family="Helvetica,sans-Serif" font-size="10.00">xronos::sdk::PeriodicTimer</text>
</a>
</g>
</g>
<!-- Node1&#45;&gt;Node5 -->
<g id="edge7_Node000001_Node000005" class="edge">
<title>Node1&#45;&gt;Node5</title>
<g id="a_edge7_Node000001_Node000005"><a xlink:title=" ">
<path fill="none" stroke="#63b8ff" d="M319.31,-243C337.25,-243 356.21,-243 373.84,-243"/>
<polygon fill="#63b8ff" stroke="#63b8ff" points="319.17,-239.5 309.17,-243 319.17,-246.5 319.17,-239.5"/>
</a>
</g>
</g>
<!-- Node6 -->
<g id="Node000006" class="node">
<title>Node6</title>
<g id="a_Node000006"><a xlink:href="classxronos_1_1sdk_1_1Shutdown.html" target="_top" xlink:title="An event that triggers before the program shuts down.">
<polygon fill="white" stroke="#666666" points="510.5,-215.5 383.5,-215.5 383.5,-196.5 510.5,-196.5 510.5,-215.5"/>
<text text-anchor="middle" x="447" y="-203.5" font-family="Helvetica,sans-Serif" font-size="10.00">xronos::sdk::Shutdown</text>
</a>
</g>
</g>
<!-- Node1&#45;&gt;Node6 -->
<g id="edge8_Node000001_Node000006" class="edge">
<title>Node1&#45;&gt;Node6</title>
<g id="a_edge8_Node000001_Node000006"><a xlink:title=" ">
<path fill="none" stroke="#63b8ff" d="M319.25,-228.77C343.93,-224.33 370.54,-219.55 392.98,-215.52"/>
<polygon fill="#63b8ff" stroke="#63b8ff" points="318.39,-225.36 309.17,-230.58 319.63,-232.25 318.39,-225.36"/>
</a>
</g>
</g>
<!-- Node7 -->
<g id="Node000007" class="node">
<title>Node7</title>
<g id="a_Node000007"><a xlink:href="classxronos_1_1sdk_1_1Startup.html" target="_top" xlink:title="An event that triggers when the program starts executing.">
<polygon fill="white" stroke="#666666" points="504,-178.5 390,-178.5 390,-159.5 504,-159.5 504,-178.5"/>
<text text-anchor="middle" x="447" y="-166.5" font-family="Helvetica,sans-Serif" font-size="10.00">xronos::sdk::Startup</text>
</a>
</g>
</g>
<!-- Node1&#45;&gt;Node7 -->
<g id="edge9_Node000001_Node000007" class="edge">
<title>Node1&#45;&gt;Node7</title>
<g id="a_edge9_Node000001_Node000007"><a xlink:title=" ">
<path fill="none" stroke="#63b8ff" d="M277.22,-223.24C300.26,-211.66 330.75,-197.49 359,-188 369.99,-184.31 382.01,-181.15 393.51,-178.53"/>
<polygon fill="#63b8ff" stroke="#63b8ff" points="275.46,-220.21 268.14,-227.86 278.64,-226.45 275.46,-220.21"/>
</a>
</g>
</g>
<!-- Node9 -->
<g id="Node000009" class="node">
<title>Node9</title>
<g id="a_Node000009"><a xlink:href="classxronos_1_1sdk_1_1Reaction.html" target="_top" xlink:title="Reaction base class that is intended to be inherited by application code.">
<polygon fill="white" stroke="#666666" points="522.5,-141.5 371.5,-141.5 371.5,-122.5 522.5,-122.5 522.5,-141.5"/>
<text text-anchor="middle" x="447" y="-129.5" font-family="Helvetica,sans-Serif" font-size="10.00">xronos::sdk::Reaction&lt; R &gt;</text>
</a>
</g>
</g>
<!-- Node8&#45;&gt;Node9 -->
<g id="edge11_Node000008_Node000009" class="edge">
<title>Node8&#45;&gt;Node9</title>
<g id="a_edge11_Node000008_Node000009"><a xlink:title=" ">
<path fill="none" stroke="#63b8ff" d="M322.5,-132C338.59,-132 355.38,-132 371.2,-132"/>
<polygon fill="#63b8ff" stroke="#63b8ff" points="322.05,-128.5 312.05,-132 322.05,-135.5 322.05,-128.5"/>
</a>
</g>
</g>
<!-- Node11 -->
<g id="Node000011" class="node">
<title>Node11</title>
<g id="a_Node000011"><a xlink:href="classxronos_1_1sdk_1_1PhysicalEvent.html" target="_top" xlink:title="An element for scheduling new events from external contexts.">
<polygon fill="white" stroke="#666666" points="535,-104.5 359,-104.5 359,-85.5 535,-85.5 535,-104.5"/>
<text text-anchor="middle" x="447" y="-92.5" font-family="Helvetica,sans-Serif" font-size="10.00">xronos::sdk::PhysicalEvent&lt; T &gt;</text>
</a>
</g>
</g>
<!-- Node10&#45;&gt;Node11 -->
<g id="edge13_Node000010_Node000011" class="edge">
<title>Node10&#45;&gt;Node11</title>
<g id="a_edge13_Node000010_Node000011"><a xlink:title=" ">
<path fill="none" stroke="#63b8ff" d="M333.44,-95C341.88,-95 350.41,-95 358.8,-95"/>
<polygon fill="#63b8ff" stroke="#63b8ff" points="333.19,-91.5 323.19,-95 333.19,-98.5 333.19,-91.5"/>
</a>
</g>
</g>
<!-- Node12 -->
<g id="Node000012" class="node">
<title>Node12</title>
<g id="a_Node000012"><a xlink:href="classxronos_1_1sdk_1_1Port.html" target="_top" xlink:title="Base class for inputs and outputs of reactors.">
<polygon fill="white" stroke="#666666" points="510.5,-67.5 383.5,-67.5 383.5,-48.5 510.5,-48.5 510.5,-67.5"/>
<text text-anchor="middle" x="447" y="-55.5" font-family="Helvetica,sans-Serif" font-size="10.00">xronos::sdk::Port&lt; T &gt;</text>
</a>
</g>
</g>
<!-- Node10&#45;&gt;Node12 -->
<g id="edge14_Node000010_Node000012" class="edge">
<title>Node10&#45;&gt;Node12</title>
<g id="a_edge14_Node000010_Node000012"><a xlink:title=" ">
<path fill="none" stroke="#63b8ff" d="M302.99,-83.69C331.7,-78.53 365.34,-72.49 392.77,-67.56"/>
<polygon fill="#63b8ff" stroke="#63b8ff" points="302.27,-80.26 293.05,-85.47 303.51,-87.15 302.27,-80.26"/>
</a>
</g>
</g>
<!-- Node15 -->
<g id="Node000015" class="node">
<title>Node15</title>
<g id="a_Node000015"><a xlink:href="classxronos_1_1sdk_1_1ProgrammableTimer.html" target="_top" xlink:title="A reactor element for scheduling new events.">
<polygon fill="white" stroke="#666666" points="522.5,-30 371.5,-30 371.5,0 522.5,0 522.5,-30"/>
<text text-anchor="start" x="379.5" y="-18" font-family="Helvetica,sans-Serif" font-size="10.00">xronos::sdk::Programmable</text>
<text text-anchor="middle" x="447" y="-7" font-family="Helvetica,sans-Serif" font-size="10.00">Timer&lt; T &gt;</text>
</a>
</g>
</g>
<!-- Node10&#45;&gt;Node15 -->
<g id="edge17_Node000010_Node000015" class="edge">
<title>Node10&#45;&gt;Node15</title>
<g id="a_edge17_Node000010_Node000015"><a xlink:title=" ">
<path fill="none" stroke="#63b8ff" d="M312.95,-81.9C316.42,-80.43 319.79,-78.81 323,-77 343.27,-65.58 339.06,-50.98 359,-39 364.64,-35.61 370.77,-32.69 377.08,-30.17"/>
<polygon fill="#63b8ff" stroke="#63b8ff" points="311.71,-78.62 303.56,-85.4 314.15,-85.18 311.71,-78.62"/>
</a>
</g>
</g>
<!-- Node13 -->
<g id="Node000013" class="node">
<title>Node13</title>
<g id="a_Node000013"><a xlink:href="classxronos_1_1sdk_1_1InputPort.html" target="_top" xlink:title="A port that receives values from other reactors.">
<polygon fill="white" stroke="#666666" points="727,-85.5 575,-85.5 575,-66.5 727,-66.5 727,-85.5"/>
<text text-anchor="middle" x="651" y="-73.5" font-family="Helvetica,sans-Serif" font-size="10.00">xronos::sdk::InputPort&lt; T &gt;</text>
</a>
</g>
</g>
<!-- Node12&#45;&gt;Node13 -->
<g id="edge15_Node000012_Node000013" class="edge">
<title>Node12&#45;&gt;Node13</title>
<g id="a_edge15_Node000012_Node000013"><a xlink:title=" ">
<path fill="none" stroke="#63b8ff" d="M520.75,-64.48C538.38,-66.05 557.26,-67.74 574.99,-69.32"/>
<polygon fill="#63b8ff" stroke="#63b8ff" points="520.8,-60.97 510.53,-63.57 520.18,-67.95 520.8,-60.97"/>
</a>
</g>
</g>
<!-- Node14 -->
<g id="Node000014" class="node">
<title>Node14</title>
<g id="a_Node000014"><a xlink:href="classxronos_1_1sdk_1_1OutputPort.html" target="_top" xlink:title="A port that sends values to other reactors.">
<polygon fill="white" stroke="#666666" points="731,-48.5 571,-48.5 571,-29.5 731,-29.5 731,-48.5"/>
<text text-anchor="middle" x="651" y="-36.5" font-family="Helvetica,sans-Serif" font-size="10.00">xronos::sdk::OutputPort&lt; T &gt;</text>
</a>
</g>
</g>
<!-- Node12&#45;&gt;Node14 -->
<g id="edge16_Node000012_Node000014" class="edge">
<title>Node12&#45;&gt;Node14</title>
<g id="a_edge16_Node000012_Node000014"><a xlink:title=" ">
<path fill="none" stroke="#63b8ff" d="M520.56,-51.17C536.93,-49.64 554.38,-47.99 570.99,-46.43"/>
<polygon fill="#63b8ff" stroke="#63b8ff" points="520.16,-47.7 510.53,-52.12 520.81,-54.67 520.16,-47.7"/>
</a>
</g>
</g>
</g>
</svg>
