<?xml version="1.0" encoding="UTF-8" standalone="no"?>
<!DOCTYPE svg PUBLIC "-//W3C//DTD SVG 1.1//EN"
 "http://www.w3.org/Graphics/SVG/1.1/DTD/svg11.dtd">
<!-- Generated by graphviz version 2.43.0 (0)
 -->
<!-- Title: Graphical Class Hierarchy Pages: 1 -->
<svg width="584pt" height="479pt"
 viewBox="0.00 0.00 584.00 479.00" xmlns="http://www.w3.org/2000/svg" xmlns:xlink="http://www.w3.org/1999/xlink">
<g id="graph0" class="graph" transform="scale(1 1) rotate(0) translate(4 475)">
<title>Graphical Class Hierarchy</title>
<!-- Node0 -->
<g id="Node000000" class="node">
<title>Node0</title>
<g id="a_Node000000"><a xlink:href="classxronos_1_1sdk_1_1Element.html" target="_top" xlink:title="Base class for all reactor elements.">
<polygon fill="white" stroke="#666666" points="143.5,-233.5 24.5,-233.5 24.5,-214.5 143.5,-214.5 143.5,-233.5"/>
<text text-anchor="middle" x="84" y="-221.5" font-family="Helvetica,sans-Serif" font-size="10.00">xronos::sdk::Element</text>
</a>
</g>
</g>
<!-- Node1 -->
<g id="Node000001" class="node">
<title>Node1</title>
<g id="a_Node000001"><a xlink:href="classxronos_1_1sdk_1_1PhysicalEvent_3_01void_01_4.html" target="_top" xlink:title="An element for scheduling new events from external contexts.">
<polygon fill="white" stroke="#666666" points="365.5,-471 218.5,-471 218.5,-441 365.5,-441 365.5,-471"/>
<text text-anchor="start" x="226.5" y="-459" font-family="Helvetica,sans-Serif" font-size="10.00">xronos::sdk::PhysicalEvent</text>
<text text-anchor="middle" x="292" y="-448" font-family="Helvetica,sans-Serif" font-size="10.00">&lt; void &gt;</text>
</a>
</g>
</g>
<!-- Node0&#45;&gt;Node1 -->
<g id="edge2_Node000000_Node000001" class="edge">
<title>Node0&#45;&gt;Node1</title>
<g id="a_edge2_Node000000_Node000001"><a xlink:title=" ">
<path fill="none" stroke="#63b8ff" d="M104.33,-240.21C123.1,-256.92 151.15,-284.6 168,-314 195.27,-361.57 164.71,-393.75 204,-432 208.27,-436.15 213.18,-439.6 218.46,-442.46"/>
<polygon fill="#63b8ff" stroke="#63b8ff" points="106.52,-237.48 96.68,-233.55 101.92,-242.76 106.52,-237.48"/>
</a>
</g>
</g>
<!-- Node3 -->
<g id="Node000003" class="node">
<title>Node3</title>
<g id="a_Node000003"><a xlink:href="classxronos_1_1sdk_1_1Port_3_01void_01_4.html" target="_top" xlink:title="Base class for ports that do not communicate values.">
<polygon fill="white" stroke="#666666" points="345.5,-423 238.5,-423 238.5,-393 345.5,-393 345.5,-423"/>
<text text-anchor="start" x="246.5" y="-411" font-family="Helvetica,sans-Serif" font-size="10.00">xronos::sdk::Port&lt;</text>
<text text-anchor="middle" x="292" y="-400" font-family="Helvetica,sans-Serif" font-size="10.00"> void &gt;</text>
</a>
</g>
</g>
<!-- Node0&#45;&gt;Node3 -->
<g id="edge3_Node000000_Node000003" class="edge">
<title>Node0&#45;&gt;Node3</title>
<g id="a_edge3_Node000000_Node000003"><a xlink:title=" ">
<path fill="none" stroke="#63b8ff" d="M103.19,-240.86C121.12,-258.09 148.57,-286.2 168,-314 188.04,-342.68 176.85,-361.93 204,-384 213.85,-392 226.17,-397.35 238.42,-400.91"/>
<polygon fill="#63b8ff" stroke="#63b8ff" points="105.35,-238.09 95.69,-233.75 100.54,-243.17 105.35,-238.09"/>
</a>
</g>
</g>
<!-- Node4 -->
<g id="Node000004" class="node">
<title>Node4</title>
<g id="a_Node000004"><a xlink:href="classxronos_1_1sdk_1_1ProgrammableTimer_3_01void_01_4.html" target="_top" xlink:title="An element for scheduling new events.">
<polygon fill="white" stroke="#666666" points="367.5,-375 216.5,-375 216.5,-345 367.5,-345 367.5,-375"/>
<text text-anchor="start" x="224.5" y="-363" font-family="Helvetica,sans-Serif" font-size="10.00">xronos::sdk::Programmable</text>
<text text-anchor="middle" x="292" y="-352" font-family="Helvetica,sans-Serif" font-size="10.00">Timer&lt; void &gt;</text>
</a>
</g>
</g>
<!-- Node0&#45;&gt;Node4 -->
<g id="edge4_Node000000_Node000004" class="edge">
<title>Node0&#45;&gt;Node4</title>
<g id="a_edge4_Node000000_Node000004"><a xlink:title=" ">
<path fill="none" stroke="#63b8ff" d="M98.84,-241.59C119.23,-266.32 159.75,-311.13 204,-336 210.01,-339.38 216.52,-342.3 223.19,-344.83"/>
<polygon fill="#63b8ff" stroke="#63b8ff" points="101.5,-239.31 92.49,-233.74 96.06,-243.72 101.5,-239.31"/>
</a>
</g>
</g>
<!-- Node8 -->
<g id="Node000008" class="node">
<title>Node8</title>
<g id="a_Node000008"><a xlink:href="classxronos_1_1sdk_1_1BaseReaction.html" target="_top" xlink:title="Non&#45;template base class for reactions.">
<polygon fill="white" stroke="#666666" points="365,-215.5 219,-215.5 219,-196.5 365,-196.5 365,-215.5"/>
<text text-anchor="middle" x="292" y="-203.5" font-family="Helvetica,sans-Serif" font-size="10.00">xronos::sdk::BaseReaction</text>
</a>
</g>
</g>
<!-- Node0&#45;&gt;Node8 -->
<g id="edge5_Node000000_Node000008" class="edge">
<title>Node0&#45;&gt;Node8</title>
<g id="a_edge5_Node000000_Node000008"><a xlink:title=" ">
<path fill="none" stroke="#8b1a1a" d="M153.85,-217.98C174.78,-216.16 197.84,-214.14 218.98,-212.29"/>
<polygon fill="#8b1a1a" stroke="#8b1a1a" points="153.41,-214.51 143.76,-218.87 154.02,-221.48 153.41,-214.51"/>
</a>
</g>
</g>
<!-- Node10 -->
<g id="Node000010" class="node">
<title>Node10</title>
<g id="a_Node000010"><a xlink:href="classxronos_1_1sdk_1_1Metric.html" target="_top" xlink:title="Allows recording values to an external data base from reaction handlers.">
<polygon fill="white" stroke="#666666" points="347,-178.5 237,-178.5 237,-159.5 347,-159.5 347,-178.5"/>
<text text-anchor="middle" x="292" y="-166.5" font-family="Helvetica,sans-Serif" font-size="10.00">xronos::sdk::Metric</text>
</a>
</g>
</g>
<!-- Node0&#45;&gt;Node10 -->
<g id="edge7_Node000000_Node000010" class="edge">
<title>Node0&#45;&gt;Node10</title>
<g id="a_edge7_Node000000_Node000010"><a xlink:title=" ">
<path fill="none" stroke="#63b8ff" d="M123.95,-211.37C147.08,-204.08 177.07,-195 204,-188 216.87,-184.65 230.91,-181.41 243.88,-178.58"/>
<polygon fill="#63b8ff" stroke="#63b8ff" points="122.63,-208.12 114.16,-214.48 124.75,-214.79 122.63,-208.12"/>
</a>
</g>
</g>
<!-- Node5 -->
<g id="Node000005" class="node">
<title>Node5</title>
<g id="a_Node000005"><a xlink:href="classxronos_1_1sdk_1_1PeriodicTimer.html" target="_top" xlink:title="A trigger that emits events in regular intervals.">
<polygon fill="white" stroke="#666666" points="365,-326.5 219,-326.5 219,-307.5 365,-307.5 365,-326.5"/>
<text text-anchor="middle" x="292" y="-314.5" font-family="Helvetica,sans-Serif" font-size="10.00">xronos::sdk::PeriodicTimer</text>
</a>
</g>
</g>
<!-- Node0&#45;&gt;Node5 -->
<g id="edge8_Node000000_Node000005" class="edge">
<title>Node0&#45;&gt;Node5</title>
<g id="a_edge8_Node000000_Node000005"><a xlink:title=" ">
<path fill="none" stroke="#63b8ff" d="M105.22,-239.96C127.96,-257.11 166.61,-283.93 204,-299 212.44,-302.4 221.61,-305.19 230.73,-307.47"/>
<polygon fill="#63b8ff" stroke="#63b8ff" points="107.11,-237 97.04,-233.69 102.85,-242.55 107.11,-237"/>
</a>
</g>
</g>
<!-- Node11 -->
<g id="Node000011" class="node">
<title>Node11</title>
<g id="a_Node000011"><a xlink:href="classxronos_1_1sdk_1_1PhysicalEvent.html" target="_top" xlink:title="An element for scheduling new events from external contexts.">
<polygon fill="white" stroke="#666666" points="380,-104.5 204,-104.5 204,-85.5 380,-85.5 380,-104.5"/>
<text text-anchor="middle" x="292" y="-92.5" font-family="Helvetica,sans-Serif" font-size="10.00">xronos::sdk::PhysicalEvent&lt; T &gt;</text>
</a>
</g>
</g>
<!-- Node0&#45;&gt;Node11 -->
<g id="edge9_Node000000_Node000011" class="edge">
<title>Node0&#45;&gt;Node11</title>
<g id="a_edge9_Node000000_Node000011"><a xlink:title=" ">
<path fill="none" stroke="#63b8ff" d="M98.73,-206.41C119,-181.74 159.37,-137.27 204,-114 211.4,-110.14 219.55,-107.06 227.81,-104.61"/>
<polygon fill="#63b8ff" stroke="#63b8ff" points="95.97,-204.26 92.43,-214.25 101.42,-208.65 95.97,-204.26"/>
</a>
</g>
</g>
<!-- Node13 -->
<g id="Node000013" class="node">
<title>Node13</title>
<g id="a_Node000013"><a xlink:href="classxronos_1_1sdk_1_1Port.html" target="_top" xlink:title="Base class for inputs and outputs of reactors.">
<polygon fill="white" stroke="#666666" points="355.5,-67.5 228.5,-67.5 228.5,-48.5 355.5,-48.5 355.5,-67.5"/>
<text text-anchor="middle" x="292" y="-55.5" font-family="Helvetica,sans-Serif" font-size="10.00">xronos::sdk::Port&lt; T &gt;</text>
</a>
</g>
</g>
<!-- Node0&#45;&gt;Node13 -->
<g id="edge10_Node000000_Node000013" class="edge">
<title>Node0&#45;&gt;Node13</title>
<g id="a_edge10_Node000000_Node000013"><a xlink:title=" ">
<path fill="none" stroke="#63b8ff" d="M94.69,-205.09C112.04,-173.28 151.55,-109.35 204,-77 211.37,-72.46 219.68,-68.99 228.16,-66.35"/>
<polygon fill="#63b8ff" stroke="#63b8ff" points="91.45,-203.74 89.85,-214.22 97.63,-207.02 91.45,-203.74"/>
</a>
</g>
</g>
<!-- Node16 -->
<g id="Node000016" class="node">
<title>Node16</title>
<g id="a_Node000016"><a xlink:href="classxronos_1_1sdk_1_1ProgrammableTimer.html" target="_top" xlink:title="A reactor element for scheduling new events.">
<polygon fill="white" stroke="#666666" points="367.5,-30 216.5,-30 216.5,0 367.5,0 367.5,-30"/>
<text text-anchor="start" x="224.5" y="-18" font-family="Helvetica,sans-Serif" font-size="10.00">xronos::sdk::Programmable</text>
<text text-anchor="middle" x="292" y="-7" font-family="Helvetica,sans-Serif" font-size="10.00">Timer&lt; T &gt;</text>
</a>
</g>
</g>
<!-- Node0&#45;&gt;Node16 -->
<g id="edge13_Node000000_Node000016" class="edge">
<title>Node0&#45;&gt;Node16</title>
<g id="a_edge13_Node000000_Node000016"><a xlink:title=" ">
<path fill="none" stroke="#63b8ff" d="M94.9,-205.26C117.5,-163.11 173.31,-62.77 204,-40 209.17,-36.16 214.92,-32.91 220.93,-30.16"/>
<polygon fill="#63b8ff" stroke="#63b8ff" points="91.75,-203.73 90.14,-214.2 97.93,-207.02 91.75,-203.73"/>
</a>
</g>
</g>
<!-- Node17 -->
<g id="Node000017" class="node">
<title>Node17</title>
<g id="a_Node000017"><a xlink:href="classxronos_1_1sdk_1_1Reactor.html" target="_top" xlink:title="An abstract reactor that can be subclassed to define new reactors.">
<polygon fill="white" stroke="#666666" points="350,-141.5 234,-141.5 234,-122.5 350,-122.5 350,-141.5"/>
<text text-anchor="middle" x="292" y="-129.5" font-family="Helvetica,sans-Serif" font-size="10.00">xronos::sdk::Reactor</text>
</a>
</g>
</g>
<!-- Node0&#45;&gt;Node17 -->
<g id="edge14_Node000000_Node000017" class="edge">
<title>Node0&#45;&gt;Node17</title>
<g id="a_edge14_Node000000_Node000017"><a xlink:title=" ">
<path fill="none" stroke="#63b8ff" d="M105.69,-208.3C128.56,-191.69 167.08,-165.86 204,-151 213.47,-147.19 223.83,-144.08 234.01,-141.57"/>
<polygon fill="#63b8ff" stroke="#63b8ff" points="103.41,-205.63 97.45,-214.39 107.57,-211.27 103.41,-205.63"/>
</a>
</g>
</g>
<!-- Node6 -->
<g id="Node000006" class="node">
<title>Node6</title>
<g id="a_Node000006"><a xlink:href="classxronos_1_1sdk_1_1Shutdown.html" target="_top" xlink:title="An event that triggers before the program shuts down.">
<polygon fill="white" stroke="#666666" points="355.5,-289.5 228.5,-289.5 228.5,-270.5 355.5,-270.5 355.5,-289.5"/>
<text text-anchor="middle" x="292" y="-277.5" font-family="Helvetica,sans-Serif" font-size="10.00">xronos::sdk::Shutdown</text>
</a>
</g>
</g>
<!-- Node0&#45;&gt;Node6 -->
<g id="edge15_Node000000_Node000006" class="edge">
<title>Node0&#45;&gt;Node6</title>
<g id="a_edge15_Node000000_Node000006"><a xlink:title=" ">
<path fill="none" stroke="#63b8ff" d="M121.69,-236.82C145.07,-244.71 176.1,-254.68 204,-262 215.64,-265.05 228.26,-267.92 240.19,-270.42"/>
<polygon fill="#63b8ff" stroke="#63b8ff" points="122.77,-233.49 112.17,-233.58 120.51,-240.11 122.77,-233.49"/>
</a>
</g>
</g>
<!-- Node7 -->
<g id="Node000007" class="node">
<title>Node7</title>
<g id="a_Node000007"><a xlink:href="classxronos_1_1sdk_1_1Startup.html" target="_top" xlink:title="An event that triggers when the program starts executing.">
<polygon fill="white" stroke="#666666" points="349,-252.5 235,-252.5 235,-233.5 349,-233.5 349,-252.5"/>
<text text-anchor="middle" x="292" y="-240.5" font-family="Helvetica,sans-Serif" font-size="10.00">xronos::sdk::Startup</text>
</a>
</g>
</g>
<!-- Node0&#45;&gt;Node7 -->
<g id="edge16_Node000000_Node000007" class="edge">
<title>Node0&#45;&gt;Node7</title>
<g id="a_edge16_Node000000_Node000007"><a xlink:title=" ">
<path fill="none" stroke="#63b8ff" d="M154,-230.36C180.22,-232.78 209.74,-235.51 234.65,-237.8"/>
<polygon fill="#63b8ff" stroke="#63b8ff" points="154.03,-226.85 143.76,-229.42 153.39,-233.82 154.03,-226.85"/>
</a>
</g>
</g>
<!-- Node9 -->
<g id="Node000009" class="node">
<title>Node9</title>
<g id="a_Node000009"><a xlink:href="classxronos_1_1sdk_1_1Reaction.html" target="_top" xlink:title="Reaction base class that is intended to be inherited by application code.">
<polygon fill="white" stroke="#666666" points="571.5,-215.5 420.5,-215.5 420.5,-196.5 571.5,-196.5 571.5,-215.5"/>
<text text-anchor="middle" x="496" y="-203.5" font-family="Helvetica,sans-Serif" font-size="10.00">xronos::sdk::Reaction&lt; R &gt;</text>
</a>
</g>
</g>
<!-- Node8&#45;&gt;Node9 -->
<g id="edge6_Node000008_Node000009" class="edge">
<title>Node8&#45;&gt;Node9</title>
<g id="a_edge6_Node000008_Node000009"><a xlink:title=" ">
<path fill="none" stroke="#63b8ff" d="M375.26,-206C390.14,-206 405.58,-206 420.23,-206"/>
<polygon fill="#63b8ff" stroke="#63b8ff" points="375.07,-202.5 365.07,-206 375.07,-209.5 375.07,-202.5"/>
</a>
</g>
</g>
<!-- Node14 -->
<g id="Node000014" class="node">
<title>Node14</title>
<g id="a_Node000014"><a xlink:href="classxronos_1_1sdk_1_1InputPort.html" target="_top" xlink:title="A port that receives values from other reactors.">
<polygon fill="white" stroke="#666666" points="572,-48.5 420,-48.5 420,-29.5 572,-29.5 572,-48.5"/>
<text text-anchor="middle" x="496" y="-36.5" font-family="Helvetica,sans-Serif" font-size="10.00">xronos::sdk::InputPort&lt; T &gt;</text>
</a>
</g>
</g>
<!-- Node13&#45;&gt;Node14 -->
<g id="edge11_Node000013_Node000014" class="edge">
<title>Node13&#45;&gt;Node14</title>
<g id="a_edge11_Node000013_Node000014"><a xlink:title=" ">
<path fill="none" stroke="#63b8ff" d="M365.75,-51.16C383.38,-49.5 402.26,-47.72 419.99,-46.06"/>
<polygon fill="#63b8ff" stroke="#63b8ff" points="365.16,-47.7 355.53,-52.12 365.81,-54.67 365.16,-47.7"/>
</a>
</g>
</g>
<!-- Node15 -->
<g id="Node000015" class="node">
<title>Node15</title>
<g id="a_Node000015"><a xlink:href="classxronos_1_1sdk_1_1OutputPort.html" target="_top" xlink:title="A port that sends values to other reactors.">
<polygon fill="white" stroke="#666666" points="576,-85.5 416,-85.5 416,-66.5 576,-66.5 576,-85.5"/>
<text text-anchor="middle" x="496" y="-73.5" font-family="Helvetica,sans-Serif" font-size="10.00">xronos::sdk::OutputPort&lt; T &gt;</text>
</a>
</g>
</g>
<!-- Node13&#45;&gt;Node15 -->
<g id="edge12_Node000013_Node000015" class="edge">
<title>Node13&#45;&gt;Node15</title>
<g id="a_edge12_Node000013_Node000015"><a xlink:title=" ">
<path fill="none" stroke="#63b8ff" d="M365.56,-64.47C381.93,-65.92 399.38,-67.48 415.99,-68.96"/>
<polygon fill="#63b8ff" stroke="#63b8ff" points="365.8,-60.97 355.53,-63.57 365.18,-67.95 365.8,-60.97"/>
</a>
</g>
</g>
<!-- Node12 -->
<g id="Node000012" class="node">
<title>Node12</title>
<g id="a_Node000012"><a xlink:href="classxronos_1_1sdk_1_1EventSource.html" target="_top" xlink:title="Base class for reactor elements that can be used as sources or triggers of reactions.">
<polygon fill="white" stroke="#666666" points="168,-67.5 0,-67.5 0,-48.5 168,-48.5 168,-67.5"/>
<text text-anchor="middle" x="84" y="-55.5" font-family="Helvetica,sans-Serif" font-size="10.00">xronos::sdk::EventSource&lt; T &gt;</text>
</a>
</g>
</g>
<!-- Node12&#45;&gt;Node11 -->
<g id="edge17_Node000012_Node000011" class="edge">
<title>Node12&#45;&gt;Node11</title>
<g id="a_edge17_Node000012_Node000011"><a xlink:title=" ">
<path fill="none" stroke="#63b8ff" d="M147.99,-69.31C176.7,-74.47 210.34,-80.51 237.77,-85.44"/>
<polygon fill="#63b8ff" stroke="#63b8ff" points="148.51,-65.85 138.05,-67.53 147.27,-72.74 148.51,-65.85"/>
</a>
</g>
</g>
<!-- Node12&#45;&gt;Node13 -->
<g id="edge18_Node000012_Node000013" class="edge">
<title>Node12&#45;&gt;Node13</title>
<g id="a_edge18_Node000012_Node000013"><a xlink:title=" ">
<path fill="none" stroke="#63b8ff" d="M178.63,-58C195.5,-58 212.7,-58 228.41,-58"/>
<polygon fill="#63b8ff" stroke="#63b8ff" points="178.19,-54.5 168.19,-58 178.19,-61.5 178.19,-54.5"/>
</a>
</g>
</g>
<!-- Node12&#45;&gt;Node16 -->
<g id="edge19_Node000012_Node000016" class="edge">
<title>Node12&#45;&gt;Node16</title>
<g id="a_edge19_Node000012_Node000016"><a xlink:title=" ">
<path fill="none" stroke="#63b8ff" d="M140.77,-46.36C164.89,-41.32 193.42,-35.37 219.11,-30.01"/>
<polygon fill="#63b8ff" stroke="#63b8ff" points="139.79,-42.99 130.72,-48.46 141.22,-49.84 139.79,-42.99"/>
</a>
</g>
</g>
<!-- Node2 -->
<g id="Node000002" class="node">
<title>Node2</title>
<g id="a_Node000002"><a xlink:href="classxronos_1_1sdk_1_1EventSource_3_01void_01_4.html" target="_top" xlink:title="Base class for reactor elements that can be used as sources or triggers of reactions.">
<polygon fill="white" stroke="#666666" points="154,-353 14,-353 14,-323 154,-323 154,-353"/>
<text text-anchor="start" x="22" y="-341" font-family="Helvetica,sans-Serif" font-size="10.00">xronos::sdk::EventSource</text>
<text text-anchor="middle" x="84" y="-330" font-family="Helvetica,sans-Serif" font-size="10.00">&lt; void &gt;</text>
</a>
</g>
</g>
<!-- Node2&#45;&gt;Node1 -->
<g id="edge20_Node000002_Node000001" class="edge">
<title>Node2&#45;&gt;Node1</title>
<g id="a_edge20_Node000002_Node000001"><a xlink:title=" ">
<path fill="none" stroke="#63b8ff" d="M107.51,-360.38C130.11,-381.67 166.81,-413.16 204,-432 210.71,-435.4 217.96,-438.37 225.32,-440.95"/>
<polygon fill="#63b8ff" stroke="#63b8ff" points="109.77,-357.7 100.13,-353.31 104.93,-362.76 109.77,-357.7"/>
</a>
</g>
</g>
<!-- Node2&#45;&gt;Node3 -->
<g id="edge21_Node000002_Node000003" class="edge">
<title>Node2&#45;&gt;Node3</title>
<g id="a_edge21_Node000002_Node000003"><a xlink:title=" ">
<path fill="none" stroke="#63b8ff" d="M130.54,-356.83C152.55,-365.61 179.45,-375.89 204,-384 215.01,-387.64 226.92,-391.18 238.3,-394.37"/>
<polygon fill="#63b8ff" stroke="#63b8ff" points="131.7,-353.52 121.12,-353.04 129.09,-360.02 131.7,-353.52"/>
</a>
</g>
</g>
<!-- Node2&#45;&gt;Node4 -->
<g id="edge22_Node000002_Node000004" class="edge">
<title>Node2&#45;&gt;Node4</title>
<g id="a_edge22_Node000002_Node000004"><a xlink:title=" ">
<path fill="none" stroke="#63b8ff" d="M164.14,-346.45C181.3,-348.28 199.39,-350.22 216.36,-352.03"/>
<polygon fill="#63b8ff" stroke="#63b8ff" points="164.48,-342.97 154.17,-345.39 163.74,-349.93 164.48,-342.97"/>
</a>
</g>
</g>
<!-- Node2&#45;&gt;Node5 -->
<g id="edge23_Node000002_Node000005" class="edge">
<title>Node2&#45;&gt;Node5</title>
<g id="a_edge23_Node000002_Node000005"><a xlink:title=" ">
<path fill="none" stroke="#63b8ff" d="M164.31,-329.92C182.25,-328.09 201.21,-326.15 218.84,-324.36"/>
<polygon fill="#63b8ff" stroke="#63b8ff" points="163.76,-326.45 154.17,-330.95 164.47,-333.42 163.76,-326.45"/>
</a>
</g>
</g>
<!-- Node2&#45;&gt;Node6 -->
<g id="edge24_Node000002_Node000006" class="edge">
<title>Node2&#45;&gt;Node6</title>
<g id="a_edge24_Node000002_Node000006"><a xlink:title=" ">
<path fill="none" stroke="#63b8ff" d="M136.93,-319.71C157.65,-312.75 181.82,-305.04 204,-299 216.53,-295.59 230.2,-292.37 242.92,-289.58"/>
<polygon fill="#63b8ff" stroke="#63b8ff" points="135.71,-316.43 127.37,-322.95 137.96,-323.06 135.71,-316.43"/>
</a>
</g>
</g>
<!-- Node2&#45;&gt;Node7 -->
<g id="edge25_Node000002_Node000007" class="edge">
<title>Node2&#45;&gt;Node7</title>
<g id="a_edge25_Node000002_Node000007"><a xlink:title=" ">
<path fill="none" stroke="#63b8ff" d="M112.31,-316.56C135.48,-299.39 170.25,-275.94 204,-262 213.72,-257.99 224.41,-254.76 234.88,-252.2"/>
<polygon fill="#63b8ff" stroke="#63b8ff" points="109.91,-313.99 104.02,-322.81 114.12,-319.59 109.91,-313.99"/>
</a>
</g>
</g>
</g>
</svg>
