<?xml version="1.0" encoding="UTF-8" standalone="no"?>
<svg
   id="Layer_2"
   data-name="Layer 2"
   viewBox="0 0 216.67 216.67"
   version="1.1"
   sodipodi:docname="logo.svg"
   xmlns:inkscape="http://www.inkscape.org/namespaces/inkscape"
   xmlns:sodipodi="http://sodipodi.sourceforge.net/DTD/sodipodi-0.dtd"
   xmlns="http://www.w3.org/2000/svg"
   xmlns:svg="http://www.w3.org/2000/svg">
  <sodipodi:namedview
     id="namedview28"
     pagecolor="#ffffff"
     bordercolor="#666666"
     borderopacity="1.0"
     inkscape:pageshadow="2"
     inkscape:pageopacity="0.0"
     inkscape:pagecheckerboard="0" />
  <defs
     id="defs4">
    <style
       id="style2">
      .cls-1 {
        fill: #b230ef;
      }

      .cls-1, .cls-2, .cls-3, .cls-4, .cls-5 {
        stroke-width: 0px;
      }

      .cls-2 {
        fill: #6b2eef;
      }

      .cls-3 {
        fill: #00c6f4;
      }

      .cls-4 {
        fill: #e350fb;
      }

      .cls-5 {
        fill: #3752f9;
      }
    </style>
  </defs>
  <g
     id="Layer_1-2"
     data-name="Layer 1">
    <g
       id="g24">
      <path
         class="cls-1"
         d="M174.55,55.83c-.94-1.9-2.85-3.08-4.98-3.08h-39.84c-3.55,0-6.94,1.33-9.55,3.76-.72.67-1.31,1.33-1.73,1.93l-7.59,9.58c-1.95,2.45-4.87,3.86-8.02,3.86h-52.29s1.95,2.48,1.95,2.48c3.01,3.81,7.54,6,12.43,6h82.64c7.32,0,14.11-3.27,18.63-8.98l7.74-9.77c1.32-1.66,1.55-3.88.62-5.78Z"
         id="path6" />
      <path
         class="cls-2"
         d="M141.69,97.56c-.94-1.9-2.85-3.08-4.98-3.08h-39.76c-3.98,0-7.63,1.52-10.6,4.47l-11.69,14.2c-1.36,1.66-1.64,3.89-.71,5.82.93,1.93,2.85,3.13,5.01,3.13h35.74c7.32,0,14.11-3.27,18.63-8.97l7.75-9.77c1.32-1.67,1.56-3.88.62-5.78Z"
         id="path8" />
      <path
         class="cls-5"
         d="M130.1,162.4c-3.51-4.45-8.8-7-14.51-7h-12.99c-.48,0-.88-.25-1.08-.67-.2-.41-.15-.88.14-1.24,2.81-3.47,6.7-8.34,6.7-8.35,1.32-1.67,1.56-3.88.62-5.78-.94-1.9-2.85-3.08-4.98-3.08h-39.95c-3.98,0-7.62,1.52-10.6,4.47l-11.58,14.22c-1.35,1.66-1.61,3.89-.68,5.81.93,1.92,2.85,3.12,5,3.12h85.08s-1.16-1.49-1.16-1.49Z"
         id="path10" />
      <g
         id="g16">
        <path
           class="cls-4"
           d="M216.1,3.1c-.94-1.9-2.84-3.08-4.98-3.08l-39.05-.03c-4.64,0-9.42,2.21-11.86,5.48l-15.74,20.06c-2.3,2.93-5.75,4.6-9.49,4.6h-68.25s1.16,1.49,1.16,1.49c3.51,4.45,8.8,7,14.51,7h98.12c7.35,0,14.16-3.29,18.68-9.04l16.29-20.72c1.31-1.66,1.54-3.88.61-5.78Z"
           id="path12" />
        <path
           class="cls-4"
           d="M37.56,5.95C34.95,2.33,30.72.17,26.25.17L5.82.08C3.69,0,1.76,1.24.81,3.15-.13,5.06.11,7.28,1.43,8.95l16.44,20.73c4.52,5.7,11.3,8.96,18.62,8.96h15.54c2.14,0,4.05-1.18,4.98-3.08.94-1.9.7-4.12-.62-5.78L37.56,5.95Z"
           id="path14" />
      </g>
      <g
         id="g22">
        <path
           class="cls-3"
           d="M71.03,178h-34.87c-7.37,0-14.18,3.3-18.69,9.06L1.17,207.82c-1.31,1.67-1.54,3.88-.6,5.78.94,1.89,2.85,3.07,4.98,3.07h0l39.04-.04c4.64,0,9.42-2.21,11.86-5.48l18.99-24.21c1.32-1.69,1.56-3.92.61-5.84-.95-1.92-2.88-3.11-5.04-3.11Z"
           id="path18" />
        <path
           class="cls-3"
           d="M215.5,207.8l-51.36-65.58c-.73-1.01-1.64-1.95-2.7-2.78-2.47-1.94-5.52-3-8.6-3l-20.38-.12h-.03c-2.13,0-4.03,1.17-4.97,3.07-.94,1.91-.71,4.13.61,5.8l52.09,65.84c2.82,3.57,7.06,5.62,11.63,5.62h19.33c2.13,0,4.04-1.18,4.98-3.07.94-1.89.71-4.11-.59-5.77Z"
           id="path20" />
      </g>
    </g>
  </g>
</svg>
