<?xml version="1.0" encoding="UTF-8" standalone="no"?>
<!DOCTYPE svg PUBLIC "-//W3C//DTD SVG 1.1//EN"
 "http://www.w3.org/Graphics/SVG/1.1/DTD/svg11.dtd">
<!-- Generated by graphviz version 2.43.0 (0)
 -->
<!-- Title: xronos::sdk::PhysicalEvent&lt; void &gt; Pages: 1 -->
<svg width="671pt" height="123pt"
 viewBox="0.00 0.00 671.00 123.00" xmlns="http://www.w3.org/2000/svg" xmlns:xlink="http://www.w3.org/1999/xlink">
<g id="graph0" class="graph" transform="scale(1 1) rotate(0) translate(4 119)">
<title>xronos::sdk::PhysicalEvent&lt; void &gt;</title>
<!-- Node1 -->
<g id="Node000001" class="node">
<title>Node1</title>
<g id="a_Node000001"><a xlink:title="A reactor element for receiving events from external sources.">
<polygon fill="#999999" stroke="#666666" points="663,-73.5 516,-73.5 516,-43.5 663,-43.5 663,-73.5"/>
<text text-anchor="start" x="524" y="-61.5" font-family="Helvetica,sans-Serif" font-size="10.00">xronos::sdk::PhysicalEvent</text>
<text text-anchor="middle" x="589.5" y="-50.5" font-family="Helvetica,sans-Serif" font-size="10.00">&lt; void &gt;</text>
</a>
</g>
</g>
<!-- Node2 -->
<g id="Node000002" class="node">
<title>Node2</title>
<g id="a_Node000002"><a xlink:href="classxronos_1_1sdk_1_1Element.html" target="_top" xlink:title="Base class for all reactor elements.">
<polygon fill="white" stroke="#666666" points="143.5,-115 24.5,-115 24.5,-96 143.5,-96 143.5,-115"/>
<text text-anchor="middle" x="84" y="-103" font-family="Helvetica,sans-Serif" font-size="10.00">xronos::sdk::Element</text>
</a>
</g>
</g>
<!-- Node2&#45;&gt;Node1 -->
<g id="edge1_Node000001_Node000002" class="edge">
<title>Node2&#45;&gt;Node1</title>
<g id="a_edge1_Node000001_Node000002"><a xlink:title=" ">
<path fill="none" stroke="#63b8ff" d="M154.02,-98.22C236.32,-93.79 377.85,-88.1 498,-70.5 503.75,-69.66 509.66,-68.64 515.59,-67.53"/>
<polygon fill="#63b8ff" stroke="#63b8ff" points="153.59,-94.74 143.79,-98.78 153.97,-101.73 153.59,-94.74"/>
</a>
</g>
</g>
<!-- Node2&#45;&gt;Node1 -->
<g id="edge4_Node000001_Node000002" class="edge">
<title>Node2&#45;&gt;Node1</title>
<g id="a_edge4_Node000001_Node000002"><a xlink:title=" ">
<path fill="none" stroke="#63b8ff" d="M154.02,-111.04C236.32,-111.79 377.85,-106.1 498,-88.5 519.7,-85.32 543.89,-79.59 561.79,-73.57"/>
<polygon fill="#63b8ff" stroke="#63b8ff" points="153.84,-107.54 143.79,-110.91 153.75,-114.54 153.84,-107.54"/>
</a>
</g>
</g>
<!-- Node5 -->
<g id="Node000005" class="node">
<title>Node5</title>
<g id="a_Node000005"><a xlink:href="classxronos_1_1sdk_1_1PhysicalEvent.html" target="_top" xlink:title="A reactor element for receiving events from external sources.">
<polygon fill="white" stroke="#666666" points="430,-68 254,-68 254,-49 430,-49 430,-68"/>
<text text-anchor="middle" x="342" y="-56" font-family="Helvetica,sans-Serif" font-size="10.00">xronos::sdk::PhysicalEvent&lt; T &gt;</text>
</a>
</g>
</g>
<!-- Node2&#45;&gt;Node5 -->
<g id="edge7_Node000005_Node000002" class="edge">
<title>Node2&#45;&gt;Node5</title>
<g id="a_edge7_Node000005_Node000002"><a xlink:title=" ">
<path fill="none" stroke="#63b8ff" d="M142.18,-93.94C156.48,-91.11 171.79,-88.14 186,-85.5 218.49,-79.45 254.9,-73.09 284.26,-68.06"/>
<polygon fill="#63b8ff" stroke="#63b8ff" points="141.1,-90.58 131.97,-95.96 142.46,-97.45 141.1,-90.58"/>
</a>
</g>
</g>
<!-- Node3 -->
<g id="Node000003" class="node">
<title>Node3</title>
<g id="a_Node000003"><a xlink:href="classxronos_1_1sdk_1_1EventSource_3_01void_01_4.html" target="_top" xlink:title="Interface implemented by reactor elements that can be used as triggers of reactions.">
<polygon fill="white" stroke="#666666" points="412,-30.5 272,-30.5 272,-0.5 412,-0.5 412,-30.5"/>
<text text-anchor="start" x="280" y="-18.5" font-family="Helvetica,sans-Serif" font-size="10.00">xronos::sdk::EventSource</text>
<text text-anchor="middle" x="342" y="-7.5" font-family="Helvetica,sans-Serif" font-size="10.00">&lt; void &gt;</text>
</a>
</g>
</g>
<!-- Node3&#45;&gt;Node1 -->
<g id="edge2_Node000001_Node000003" class="edge">
<title>Node3&#45;&gt;Node1</title>
<g id="a_edge2_Node000001_Node000003"><a xlink:title=" ">
<path fill="none" stroke="#63b8ff" d="M422.28,-23.03C459.2,-28.8 502.15,-36.55 535.14,-43.47"/>
<polygon fill="#63b8ff" stroke="#63b8ff" points="422.45,-19.51 412.04,-21.45 421.39,-26.43 422.45,-19.51"/>
</a>
</g>
</g>
<!-- Node3&#45;&gt;Node1 -->
<g id="edge5_Node000001_Node000003" class="edge">
<title>Node3&#45;&gt;Node1</title>
<g id="a_edge5_Node000001_Node000003"><a xlink:title=" ">
<path fill="none" stroke="#63b8ff" d="M406.39,-32.6C439.84,-39.38 481.03,-46.67 515.78,-51.99"/>
<polygon fill="#63b8ff" stroke="#63b8ff" points="406.77,-29.1 396.27,-30.51 405.36,-35.96 406.77,-29.1"/>
</a>
</g>
</g>
<!-- Node4 -->
<g id="Node000004" class="node">
<title>Node4</title>
<g id="a_Node000004"><a xlink:href="classxronos_1_1sdk_1_1EventSource.html" target="_top" xlink:title="Interface implemented by reactor elements that can be used as triggers of reactions.">
<polygon fill="white" stroke="#666666" points="168,-19 0,-19 0,0 168,0 168,-19"/>
<text text-anchor="middle" x="84" y="-7" font-family="Helvetica,sans-Serif" font-size="10.00">xronos::sdk::EventSource&lt; T &gt;</text>
</a>
</g>
</g>
<!-- Node4&#45;&gt;Node3 -->
<g id="edge3_Node000003_Node000004" class="edge">
<title>Node4&#45;&gt;Node3</title>
<g id="a_edge3_Node000003_Node000004"><a xlink:title=" ">
<path fill="none" stroke="orange" stroke-dasharray="5,2" d="M178.48,-11.69C209.41,-12.42 243.24,-13.21 271.99,-13.88"/>
<polygon fill="orange" stroke="orange" points="178.2,-8.18 168.12,-11.45 178.03,-15.18 178.2,-8.18"/>
</a>
</g>
<text text-anchor="start" x="189" y="-19" font-family="Helvetica,sans-Serif" font-size="10.00" fill="grey">&lt; void &gt;</text>
</g>
<!-- Node5&#45;&gt;Node1 -->
<g id="edge6_Node000001_Node000005" class="edge">
<title>Node5&#45;&gt;Node1</title>
<g id="a_edge6_Node000001_Node000005"><a xlink:title=" ">
<path fill="none" stroke="orange" stroke-dasharray="5,2" d="M440.52,-58.5C465.59,-58.5 492.14,-58.5 515.72,-58.5"/>
<polygon fill="orange" stroke="orange" points="440.25,-55 430.25,-58.5 440.25,-62 440.25,-55"/>
</a>
</g>
<text text-anchor="start" x="451" y="-64" font-family="Helvetica,sans-Serif" font-size="10.00" fill="grey">&lt; void &gt;</text>
</g>
<!-- Node6 -->
<g id="Node000006" class="node">
<title>Node6</title>
<g id="a_Node000006"><a xlink:href="classxronos_1_1sdk_1_1EventSource.html" target="_top" xlink:title="Interface implemented by reactor elements that can be used as triggers of reactions.">
<polygon fill="white" stroke="#666666" points="168,-56 0,-56 0,-37 168,-37 168,-56"/>
<text text-anchor="middle" x="84" y="-44" font-family="Helvetica,sans-Serif" font-size="10.00">xronos::sdk::EventSource&lt; T &gt;</text>
</a>
</g>
</g>
<!-- Node6&#45;&gt;Node5 -->
<g id="edge8_Node000005_Node000006" class="edge">
<title>Node6&#45;&gt;Node5</title>
<g id="a_edge8_Node000005_Node000006"><a xlink:title=" ">
<path fill="none" stroke="#63b8ff" d="M178.21,-50.87C202.93,-52.03 229.52,-53.27 253.9,-54.42"/>
<polygon fill="#63b8ff" stroke="#63b8ff" points="178.27,-47.37 168.12,-50.4 177.94,-54.36 178.27,-47.37"/>
</a>
</g>
</g>
</g>
</svg>
