<?xml version="1.0" encoding="UTF-8" standalone="no"?>
<!DOCTYPE svg PUBLIC "-//W3C//DTD SVG 1.1//EN"
 "http://www.w3.org/Graphics/SVG/1.1/DTD/svg11.dtd">
<!-- Generated by graphviz version 2.43.0 (0)
 -->
<!-- Title: xronos::sdk::Element Pages: 1 -->
<svg width="526pt" height="396pt"
 viewBox="0.00 0.00 526.00 396.00" xmlns="http://www.w3.org/2000/svg" xmlns:xlink="http://www.w3.org/1999/xlink">
<g id="graph0" class="graph" transform="scale(1 1) rotate(0) translate(4 392)">
<title>xronos::sdk::Element</title>
<!-- Node1 -->
<g id="Node000001" class="node">
<title>Node1</title>
<g id="a_Node000001"><a xlink:title="Base class for all reactor elements.">
<polygon fill="#999999" stroke="#666666" points="119,-197 0,-197 0,-178 119,-178 119,-197"/>
<text text-anchor="middle" x="59.5" y="-185" font-family="Helvetica,sans-Serif" font-size="10.00">xronos::sdk::Element</text>
</a>
</g>
</g>
<!-- Node2 -->
<g id="Node000002" class="node">
<title>Node2</title>
<g id="a_Node000002"><a xlink:href="classxronos_1_1sdk_1_1BaseReaction.html" target="_top" xlink:title="Base class for implementing reactions.">
<polygon fill="white" stroke="#666666" points="316,-388 170,-388 170,-369 316,-369 316,-388"/>
<text text-anchor="middle" x="243" y="-376" font-family="Helvetica,sans-Serif" font-size="10.00">xronos::sdk::BaseReaction</text>
</a>
</g>
</g>
<!-- Node1&#45;&gt;Node2 -->
<g id="edge1_Node000001_Node000002" class="edge">
<title>Node1&#45;&gt;Node2</title>
<g id="a_edge1_Node000001_Node000002"><a xlink:title=" ">
<path fill="none" stroke="#63b8ff" d="M65.42,-206.96C75.61,-243.07 102.56,-320.32 155,-359.5 160.08,-363.29 165.76,-366.36 171.72,-368.83"/>
<polygon fill="#63b8ff" stroke="#63b8ff" points="68.76,-205.91 62.79,-197.16 62,-207.73 68.76,-205.91"/>
</a>
</g>
</g>
<!-- Node4 -->
<g id="Node000004" class="node">
<title>Node4</title>
<g id="a_Node000004"><a xlink:href="classxronos_1_1sdk_1_1InputPort.html" target="_top" xlink:title="A reactor element for receiving messages from other reactors.">
<polygon fill="white" stroke="#666666" points="304.5,-350.5 181.5,-350.5 181.5,-320.5 304.5,-320.5 304.5,-350.5"/>
<text text-anchor="start" x="189.5" y="-338.5" font-family="Helvetica,sans-Serif" font-size="10.00">xronos::sdk::InputPort</text>
<text text-anchor="middle" x="243" y="-327.5" font-family="Helvetica,sans-Serif" font-size="10.00">&lt; T, Serializer &gt;</text>
</a>
</g>
</g>
<!-- Node1&#45;&gt;Node4 -->
<g id="edge3_Node000001_Node000004" class="edge">
<title>Node1&#45;&gt;Node4</title>
<g id="a_edge3_Node000001_Node000004"><a xlink:title=" ">
<path fill="none" stroke="#63b8ff" d="M69.68,-206.22C84.05,-233.55 114.46,-284.1 155,-311.5 162.92,-316.85 172,-321.02 181.25,-324.26"/>
<polygon fill="#63b8ff" stroke="#63b8ff" points="72.78,-204.61 65.12,-197.29 66.55,-207.79 72.78,-204.61"/>
</a>
</g>
</g>
<!-- Node5 -->
<g id="Node000005" class="node">
<title>Node5</title>
<g id="a_Node000005"><a xlink:href="classxronos_1_1sdk_1_1Metric.html" target="_top" xlink:title="A reactor element for recording metric data to an external data base.">
<polygon fill="white" stroke="#666666" points="298,-302 188,-302 188,-283 298,-283 298,-302"/>
<text text-anchor="middle" x="243" y="-290" font-family="Helvetica,sans-Serif" font-size="10.00">xronos::sdk::Metric</text>
</a>
</g>
</g>
<!-- Node1&#45;&gt;Node5 -->
<g id="edge4_Node000001_Node000005" class="edge">
<title>Node1&#45;&gt;Node5</title>
<g id="a_edge4_Node000001_Node000005"><a xlink:title=" ">
<path fill="none" stroke="#63b8ff" d="M74.81,-205.2C91.81,-224.99 122.03,-256.48 155,-273.5 165.03,-278.68 176.41,-282.45 187.56,-285.19"/>
<polygon fill="#63b8ff" stroke="#63b8ff" points="77.27,-202.69 68.17,-197.27 71.91,-207.19 77.27,-202.69"/>
</a>
</g>
</g>
<!-- Node6 -->
<g id="Node000006" class="node">
<title>Node6</title>
<g id="a_Node000006"><a xlink:href="classxronos_1_1sdk_1_1OutputPort.html" target="_top" xlink:title="A reactor element for sending messages to other reactors.">
<polygon fill="white" stroke="#666666" points="308.5,-264.5 177.5,-264.5 177.5,-234.5 308.5,-234.5 308.5,-264.5"/>
<text text-anchor="start" x="185.5" y="-252.5" font-family="Helvetica,sans-Serif" font-size="10.00">xronos::sdk::OutputPort</text>
<text text-anchor="middle" x="243" y="-241.5" font-family="Helvetica,sans-Serif" font-size="10.00">&lt; T, Serializer &gt;</text>
</a>
</g>
</g>
<!-- Node1&#45;&gt;Node6 -->
<g id="edge5_Node000001_Node000006" class="edge">
<title>Node1&#45;&gt;Node6</title>
<g id="a_edge5_Node000001_Node000006"><a xlink:title=" ">
<path fill="none" stroke="#63b8ff" d="M91.67,-201.07C109.93,-208.76 133.56,-218.26 155,-225.5 164.2,-228.61 174.05,-231.62 183.69,-234.4"/>
<polygon fill="#63b8ff" stroke="#63b8ff" points="92.96,-197.81 82.38,-197.12 90.22,-204.25 92.96,-197.81"/>
</a>
</g>
</g>
<!-- Node7 -->
<g id="Node000007" class="node">
<title>Node7</title>
<g id="a_Node000007"><a xlink:href="classxronos_1_1sdk_1_1PeriodicTimer.html" target="_top" xlink:title="A reactor element that emits events in regular intervals.">
<polygon fill="white" stroke="#666666" points="316,-216 170,-216 170,-197 316,-197 316,-216"/>
<text text-anchor="middle" x="243" y="-204" font-family="Helvetica,sans-Serif" font-size="10.00">xronos::sdk::PeriodicTimer</text>
</a>
</g>
</g>
<!-- Node1&#45;&gt;Node7 -->
<g id="edge6_Node000001_Node000007" class="edge">
<title>Node1&#45;&gt;Node7</title>
<g id="a_edge6_Node000001_Node000007"><a xlink:title=" ">
<path fill="none" stroke="#63b8ff" d="M129.19,-194.69C142.49,-196.08 156.46,-197.55 169.87,-198.95"/>
<polygon fill="#63b8ff" stroke="#63b8ff" points="129.49,-191.2 119.18,-193.64 128.76,-198.16 129.49,-191.2"/>
</a>
</g>
</g>
<!-- Node8 -->
<g id="Node000008" class="node">
<title>Node8</title>
<g id="a_Node000008"><a xlink:href="classxronos_1_1sdk_1_1PhysicalEvent.html" target="_top" xlink:title="A reactor element for receiving events from external sources.">
<polygon fill="white" stroke="#666666" points="331,-179 155,-179 155,-160 331,-160 331,-179"/>
<text text-anchor="middle" x="243" y="-167" font-family="Helvetica,sans-Serif" font-size="10.00">xronos::sdk::PhysicalEvent&lt; T &gt;</text>
</a>
</g>
</g>
<!-- Node1&#45;&gt;Node8 -->
<g id="edge7_Node000001_Node000008" class="edge">
<title>Node1&#45;&gt;Node8</title>
<g id="a_edge7_Node000001_Node000008"><a xlink:title=" ">
<path fill="none" stroke="#63b8ff" d="M129.23,-180.68C137.6,-179.85 146.23,-179 154.82,-178.15"/>
<polygon fill="#63b8ff" stroke="#63b8ff" points="128.78,-177.21 119.18,-181.68 129.47,-184.18 128.78,-177.21"/>
</a>
</g>
</g>
<!-- Node9 -->
<g id="Node000009" class="node">
<title>Node9</title>
<g id="a_Node000009"><a xlink:href="classxronos_1_1sdk_1_1ProgrammableTimer.html" target="_top" xlink:title="A reactor element for scheduling new events.">
<polygon fill="white" stroke="#666666" points="318.5,-141.5 167.5,-141.5 167.5,-111.5 318.5,-111.5 318.5,-141.5"/>
<text text-anchor="start" x="175.5" y="-129.5" font-family="Helvetica,sans-Serif" font-size="10.00">xronos::sdk::Programmable</text>
<text text-anchor="middle" x="243" y="-118.5" font-family="Helvetica,sans-Serif" font-size="10.00">Timer&lt; T &gt;</text>
</a>
</g>
</g>
<!-- Node1&#45;&gt;Node9 -->
<g id="edge8_Node000001_Node000009" class="edge">
<title>Node1&#45;&gt;Node9</title>
<g id="a_edge8_Node000001_Node000009"><a xlink:title=" ">
<path fill="none" stroke="#63b8ff" d="M93.48,-174.16C111.52,-167.05 134.34,-158.39 155,-151.5 165.29,-148.07 176.35,-144.67 187.02,-141.54"/>
<polygon fill="#63b8ff" stroke="#63b8ff" points="92,-170.98 83.99,-177.92 94.58,-177.48 92,-170.98"/>
</a>
</g>
</g>
<!-- Node10 -->
<g id="Node000010" class="node">
<title>Node10</title>
<g id="a_Node000010"><a xlink:href="classxronos_1_1sdk_1_1Reactor.html" target="_top" xlink:title="An abstract reactor that can be subclassed to define new reactors.">
<polygon fill="white" stroke="#666666" points="301,-93 185,-93 185,-74 301,-74 301,-93"/>
<text text-anchor="middle" x="243" y="-81" font-family="Helvetica,sans-Serif" font-size="10.00">xronos::sdk::Reactor</text>
</a>
</g>
</g>
<!-- Node1&#45;&gt;Node10 -->
<g id="edge9_Node000001_Node000010" class="edge">
<title>Node1&#45;&gt;Node10</title>
<g id="a_edge9_Node000001_Node000010"><a xlink:title=" ">
<path fill="none" stroke="#63b8ff" d="M74.86,-170.01C91.89,-150.46 122.16,-119.34 155,-102.5 164.22,-97.77 174.57,-94.22 184.83,-91.55"/>
<polygon fill="#63b8ff" stroke="#63b8ff" points="72.01,-167.96 68.2,-177.84 77.34,-172.49 72.01,-167.96"/>
</a>
</g>
</g>
<!-- Node11 -->
<g id="Node000011" class="node">
<title>Node11</title>
<g id="a_Node000011"><a xlink:href="classxronos_1_1sdk_1_1Shutdown.html" target="_top" xlink:title="A reactor element that emits an event right before the program shuts down.">
<polygon fill="white" stroke="#666666" points="306.5,-56 179.5,-56 179.5,-37 306.5,-37 306.5,-56"/>
<text text-anchor="middle" x="243" y="-44" font-family="Helvetica,sans-Serif" font-size="10.00">xronos::sdk::Shutdown</text>
</a>
</g>
</g>
<!-- Node1&#45;&gt;Node11 -->
<g id="edge10_Node000001_Node000011" class="edge">
<title>Node1&#45;&gt;Node11</title>
<g id="a_edge10_Node000001_Node000011"><a xlink:title=" ">
<path fill="none" stroke="#63b8ff" d="M69.76,-168.44C84.07,-141.11 114.23,-91.25 155,-65.5 162.32,-60.88 170.6,-57.37 179.07,-54.7"/>
<polygon fill="#63b8ff" stroke="#63b8ff" points="66.46,-167.21 65.06,-177.71 72.7,-170.37 66.46,-167.21"/>
</a>
</g>
</g>
<!-- Node12 -->
<g id="Node000012" class="node">
<title>Node12</title>
<g id="a_Node000012"><a xlink:href="classxronos_1_1sdk_1_1Startup.html" target="_top" xlink:title="A reactor element that emits an event when the program starts up.">
<polygon fill="white" stroke="#666666" points="300,-19 186,-19 186,0 300,0 300,-19"/>
<text text-anchor="middle" x="243" y="-7" font-family="Helvetica,sans-Serif" font-size="10.00">xronos::sdk::Startup</text>
</a>
</g>
</g>
<!-- Node1&#45;&gt;Node12 -->
<g id="edge11_Node000001_Node000012" class="edge">
<title>Node1&#45;&gt;Node12</title>
<g id="a_edge11_Node000001_Node000012"><a xlink:title=" ">
<path fill="none" stroke="#63b8ff" d="M66.33,-168.09C77.58,-134.11 105.65,-64.09 155,-28.5 164.03,-21.99 174.86,-17.64 185.77,-14.75"/>
<polygon fill="#63b8ff" stroke="#63b8ff" points="62.95,-167.17 63.26,-177.76 69.62,-169.29 62.95,-167.17"/>
</a>
</g>
</g>
<!-- Node3 -->
<g id="Node000003" class="node">
<title>Node3</title>
<g id="a_Node000003"><a xlink:href="classxronos_1_1sdk_1_1Reaction.html" target="_top" xlink:title="Reaction base class with reactor access.">
<polygon fill="white" stroke="#666666" points="518,-388 367,-388 367,-369 518,-369 518,-388"/>
<text text-anchor="middle" x="442.5" y="-376" font-family="Helvetica,sans-Serif" font-size="10.00">xronos::sdk::Reaction&lt; R &gt;</text>
</a>
</g>
</g>
<!-- Node2&#45;&gt;Node3 -->
<g id="edge2_Node000002_Node000003" class="edge">
<title>Node2&#45;&gt;Node3</title>
<g id="a_edge2_Node000002_Node000003"><a xlink:title=" ">
<path fill="none" stroke="#63b8ff" d="M326.33,-378.5C339.78,-378.5 353.65,-378.5 366.9,-378.5"/>
<polygon fill="#63b8ff" stroke="#63b8ff" points="326.14,-375 316.14,-378.5 326.14,-382 326.14,-375"/>
</a>
</g>
</g>
</g>
</svg>
