<?xml version="1.0" encoding="UTF-8" standalone="no"?>
<!DOCTYPE svg PUBLIC "-//W3C//DTD SVG 1.1//EN"
 "http://www.w3.org/Graphics/SVG/1.1/DTD/svg11.dtd">
<!-- Generated by graphviz version 2.43.0 (0)
 -->
<!-- Title: xronos::sdk::PhysicalEvent&lt; T &gt; Pages: 1 -->
<svg width="314pt" height="166pt"
 viewBox="0.00 0.00 313.50 166.00" xmlns="http://www.w3.org/2000/svg" xmlns:xlink="http://www.w3.org/1999/xlink">
<g id="graph0" class="graph" transform="scale(1 1) rotate(0) translate(4 162)">
<title>xronos::sdk::PhysicalEvent&lt; T &gt;</title>
<!-- Node1 -->
<g id="Node000001" class="node">
<title>Node1</title>
<g id="a_Node000001"><a xlink:title="A reactor element for receiving events from external sources.">
<polygon fill="#999999" stroke="#666666" points="228.5,-102 52.5,-102 52.5,-83 228.5,-83 228.5,-102"/>
<text text-anchor="middle" x="140.5" y="-90" font-family="Helvetica,sans-Serif" font-size="10.00">xronos::sdk::PhysicalEvent&lt; T &gt;</text>
</a>
</g>
</g>
<!-- Node4 -->
<g id="Node000004" class="node">
<title>Node4</title>
<g id="a_Node000004"><a xlink:href="classxronos_1_1sdk_1_1PhysicalEvent_3_01void_01_4.html" target="_top" xlink:title="A reactor element for receiving events from external sources.">
<polygon fill="white" stroke="#666666" points="214,-30 67,-30 67,0 214,0 214,-30"/>
<text text-anchor="start" x="75" y="-18" font-family="Helvetica,sans-Serif" font-size="10.00">xronos::sdk::PhysicalEvent</text>
<text text-anchor="middle" x="140.5" y="-7" font-family="Helvetica,sans-Serif" font-size="10.00">&lt; void &gt;</text>
</a>
</g>
</g>
<!-- Node1&#45;&gt;Node4 -->
<g id="edge3_Node000001_Node000004" class="edge">
<title>Node1&#45;&gt;Node4</title>
<g id="a_edge3_Node000001_Node000004"><a xlink:title=" ">
<path fill="none" stroke="orange" stroke-dasharray="5,2" d="M140.5,-72.57C140.5,-59.43 140.5,-42.18 140.5,-30.21"/>
<polygon fill="orange" stroke="orange" points="137,-72.84 140.5,-82.84 144,-72.84 137,-72.84"/>
</a>
</g>
<text text-anchor="start" x="143.5" y="-53.5" font-family="Helvetica,sans-Serif" font-size="10.00" fill="grey">&lt; void &gt;</text>
</g>
<!-- Node2 -->
<g id="Node000002" class="node">
<title>Node2</title>
<g id="a_Node000002"><a xlink:href="classxronos_1_1sdk_1_1Element.html" target="_top" xlink:title="Base class for all reactor elements.">
<polygon fill="white" stroke="#666666" points="119,-158 0,-158 0,-139 119,-139 119,-158"/>
<text text-anchor="middle" x="59.5" y="-146" font-family="Helvetica,sans-Serif" font-size="10.00">xronos::sdk::Element</text>
</a>
</g>
</g>
<!-- Node2&#45;&gt;Node1 -->
<g id="edge1_Node000001_Node000002" class="edge">
<title>Node2&#45;&gt;Node1</title>
<g id="a_edge1_Node000001_Node000002"><a xlink:title=" ">
<path fill="none" stroke="#63b8ff" d="M81.07,-133.12C95.86,-123.26 115.01,-110.49 127.52,-102.15"/>
<polygon fill="#63b8ff" stroke="#63b8ff" points="78.89,-130.36 72.51,-138.82 82.78,-136.19 78.89,-130.36"/>
</a>
</g>
</g>
<!-- Node3 -->
<g id="Node000003" class="node">
<title>Node3</title>
<g id="a_Node000003"><a xlink:href="classxronos_1_1sdk_1_1EventSource.html" target="_top" xlink:title="Interface implemented by reactor elements that can be used as triggers of reactions.">
<polygon fill="white" stroke="#666666" points="305.5,-158 137.5,-158 137.5,-139 305.5,-139 305.5,-158"/>
<text text-anchor="middle" x="221.5" y="-146" font-family="Helvetica,sans-Serif" font-size="10.00">xronos::sdk::EventSource&lt; T &gt;</text>
</a>
</g>
</g>
<!-- Node3&#45;&gt;Node1 -->
<g id="edge2_Node000001_Node000003" class="edge">
<title>Node3&#45;&gt;Node1</title>
<g id="a_edge2_Node000001_Node000003"><a xlink:title=" ">
<path fill="none" stroke="#63b8ff" d="M199.93,-133.12C185.14,-123.26 165.99,-110.49 153.48,-102.15"/>
<polygon fill="#63b8ff" stroke="#63b8ff" points="198.22,-136.19 208.49,-138.82 202.11,-130.36 198.22,-136.19"/>
</a>
</g>
</g>
</g>
</svg>
