<?xml version="1.0" encoding="UTF-8" standalone="no"?>
<!DOCTYPE svg PUBLIC "-//W3C//DTD SVG 1.1//EN"
 "http://www.w3.org/Graphics/SVG/1.1/DTD/svg11.dtd">
<!-- Generated by graphviz version 2.43.0 (0)
 -->
<!-- Title: xronos::sdk::EventSource&lt; T &gt; Pages: 1 -->
<svg width="684pt" height="366pt"
 viewBox="0.00 0.00 684.00 366.00" xmlns="http://www.w3.org/2000/svg" xmlns:xlink="http://www.w3.org/1999/xlink">
<g id="graph0" class="graph" transform="scale(1 1) rotate(0) translate(4 362)">
<title>xronos::sdk::EventSource&lt; T &gt;</title>
<!-- Node1 -->
<g id="Node000001" class="node">
<title>Node1</title>
<g id="a_Node000001"><a xlink:title="Interface implemented by reactor elements that can be used as triggers of reactions.">
<polygon fill="#999999" stroke="#666666" points="168,-162 0,-162 0,-143 168,-143 168,-162"/>
<text text-anchor="middle" x="84" y="-150" font-family="Helvetica,sans-Serif" font-size="10.00">xronos::sdk::EventSource&lt; T &gt;</text>
</a>
</g>
</g>
<!-- Node2 -->
<g id="Node000002" class="node">
<title>Node2</title>
<g id="a_Node000002"><a xlink:href="classxronos_1_1sdk_1_1PhysicalEvent.html" target="_top" xlink:title="A reactor element for receiving events from external sources.">
<polygon fill="white" stroke="#666666" points="430,-227 254,-227 254,-208 430,-208 430,-227"/>
<text text-anchor="middle" x="342" y="-215" font-family="Helvetica,sans-Serif" font-size="10.00">xronos::sdk::PhysicalEvent&lt; T &gt;</text>
</a>
</g>
</g>
<!-- Node1&#45;&gt;Node2 -->
<g id="edge1_Node000001_Node000002" class="edge">
<title>Node1&#45;&gt;Node2</title>
<g id="a_edge1_Node000001_Node000002"><a xlink:title=" ">
<path fill="none" stroke="#63b8ff" d="M132.29,-164.51C181.64,-177.04 258.01,-196.43 303.4,-207.95"/>
<polygon fill="#63b8ff" stroke="#63b8ff" points="133.05,-161.09 122.5,-162.02 131.33,-167.87 133.05,-161.09"/>
</a>
</g>
</g>
<!-- Node4 -->
<g id="Node000004" class="node">
<title>Node4</title>
<g id="a_Node000004"><a xlink:href="classxronos_1_1sdk_1_1Port.html" target="_top" xlink:title="Base class for reactor elements that may send or receive messages.">
<polygon fill="white" stroke="#666666" points="405.5,-305 278.5,-305 278.5,-286 405.5,-286 405.5,-305"/>
<text text-anchor="middle" x="342" y="-293" font-family="Helvetica,sans-Serif" font-size="10.00">xronos::sdk::Port&lt; T &gt;</text>
</a>
</g>
</g>
<!-- Node1&#45;&gt;Node4 -->
<g id="edge3_Node000001_Node000004" class="edge">
<title>Node1&#45;&gt;Node4</title>
<g id="a_edge3_Node000001_Node000004"><a xlink:title=" ">
<path fill="none" stroke="#63b8ff" d="M111.2,-167.14C163.61,-196.41 280.06,-261.46 323.88,-285.94"/>
<polygon fill="#63b8ff" stroke="#63b8ff" points="112.63,-163.93 102.19,-162.1 109.22,-170.04 112.63,-163.93"/>
</a>
</g>
</g>
<!-- Node8 -->
<g id="Node000008" class="node">
<title>Node8</title>
<g id="a_Node000008"><a xlink:href="classxronos_1_1sdk_1_1ProgrammableTimer.html" target="_top" xlink:title="A reactor element for scheduling new events.">
<polygon fill="white" stroke="#666666" points="417.5,-54.5 266.5,-54.5 266.5,-24.5 417.5,-24.5 417.5,-54.5"/>
<text text-anchor="start" x="274.5" y="-42.5" font-family="Helvetica,sans-Serif" font-size="10.00">xronos::sdk::Programmable</text>
<text text-anchor="middle" x="342" y="-31.5" font-family="Helvetica,sans-Serif" font-size="10.00">Timer&lt; T &gt;</text>
</a>
</g>
</g>
<!-- Node1&#45;&gt;Node8 -->
<g id="edge7_Node000001_Node000008" class="edge">
<title>Node1&#45;&gt;Node8</title>
<g id="a_edge7_Node000001_Node000008"><a xlink:title=" ">
<path fill="none" stroke="#63b8ff" d="M116.14,-138.75C164.38,-117.46 256.83,-76.65 306.84,-54.58"/>
<polygon fill="#63b8ff" stroke="#63b8ff" points="114.56,-135.63 106.83,-142.87 117.39,-142.03 114.56,-135.63"/>
</a>
</g>
</g>
<!-- Node10 -->
<g id="Node000010" class="node">
<title>Node10</title>
<g id="a_Node000010"><a xlink:href="classxronos_1_1sdk_1_1EventSource_3_01void_01_4.html" target="_top" xlink:title="Interface implemented by reactor elements that can be used as triggers of reactions.">
<polygon fill="white" stroke="#666666" points="412,-140.5 272,-140.5 272,-110.5 412,-110.5 412,-140.5"/>
<text text-anchor="start" x="280" y="-128.5" font-family="Helvetica,sans-Serif" font-size="10.00">xronos::sdk::EventSource</text>
<text text-anchor="middle" x="342" y="-117.5" font-family="Helvetica,sans-Serif" font-size="10.00">&lt; void &gt;</text>
</a>
</g>
</g>
<!-- Node1&#45;&gt;Node10 -->
<g id="edge9_Node000001_Node000010" class="edge">
<title>Node1&#45;&gt;Node10</title>
<g id="a_edge9_Node000001_Node000010"><a xlink:title=" ">
<path fill="none" stroke="orange" stroke-dasharray="5,2" d="M178.08,-142.68C209.12,-139.41 243.12,-135.82 271.99,-132.78"/>
<polygon fill="orange" stroke="orange" points="177.69,-139.2 168.12,-143.73 178.43,-146.17 177.69,-139.2"/>
</a>
</g>
<text text-anchor="start" x="189" y="-147" font-family="Helvetica,sans-Serif" font-size="10.00" fill="grey">&lt; void &gt;</text>
</g>
<!-- Node3 -->
<g id="Node000003" class="node">
<title>Node3</title>
<g id="a_Node000003"><a xlink:href="classxronos_1_1sdk_1_1PhysicalEvent_3_01void_01_4.html" target="_top" xlink:title="A reactor element for receiving events from external sources.">
<polygon fill="white" stroke="#666666" points="669.5,-190.5 522.5,-190.5 522.5,-160.5 669.5,-160.5 669.5,-190.5"/>
<text text-anchor="start" x="530.5" y="-178.5" font-family="Helvetica,sans-Serif" font-size="10.00">xronos::sdk::PhysicalEvent</text>
<text text-anchor="middle" x="596" y="-167.5" font-family="Helvetica,sans-Serif" font-size="10.00">&lt; void &gt;</text>
</a>
</g>
</g>
<!-- Node2&#45;&gt;Node3 -->
<g id="edge2_Node000002_Node000003" class="edge">
<title>Node2&#45;&gt;Node3</title>
<g id="a_edge2_Node000002_Node000003"><a xlink:title=" ">
<path fill="none" stroke="orange" stroke-dasharray="5,2" d="M410.18,-206.3C444.73,-200.54 486.89,-193.52 522.22,-187.63"/>
<polygon fill="orange" stroke="orange" points="409.47,-202.87 400.18,-207.97 410.62,-209.78 409.47,-202.87"/>
</a>
</g>
<text text-anchor="start" x="451" y="-205" font-family="Helvetica,sans-Serif" font-size="10.00" fill="grey">&lt; void &gt;</text>
</g>
<!-- Node5 -->
<g id="Node000005" class="node">
<title>Node5</title>
<g id="a_Node000005"><a xlink:href="classxronos_1_1sdk_1_1InputPort.html" target="_top" xlink:title="A reactor element for receiving messages from other reactors.">
<polygon fill="white" stroke="#666666" points="672,-321 520,-321 520,-302 672,-302 672,-321"/>
<text text-anchor="middle" x="596" y="-309" font-family="Helvetica,sans-Serif" font-size="10.00">xronos::sdk::InputPort&lt; T &gt;</text>
</a>
</g>
</g>
<!-- Node4&#45;&gt;Node5 -->
<g id="edge4_Node000004_Node000005" class="edge">
<title>Node4&#45;&gt;Node5</title>
<g id="a_edge4_Node000004_Node000005"><a xlink:title=" ">
<path fill="none" stroke="#63b8ff" d="M415.97,-300.13C448.52,-302.2 486.86,-304.63 519.68,-306.72"/>
<polygon fill="#63b8ff" stroke="#63b8ff" points="415.82,-296.62 405.62,-299.48 415.37,-303.6 415.82,-296.62"/>
</a>
</g>
</g>
<!-- Node6 -->
<g id="Node000006" class="node">
<title>Node6</title>
<g id="a_Node000006"><a xlink:href="classxronos_1_1sdk_1_1OutputPort.html" target="_top" xlink:title="A reactor element for sending messages to other reactors.">
<polygon fill="white" stroke="#666666" points="676,-358 516,-358 516,-339 676,-339 676,-358"/>
<text text-anchor="middle" x="596" y="-346" font-family="Helvetica,sans-Serif" font-size="10.00">xronos::sdk::OutputPort&lt; T &gt;</text>
</a>
</g>
</g>
<!-- Node4&#45;&gt;Node6 -->
<g id="edge5_Node000004_Node000006" class="edge">
<title>Node4&#45;&gt;Node6</title>
<g id="a_edge5_Node000004_Node000006"><a xlink:title=" ">
<path fill="none" stroke="#63b8ff" d="M398.31,-307.13C443.69,-316.68 507.16,-330.02 549.6,-338.95"/>
<polygon fill="#63b8ff" stroke="#63b8ff" points="398.85,-303.67 388.34,-305.04 397.41,-310.52 398.85,-303.67"/>
</a>
</g>
</g>
<!-- Node7 -->
<g id="Node000007" class="node">
<title>Node7</title>
<g id="a_Node000007"><a xlink:href="classxronos_1_1sdk_1_1Port_3_01void_01_4.html" target="_top" xlink:title="Base class for reactor elements that may send or receive messages.">
<polygon fill="white" stroke="#666666" points="649.5,-238.5 542.5,-238.5 542.5,-208.5 649.5,-208.5 649.5,-238.5"/>
<text text-anchor="start" x="550.5" y="-226.5" font-family="Helvetica,sans-Serif" font-size="10.00">xronos::sdk::Port&lt;</text>
<text text-anchor="middle" x="596" y="-215.5" font-family="Helvetica,sans-Serif" font-size="10.00"> void &gt;</text>
</a>
</g>
</g>
<!-- Node4&#45;&gt;Node7 -->
<g id="edge6_Node000004_Node000007" class="edge">
<title>Node4&#45;&gt;Node7</title>
<g id="a_edge6_Node000004_Node000007"><a xlink:title=" ">
<path fill="none" stroke="orange" stroke-dasharray="5,2" d="M386.1,-283.19C429.25,-270.86 495.71,-251.87 542.04,-238.63"/>
<polygon fill="orange" stroke="orange" points="385.12,-279.83 376.46,-285.94 387.04,-286.56 385.12,-279.83"/>
</a>
</g>
<text text-anchor="start" x="451" y="-269" font-family="Helvetica,sans-Serif" font-size="10.00" fill="grey">&lt; void &gt;</text>
</g>
<!-- Node9 -->
<g id="Node000009" class="node">
<title>Node9</title>
<g id="a_Node000009"><a xlink:href="classxronos_1_1sdk_1_1ProgrammableTimer_3_01void_01_4.html" target="_top" xlink:title="A reactor element for scheduling new events.">
<polygon fill="white" stroke="#666666" points="671.5,-67.5 520.5,-67.5 520.5,-37.5 671.5,-37.5 671.5,-67.5"/>
<text text-anchor="start" x="528.5" y="-55.5" font-family="Helvetica,sans-Serif" font-size="10.00">xronos::sdk::Programmable</text>
<text text-anchor="middle" x="596" y="-44.5" font-family="Helvetica,sans-Serif" font-size="10.00">Timer&lt; void &gt;</text>
</a>
</g>
</g>
<!-- Node8&#45;&gt;Node9 -->
<g id="edge8_Node000008_Node000009" class="edge">
<title>Node8&#45;&gt;Node9</title>
<g id="a_edge8_Node000008_Node000009"><a xlink:title=" ">
<path fill="none" stroke="orange" stroke-dasharray="5,2" d="M415.23,-22.83C441.38,-18.98 471.09,-17.13 498,-21.5 506.32,-22.85 507.98,-24.89 516,-27.5 525.99,-30.74 536.7,-34.17 546.92,-37.41"/>
<polygon fill="orange" stroke="orange" points="414.35,-19.43 405.03,-24.46 415.45,-26.34 414.35,-19.43"/>
</a>
</g>
<text text-anchor="start" x="451" y="-27" font-family="Helvetica,sans-Serif" font-size="10.00" fill="grey">&lt; void &gt;</text>
</g>
<!-- Node10&#45;&gt;Node3 -->
<g id="edge10_Node000010_Node000003" class="edge">
<title>Node10&#45;&gt;Node3</title>
<g id="a_edge10_Node000010_Node000003"><a xlink:title=" ">
<path fill="none" stroke="#63b8ff" d="M422.13,-134.88C462.98,-142.2 511.49,-152.11 546.71,-160.47"/>
<polygon fill="#63b8ff" stroke="#63b8ff" points="422.65,-131.42 412.19,-133.13 421.43,-138.31 422.65,-131.42"/>
</a>
</g>
</g>
<!-- Node10&#45;&gt;Node3 -->
<g id="edge14_Node000010_Node000003" class="edge">
<title>Node10&#45;&gt;Node3</title>
<g id="a_edge14_Node000010_Node000003"><a xlink:title=" ">
<path fill="none" stroke="#63b8ff" d="M401.14,-142.83C437.12,-151.09 483.61,-160.45 522.05,-167.21"/>
<polygon fill="#63b8ff" stroke="#63b8ff" points="401.82,-139.39 391.29,-140.53 400.23,-146.21 401.82,-139.39"/>
</a>
</g>
</g>
<!-- Node10&#45;&gt;Node7 -->
<g id="edge11_Node000010_Node000007" class="edge">
<title>Node10&#45;&gt;Node7</title>
<g id="a_edge11_Node000010_Node000007"><a xlink:title=" ">
<path fill="none" stroke="#63b8ff" d="M400.57,-144.75C415.88,-151.56 432.47,-159.03 448,-165.5 477.73,-177.88 485.47,-180.26 516,-190.5 533.8,-196.47 554.07,-202.62 569.62,-208.4"/>
<polygon fill="#63b8ff" stroke="#63b8ff" points="401.8,-141.46 391.24,-140.6 398.96,-147.86 401.8,-141.46"/>
</a>
</g>
</g>
<!-- Node10&#45;&gt;Node7 -->
<g id="edge15_Node000010_Node000007" class="edge">
<title>Node10&#45;&gt;Node7</title>
<g id="a_edge15_Node000010_Node000007"><a xlink:title=" ">
<path fill="none" stroke="#63b8ff" d="M368.96,-145.65C390.04,-157.62 420.66,-172.12 448,-183.5 477.73,-195.88 485.47,-198.26 516,-208.5 524.43,-211.33 533.4,-214.19 542.17,-216.78"/>
<polygon fill="#63b8ff" stroke="#63b8ff" points="370.65,-142.59 360.26,-140.51 367.09,-148.61 370.65,-142.59"/>
</a>
</g>
</g>
<!-- Node10&#45;&gt;Node9 -->
<g id="edge12_Node000010_Node000009" class="edge">
<title>Node10&#45;&gt;Node9</title>
<g id="a_edge12_Node000010_Node000009"><a xlink:title=" ">
<path fill="none" stroke="#63b8ff" d="M387.83,-107.21C424.91,-94.91 478.31,-79.14 521.6,-67.56"/>
<polygon fill="#63b8ff" stroke="#63b8ff" points="386.67,-103.91 378.3,-110.41 388.9,-110.54 386.67,-103.91"/>
</a>
</g>
</g>
<!-- Node10&#45;&gt;Node9 -->
<g id="edge16_Node000010_Node000009" class="edge">
<title>Node10&#45;&gt;Node9</title>
<g id="a_edge16_Node000010_Node000009"><a xlink:title=" ">
<path fill="none" stroke="#63b8ff" d="M421.89,-108.96C468.06,-96.48 524.1,-79.77 559.66,-67.6"/>
<polygon fill="#63b8ff" stroke="#63b8ff" points="420.95,-105.59 412.19,-111.55 422.76,-112.35 420.95,-105.59"/>
</a>
</g>
</g>
<!-- Node11 -->
<g id="Node000011" class="node">
<title>Node11</title>
<g id="a_Node000011"><a xlink:href="classxronos_1_1sdk_1_1PeriodicTimer.html" target="_top" xlink:title="A reactor element that emits events in regular intervals.">
<polygon fill="white" stroke="#666666" points="669,-105 523,-105 523,-86 669,-86 669,-105"/>
<text text-anchor="middle" x="596" y="-93" font-family="Helvetica,sans-Serif" font-size="10.00">xronos::sdk::PeriodicTimer</text>
</a>
</g>
</g>
<!-- Node10&#45;&gt;Node11 -->
<g id="edge13_Node000010_Node000011" class="edge">
<title>Node10&#45;&gt;Node11</title>
<g id="a_edge13_Node000010_Node000011"><a xlink:title=" ">
<path fill="none" stroke="#63b8ff" d="M422.46,-116.04C454.63,-112.21 491.5,-107.82 522.88,-104.09"/>
<polygon fill="#63b8ff" stroke="#63b8ff" points="421.71,-112.61 412.19,-117.26 422.54,-119.56 421.71,-112.61"/>
</a>
</g>
</g>
<!-- Node12 -->
<g id="Node000012" class="node">
<title>Node12</title>
<g id="a_Node000012"><a xlink:href="classxronos_1_1sdk_1_1Shutdown.html" target="_top" xlink:title="A reactor element that emits an event right before the program shuts down.">
<polygon fill="white" stroke="#666666" points="659.5,-19 532.5,-19 532.5,0 659.5,0 659.5,-19"/>
<text text-anchor="middle" x="596" y="-7" font-family="Helvetica,sans-Serif" font-size="10.00">xronos::sdk::Shutdown</text>
</a>
</g>
</g>
<!-- Node10&#45;&gt;Node12 -->
<g id="edge17_Node000010_Node000012" class="edge">
<title>Node10&#45;&gt;Node12</title>
<g id="a_edge17_Node000010_Node000012"><a xlink:title=" ">
<path fill="none" stroke="#63b8ff" d="M373.69,-104.85C407.31,-83.06 463.47,-49.09 516,-28.5 525.46,-24.79 535.84,-21.67 545.89,-19.09"/>
<polygon fill="#63b8ff" stroke="#63b8ff" points="371.68,-101.98 365.23,-110.38 375.52,-107.83 371.68,-101.98"/>
</a>
</g>
</g>
<!-- Node13 -->
<g id="Node000013" class="node">
<title>Node13</title>
<g id="a_Node000013"><a xlink:href="classxronos_1_1sdk_1_1Startup.html" target="_top" xlink:title="A reactor element that emits an event when the program starts up.">
<polygon fill="white" stroke="#666666" points="653,-142 539,-142 539,-123 653,-123 653,-142"/>
<text text-anchor="middle" x="596" y="-130" font-family="Helvetica,sans-Serif" font-size="10.00">xronos::sdk::Startup</text>
</a>
</g>
</g>
<!-- Node10&#45;&gt;Node13 -->
<g id="edge18_Node000010_Node000013" class="edge">
<title>Node10&#45;&gt;Node13</title>
<g id="a_edge18_Node000010_Node000013"><a xlink:title=" ">
<path fill="none" stroke="#63b8ff" d="M422.65,-127.71C460.36,-128.76 504.52,-129.99 538.69,-130.94"/>
<polygon fill="#63b8ff" stroke="#63b8ff" points="422.29,-124.2 412.19,-127.42 422.09,-131.2 422.29,-124.2"/>
</a>
</g>
</g>
</g>
</svg>
