<?xml version="1.0" encoding="UTF-8" standalone="no"?>
<!DOCTYPE svg PUBLIC "-//W3C//DTD SVG 1.1//EN"
 "http://www.w3.org/Graphics/SVG/1.1/DTD/svg11.dtd">
<!-- Generated by graphviz version 2.43.0 (0)
 -->
<!-- Title: xronos::sdk::Element Pages: 1 -->
<svg width="586pt" height="534pt"
 viewBox="0.00 0.00 586.00 534.03" xmlns="http://www.w3.org/2000/svg" xmlns:xlink="http://www.w3.org/1999/xlink">
<g id="graph0" class="graph" transform="scale(1 1) rotate(0) translate(4 530.03)">
<title>xronos::sdk::Element</title>
<!-- Node1 -->
<g id="Node000001" class="node">
<title>Node1</title>
<g id="a_Node000001"><a xlink:title="Base class for all reactor elements.">
<polygon fill="#999999" stroke="#666666" points="119,-299 0,-299 0,-280 119,-280 119,-299"/>
<text text-anchor="middle" x="59.5" y="-287" font-family="Helvetica,sans-Serif" font-size="10.00">xronos::sdk::Element</text>
</a>
</g>
</g>
<!-- Node2 -->
<g id="Node000002" class="node">
<title>Node2</title>
<g id="a_Node000002"><a xlink:href="classxronos_1_1sdk_1_1PhysicalEvent_3_01void_01_4.html" target="_top" xlink:title="A reactor element for receiving events from external sources.">
<polygon fill="white" stroke="#666666" points="571.5,-516.5 424.5,-516.5 424.5,-486.5 571.5,-486.5 571.5,-516.5"/>
<text text-anchor="start" x="432.5" y="-504.5" font-family="Helvetica,sans-Serif" font-size="10.00">xronos::sdk::PhysicalEvent</text>
<text text-anchor="middle" x="498" y="-493.5" font-family="Helvetica,sans-Serif" font-size="10.00">&lt; void &gt;</text>
</a>
</g>
</g>
<!-- Node1&#45;&gt;Node2 -->
<g id="edge1_Node000001_Node000002" class="edge">
<title>Node1&#45;&gt;Node2</title>
<g id="a_edge1_Node000001_Node000002"><a xlink:title=" ">
<path fill="none" stroke="#63b8ff" d="M64.9,-309.11C73.73,-347.35 98,-430.02 156,-464.5 237.95,-513.22 351.18,-511.85 424.25,-506.28"/>
<polygon fill="#63b8ff" stroke="#63b8ff" points="68.28,-308.19 62.71,-299.17 61.44,-309.69 68.28,-308.19"/>
</a>
</g>
</g>
<!-- Node1&#45;&gt;Node2 -->
<g id="edge10_Node000001_Node000002" class="edge">
<title>Node1&#45;&gt;Node2</title>
<g id="a_edge10_Node000001_Node000002"><a xlink:title=" ">
<path fill="none" stroke="#63b8ff" d="M62.97,-309.39C69.86,-351.01 93.09,-445.1 156,-482.5 246.37,-536.23 374.79,-529.04 445.44,-516.52"/>
<polygon fill="#63b8ff" stroke="#63b8ff" points="66.41,-308.72 61.47,-299.34 59.49,-309.75 66.41,-308.72"/>
</a>
</g>
</g>
<!-- Node3 -->
<g id="Node000003" class="node">
<title>Node3</title>
<g id="a_Node000003"><a xlink:href="classxronos_1_1sdk_1_1Port_3_01void_01_4.html" target="_top" xlink:title="Base class for reactor elements that may send or receive messages.">
<polygon fill="white" stroke="#666666" points="551.5,-425.5 444.5,-425.5 444.5,-395.5 551.5,-395.5 551.5,-425.5"/>
<text text-anchor="start" x="452.5" y="-413.5" font-family="Helvetica,sans-Serif" font-size="10.00">xronos::sdk::Port&lt;</text>
<text text-anchor="middle" x="498" y="-402.5" font-family="Helvetica,sans-Serif" font-size="10.00"> void &gt;</text>
</a>
</g>
</g>
<!-- Node1&#45;&gt;Node3 -->
<g id="edge2_Node000001_Node000003" class="edge">
<title>Node1&#45;&gt;Node3</title>
<g id="a_edge2_Node000001_Node000003"><a xlink:title=" ">
<path fill="none" stroke="#63b8ff" d="M87.46,-305.31C105.63,-318.53 130.79,-336.31 156,-346.5 252.74,-385.6 375.51,-396.96 444.23,-403.05"/>
<polygon fill="#63b8ff" stroke="#63b8ff" points="89.28,-302.3 79.14,-299.23 85.15,-307.95 89.28,-302.3"/>
</a>
</g>
</g>
<!-- Node1&#45;&gt;Node3 -->
<g id="edge15_Node000001_Node000003" class="edge">
<title>Node1&#45;&gt;Node3</title>
<g id="a_edge15_Node000001_Node000003"><a xlink:title=" ">
<path fill="none" stroke="#63b8ff" d="M72.75,-306.71C89.97,-324.73 122.94,-351.14 156,-364.5 252.74,-403.6 375.51,-414.96 444.23,-415.39"/>
<polygon fill="#63b8ff" stroke="#63b8ff" points="75.26,-304.26 66,-299.1 70.02,-308.91 75.26,-304.26"/>
</a>
</g>
</g>
<!-- Node4 -->
<g id="Node000004" class="node">
<title>Node4</title>
<g id="a_Node000004"><a xlink:href="classxronos_1_1sdk_1_1ProgrammableTimer_3_01void_01_4.html" target="_top" xlink:title="A reactor element for scheduling new events.">
<polygon fill="white" stroke="#666666" points="573.5,-283.5 422.5,-283.5 422.5,-253.5 573.5,-253.5 573.5,-283.5"/>
<text text-anchor="start" x="430.5" y="-271.5" font-family="Helvetica,sans-Serif" font-size="10.00">xronos::sdk::Programmable</text>
<text text-anchor="middle" x="498" y="-260.5" font-family="Helvetica,sans-Serif" font-size="10.00">Timer&lt; void &gt;</text>
</a>
</g>
</g>
<!-- Node1&#45;&gt;Node4 -->
<g id="edge3_Node000001_Node000004" class="edge">
<title>Node1&#45;&gt;Node4</title>
<g id="a_edge3_Node000001_Node000004"><a xlink:title=" ">
<path fill="none" stroke="#63b8ff" d="M129.8,-281.07C209.62,-275.07 340.26,-268.74 422.29,-266.86"/>
<polygon fill="#63b8ff" stroke="#63b8ff" points="129.07,-277.62 119.37,-281.88 129.61,-284.6 129.07,-277.62"/>
</a>
</g>
</g>
<!-- Node1&#45;&gt;Node4 -->
<g id="edge18_Node000001_Node000004" class="edge">
<title>Node1&#45;&gt;Node4</title>
<g id="a_edge18_Node000001_Node000004"><a xlink:title=" ">
<path fill="none" stroke="#63b8ff" d="M129.8,-291.26C209.62,-289.58 340.26,-283.34 422.29,-277.33"/>
<polygon fill="#63b8ff" stroke="#63b8ff" points="129.3,-287.77 119.37,-291.46 129.43,-294.77 129.3,-287.77"/>
</a>
</g>
</g>
<!-- Node5 -->
<g id="Node000005" class="node">
<title>Node5</title>
<g id="a_Node000005"><a xlink:href="classxronos_1_1sdk_1_1BaseReaction.html" target="_top" xlink:title="Base class for implementing reactions.">
<polygon fill="white" stroke="#666666" points="317,-204 171,-204 171,-185 317,-185 317,-204"/>
<text text-anchor="middle" x="244" y="-192" font-family="Helvetica,sans-Serif" font-size="10.00">xronos::sdk::BaseReaction</text>
</a>
</g>
</g>
<!-- Node1&#45;&gt;Node5 -->
<g id="edge4_Node000001_Node000005" class="edge">
<title>Node1&#45;&gt;Node5</title>
<g id="a_edge4_Node000001_Node000005"><a xlink:title=" ">
<path fill="none" stroke="#63b8ff" d="M76.79,-272.58C94.61,-255.09 124.8,-228.33 156,-213.5 164.1,-209.65 172.99,-206.57 181.91,-204.11"/>
<polygon fill="#63b8ff" stroke="#63b8ff" points="74.09,-270.32 69.52,-279.88 79.06,-275.26 74.09,-270.32"/>
</a>
</g>
</g>
<!-- Node7 -->
<g id="Node000007" class="node">
<title>Node7</title>
<g id="a_Node000007"><a xlink:href="classxronos_1_1sdk_1_1Metric.html" target="_top" xlink:title="A reactor element for recording metric data to an external data base.">
<polygon fill="white" stroke="#666666" points="299,-167 189,-167 189,-148 299,-148 299,-167"/>
<text text-anchor="middle" x="244" y="-155" font-family="Helvetica,sans-Serif" font-size="10.00">xronos::sdk::Metric</text>
</a>
</g>
</g>
<!-- Node1&#45;&gt;Node7 -->
<g id="edge6_Node000001_Node000007" class="edge">
<title>Node1&#45;&gt;Node7</title>
<g id="a_edge6_Node000001_Node000007"><a xlink:title=" ">
<path fill="none" stroke="#63b8ff" d="M70.73,-271.09C85.88,-245.62 116.78,-200.12 156,-176.5 165.93,-170.52 177.51,-166.41 188.92,-163.59"/>
<polygon fill="#63b8ff" stroke="#63b8ff" points="67.68,-269.37 65.71,-279.78 73.74,-272.87 67.68,-269.37"/>
</a>
</g>
</g>
<!-- Node8 -->
<g id="Node000008" class="node">
<title>Node8</title>
<g id="a_Node000008"><a xlink:href="classxronos_1_1sdk_1_1PeriodicTimer.html" target="_top" xlink:title="A reactor element that emits events in regular intervals.">
<polygon fill="white" stroke="#666666" points="317,-130 171,-130 171,-111 317,-111 317,-130"/>
<text text-anchor="middle" x="244" y="-118" font-family="Helvetica,sans-Serif" font-size="10.00">xronos::sdk::PeriodicTimer</text>
</a>
</g>
</g>
<!-- Node1&#45;&gt;Node8 -->
<g id="edge7_Node000001_Node000008" class="edge">
<title>Node1&#45;&gt;Node8</title>
<g id="a_edge7_Node000001_Node000008"><a xlink:title=" ">
<path fill="none" stroke="#63b8ff" d="M67.11,-270.29C79.28,-237.89 108.47,-172.68 156,-139.5 161.45,-135.69 167.53,-132.63 173.86,-130.17"/>
<polygon fill="#63b8ff" stroke="#63b8ff" points="63.73,-269.33 63.63,-279.92 70.31,-271.71 63.73,-269.33"/>
</a>
</g>
</g>
<!-- Node9 -->
<g id="Node000009" class="node">
<title>Node9</title>
<g id="a_Node000009"><a xlink:href="classxronos_1_1sdk_1_1PhysicalEvent.html" target="_top" xlink:title="A reactor element for receiving events from external sources.">
<polygon fill="white" stroke="#666666" points="332,-464 156,-464 156,-445 332,-445 332,-464"/>
<text text-anchor="middle" x="244" y="-452" font-family="Helvetica,sans-Serif" font-size="10.00">xronos::sdk::PhysicalEvent&lt; T &gt;</text>
</a>
</g>
</g>
<!-- Node1&#45;&gt;Node9 -->
<g id="edge8_Node000001_Node000009" class="edge">
<title>Node1&#45;&gt;Node9</title>
<g id="a_edge8_Node000001_Node000009"><a xlink:title=" ">
<path fill="none" stroke="#63b8ff" d="M65.5,-309.16C74.42,-340.02 96.07,-399.5 137,-430.5 145.27,-436.77 154.88,-441.45 164.88,-444.93"/>
<polygon fill="#63b8ff" stroke="#63b8ff" points="68.79,-307.92 62.78,-299.19 62.04,-309.76 68.79,-307.92"/>
</a>
</g>
</g>
<!-- Node10 -->
<g id="Node000010" class="node">
<title>Node10</title>
<g id="a_Node000010"><a xlink:href="classxronos_1_1sdk_1_1Port.html" target="_top" xlink:title="Base class for reactor elements that may send or receive messages.">
<polygon fill="white" stroke="#666666" points="307.5,-346 180.5,-346 180.5,-327 307.5,-327 307.5,-346"/>
<text text-anchor="middle" x="244" y="-334" font-family="Helvetica,sans-Serif" font-size="10.00">xronos::sdk::Port&lt; T &gt;</text>
</a>
</g>
</g>
<!-- Node1&#45;&gt;Node10 -->
<g id="edge11_Node000001_Node000010" class="edge">
<title>Node1&#45;&gt;Node10</title>
<g id="a_edge11_Node000001_Node000010"><a xlink:title=" ">
<path fill="none" stroke="#63b8ff" d="M100.12,-301.98C111.94,-305.55 124.95,-309.33 137,-312.5 156.8,-317.71 178.86,-322.82 197.7,-326.97"/>
<polygon fill="#63b8ff" stroke="#63b8ff" points="101.11,-298.62 90.52,-299.05 99.06,-305.32 101.11,-298.62"/>
</a>
</g>
</g>
<!-- Node13 -->
<g id="Node000013" class="node">
<title>Node13</title>
<g id="a_Node000013"><a xlink:href="classxronos_1_1sdk_1_1ProgrammableTimer.html" target="_top" xlink:title="A reactor element for scheduling new events.">
<polygon fill="white" stroke="#666666" points="319.5,-252.5 168.5,-252.5 168.5,-222.5 319.5,-222.5 319.5,-252.5"/>
<text text-anchor="start" x="176.5" y="-240.5" font-family="Helvetica,sans-Serif" font-size="10.00">xronos::sdk::Programmable</text>
<text text-anchor="middle" x="244" y="-229.5" font-family="Helvetica,sans-Serif" font-size="10.00">Timer&lt; T &gt;</text>
</a>
</g>
</g>
<!-- Node1&#45;&gt;Node13 -->
<g id="edge16_Node000001_Node000013" class="edge">
<title>Node1&#45;&gt;Node13</title>
<g id="a_edge16_Node000001_Node000013"><a xlink:title=" ">
<path fill="none" stroke="#63b8ff" d="M101.49,-276.97C112.96,-273.52 125.45,-269.81 137,-266.5 153.23,-261.84 170.91,-256.94 187.09,-252.52"/>
<polygon fill="#63b8ff" stroke="#63b8ff" points="100.27,-273.68 91.71,-279.92 102.3,-280.38 100.27,-273.68"/>
</a>
</g>
</g>
<!-- Node14 -->
<g id="Node000014" class="node">
<title>Node14</title>
<g id="a_Node000014"><a xlink:href="classxronos_1_1sdk_1_1Reactor.html" target="_top" xlink:title="An abstract reactor that can be subclassed to define new reactors.">
<polygon fill="white" stroke="#666666" points="302,-93 186,-93 186,-74 302,-74 302,-93"/>
<text text-anchor="middle" x="244" y="-81" font-family="Helvetica,sans-Serif" font-size="10.00">xronos::sdk::Reactor</text>
</a>
</g>
</g>
<!-- Node1&#45;&gt;Node14 -->
<g id="edge19_Node000001_Node000014" class="edge">
<title>Node1&#45;&gt;Node14</title>
<g id="a_edge19_Node000001_Node000014"><a xlink:title=" ">
<path fill="none" stroke="#63b8ff" d="M64.63,-269.97C73.82,-231.49 99.77,-145.85 156,-102.5 164.69,-95.8 175.26,-91.35 185.98,-88.43"/>
<polygon fill="#63b8ff" stroke="#63b8ff" points="61.17,-269.37 62.38,-279.9 68,-270.92 61.17,-269.37"/>
</a>
</g>
</g>
<!-- Node15 -->
<g id="Node000015" class="node">
<title>Node15</title>
<g id="a_Node000015"><a xlink:href="classxronos_1_1sdk_1_1Shutdown.html" target="_top" xlink:title="A reactor element that emits an event right before the program shuts down.">
<polygon fill="white" stroke="#666666" points="307.5,-56 180.5,-56 180.5,-37 307.5,-37 307.5,-56"/>
<text text-anchor="middle" x="244" y="-44" font-family="Helvetica,sans-Serif" font-size="10.00">xronos::sdk::Shutdown</text>
</a>
</g>
</g>
<!-- Node1&#45;&gt;Node15 -->
<g id="edge20_Node000001_Node000015" class="edge">
<title>Node1&#45;&gt;Node15</title>
<g id="a_edge20_Node000001_Node000015"><a xlink:title=" ">
<path fill="none" stroke="#63b8ff" d="M62.9,-269.52C69.3,-225.4 90.99,-119.31 156,-65.5 163.03,-59.68 171.44,-55.54 180.22,-52.61"/>
<polygon fill="#63b8ff" stroke="#63b8ff" points="59.41,-269.18 61.55,-279.56 66.35,-270.11 59.41,-269.18"/>
</a>
</g>
</g>
<!-- Node16 -->
<g id="Node000016" class="node">
<title>Node16</title>
<g id="a_Node000016"><a xlink:href="classxronos_1_1sdk_1_1Startup.html" target="_top" xlink:title="A reactor element that emits an event when the program starts up.">
<polygon fill="white" stroke="#666666" points="301,-19 187,-19 187,0 301,0 301,-19"/>
<text text-anchor="middle" x="244" y="-7" font-family="Helvetica,sans-Serif" font-size="10.00">xronos::sdk::Startup</text>
</a>
</g>
</g>
<!-- Node1&#45;&gt;Node16 -->
<g id="edge21_Node000001_Node000016" class="edge">
<title>Node1&#45;&gt;Node16</title>
<g id="a_edge21_Node000001_Node000016"><a xlink:title=" ">
<path fill="none" stroke="#63b8ff" d="M61.46,-269.55C64.97,-220.26 81.2,-92.09 156,-27.5 164.64,-20.04 175.55,-15.39 186.71,-12.55"/>
<polygon fill="#63b8ff" stroke="#63b8ff" points="57.95,-269.61 60.84,-279.81 64.94,-270.04 57.95,-269.61"/>
</a>
</g>
</g>
<!-- Node6 -->
<g id="Node000006" class="node">
<title>Node6</title>
<g id="a_Node000006"><a xlink:href="classxronos_1_1sdk_1_1Reaction.html" target="_top" xlink:title="Reaction base class with reactor access.">
<polygon fill="white" stroke="#666666" points="573.5,-204 422.5,-204 422.5,-185 573.5,-185 573.5,-204"/>
<text text-anchor="middle" x="498" y="-192" font-family="Helvetica,sans-Serif" font-size="10.00">xronos::sdk::Reaction&lt; R &gt;</text>
</a>
</g>
</g>
<!-- Node5&#45;&gt;Node6 -->
<g id="edge5_Node000005_Node000006" class="edge">
<title>Node5&#45;&gt;Node6</title>
<g id="a_edge5_Node000005_Node000006"><a xlink:title=" ">
<path fill="none" stroke="#63b8ff" d="M327.4,-194.5C357.92,-194.5 392.33,-194.5 422.15,-194.5"/>
<polygon fill="#63b8ff" stroke="#63b8ff" points="327.21,-191 317.21,-194.5 327.21,-198 327.21,-191"/>
</a>
</g>
</g>
<!-- Node9&#45;&gt;Node2 -->
<g id="edge9_Node000009_Node000002" class="edge">
<title>Node9&#45;&gt;Node2</title>
<g id="a_edge9_Node000009_Node000002"><a xlink:title=" ">
<path fill="none" stroke="orange" stroke-dasharray="5,2" d="M342.21,-453.74C361.52,-455.03 381.52,-457.4 400,-461.5 423.65,-466.74 448.91,-477.33 467.72,-486.3"/>
<polygon fill="orange" stroke="orange" points="342.37,-450.24 332.19,-453.16 341.97,-457.23 342.37,-450.24"/>
</a>
</g>
<text text-anchor="start" x="353" y="-467" font-family="Helvetica,sans-Serif" font-size="10.00" fill="grey">&lt; void &gt;</text>
</g>
<!-- Node10&#45;&gt;Node3 -->
<g id="edge14_Node000010_Node000003" class="edge">
<title>Node10&#45;&gt;Node3</title>
<g id="a_edge14_Node000010_Node000003"><a xlink:title=" ">
<path fill="none" stroke="orange" stroke-dasharray="5,2" d="M309.51,-348.02C337.61,-353.71 370.73,-361.33 400,-370.5 421.9,-377.36 445.74,-387.16 464.31,-395.34"/>
<polygon fill="orange" stroke="orange" points="309.9,-344.53 299.41,-346.01 308.53,-351.39 309.9,-344.53"/>
</a>
</g>
<text text-anchor="start" x="353" y="-376" font-family="Helvetica,sans-Serif" font-size="10.00" fill="grey">&lt; void &gt;</text>
</g>
<!-- Node11 -->
<g id="Node000011" class="node">
<title>Node11</title>
<g id="a_Node000011"><a xlink:href="classxronos_1_1sdk_1_1InputPort.html" target="_top" xlink:title="A reactor element for receiving messages from other reactors.">
<polygon fill="white" stroke="#666666" points="574,-358 422,-358 422,-339 574,-339 574,-358"/>
<text text-anchor="middle" x="498" y="-346" font-family="Helvetica,sans-Serif" font-size="10.00">xronos::sdk::InputPort&lt; T &gt;</text>
</a>
</g>
</g>
<!-- Node10&#45;&gt;Node11 -->
<g id="edge12_Node000010_Node000011" class="edge">
<title>Node10&#45;&gt;Node11</title>
<g id="a_edge12_Node000010_Node000011"><a xlink:title=" ">
<path fill="none" stroke="#63b8ff" d="M317.97,-339.97C350.52,-341.52 388.86,-343.35 421.68,-344.91"/>
<polygon fill="#63b8ff" stroke="#63b8ff" points="317.77,-336.46 307.62,-339.48 317.44,-343.45 317.77,-336.46"/>
</a>
</g>
</g>
<!-- Node12 -->
<g id="Node000012" class="node">
<title>Node12</title>
<g id="a_Node000012"><a xlink:href="classxronos_1_1sdk_1_1OutputPort.html" target="_top" xlink:title="A reactor element for sending messages to other reactors.">
<polygon fill="white" stroke="#666666" points="578,-321 418,-321 418,-302 578,-302 578,-321"/>
<text text-anchor="middle" x="498" y="-309" font-family="Helvetica,sans-Serif" font-size="10.00">xronos::sdk::OutputPort&lt; T &gt;</text>
</a>
</g>
</g>
<!-- Node10&#45;&gt;Node12 -->
<g id="edge13_Node000010_Node000012" class="edge">
<title>Node10&#45;&gt;Node12</title>
<g id="a_edge13_Node000010_Node000012"><a xlink:title=" ">
<path fill="none" stroke="#63b8ff" d="M317.61,-329.3C349.03,-326.18 385.88,-322.52 417.98,-319.34"/>
<polygon fill="#63b8ff" stroke="#63b8ff" points="317.22,-325.82 307.62,-330.29 317.91,-332.78 317.22,-325.82"/>
</a>
</g>
</g>
<!-- Node13&#45;&gt;Node4 -->
<g id="edge17_Node000013_Node000004" class="edge">
<title>Node13&#45;&gt;Node4</title>
<g id="a_edge17_Node000013_Node000004"><a xlink:title=" ">
<path fill="none" stroke="orange" stroke-dasharray="5,2" d="M329.89,-232.78C352.76,-232.79 377.42,-233.98 400,-237.5 420.09,-240.63 441.7,-247.21 459.42,-253.5"/>
<polygon fill="orange" stroke="orange" points="329.84,-229.28 319.86,-232.85 329.89,-236.28 329.84,-229.28"/>
</a>
</g>
<text text-anchor="start" x="353" y="-243" font-family="Helvetica,sans-Serif" font-size="10.00" fill="grey">&lt; void &gt;</text>
</g>
</g>
</svg>
