<?xml version="1.0" encoding="UTF-8" standalone="no"?>
<!DOCTYPE svg PUBLIC "-//W3C//DTD SVG 1.1//EN"
 "http://www.w3.org/Graphics/SVG/1.1/DTD/svg11.dtd">
<!-- Generated by graphviz version 2.43.0 (0)
 -->
<!-- Title: xronos::sdk::ProgrammableTimer&lt; void &gt; Pages: 1 -->
<svg width="650pt" height="133pt"
 viewBox="0.00 0.00 650.00 132.50" xmlns="http://www.w3.org/2000/svg" xmlns:xlink="http://www.w3.org/1999/xlink">
<g id="graph0" class="graph" transform="scale(1 1) rotate(0) translate(4 128.5)">
<title>xronos::sdk::ProgrammableTimer&lt; void &gt;</title>
<!-- Node1 -->
<g id="Node000001" class="node">
<title>Node1</title>
<g id="a_Node000001"><a xlink:title="A reactor element for scheduling new events.">
<polygon fill="#999999" stroke="#666666" points="642,-78 491,-78 491,-48 642,-48 642,-78"/>
<text text-anchor="start" x="499" y="-66" font-family="Helvetica,sans-Serif" font-size="10.00">xronos::sdk::Programmable</text>
<text text-anchor="middle" x="566.5" y="-55" font-family="Helvetica,sans-Serif" font-size="10.00">Timer&lt; void &gt;</text>
</a>
</g>
</g>
<!-- Node2 -->
<g id="Node000002" class="node">
<title>Node2</title>
<g id="a_Node000002"><a xlink:href="classxronos_1_1sdk_1_1Element.html" target="_top" xlink:title="Base class for all reactor elements.">
<polygon fill="white" stroke="#666666" points="143.5,-124.5 24.5,-124.5 24.5,-105.5 143.5,-105.5 143.5,-124.5"/>
<text text-anchor="middle" x="84" y="-112.5" font-family="Helvetica,sans-Serif" font-size="10.00">xronos::sdk::Element</text>
</a>
</g>
</g>
<!-- Node2&#45;&gt;Node1 -->
<g id="edge1_Node000001_Node000002" class="edge">
<title>Node2&#45;&gt;Node1</title>
<g id="a_edge1_Node000001_Node000002"><a xlink:title=" ">
<path fill="none" stroke="#63b8ff" d="M153.97,-105.94C231.82,-99.94 362.08,-91.93 473,-75 478.86,-74.11 484.9,-73.05 490.96,-71.91"/>
<polygon fill="#63b8ff" stroke="#63b8ff" points="153.5,-102.46 143.8,-106.73 154.05,-109.44 153.5,-102.46"/>
</a>
</g>
</g>
<!-- Node2&#45;&gt;Node1 -->
<g id="edge4_Node000001_Node000002" class="edge">
<title>Node2&#45;&gt;Node1</title>
<g id="a_edge4_Node000001_Node000002"><a xlink:title=" ">
<path fill="none" stroke="#63b8ff" d="M153.97,-119.02C231.82,-117.94 362.08,-109.93 473,-93 494.98,-89.65 519.5,-83.99 537.77,-78.07"/>
<polygon fill="#63b8ff" stroke="#63b8ff" points="153.77,-115.53 143.8,-119.13 153.84,-122.52 153.77,-115.53"/>
</a>
</g>
</g>
<!-- Node5 -->
<g id="Node000005" class="node">
<title>Node5</title>
<g id="a_Node000005"><a xlink:href="classxronos_1_1sdk_1_1ProgrammableTimer.html" target="_top" xlink:title="A reactor element for scheduling new events.">
<polygon fill="white" stroke="#666666" points="405,-78 254,-78 254,-48 405,-48 405,-78"/>
<text text-anchor="start" x="262" y="-66" font-family="Helvetica,sans-Serif" font-size="10.00">xronos::sdk::Programmable</text>
<text text-anchor="middle" x="329.5" y="-55" font-family="Helvetica,sans-Serif" font-size="10.00">Timer&lt; T &gt;</text>
</a>
</g>
</g>
<!-- Node2&#45;&gt;Node5 -->
<g id="edge7_Node000005_Node000002" class="edge">
<title>Node2&#45;&gt;Node5</title>
<g id="a_edge7_Node000005_Node000002"><a xlink:title=" ">
<path fill="none" stroke="#63b8ff" d="M139.67,-103.33C174.58,-95.87 220.18,-86.13 257.83,-78.09"/>
<polygon fill="#63b8ff" stroke="#63b8ff" points="138.71,-99.95 129.66,-105.46 140.17,-106.8 138.71,-99.95"/>
</a>
</g>
</g>
<!-- Node3 -->
<g id="Node000003" class="node">
<title>Node3</title>
<g id="a_Node000003"><a xlink:href="classxronos_1_1sdk_1_1EventSource_3_01void_01_4.html" target="_top" xlink:title="Interface implemented by reactor elements that can be used as triggers of reactions.">
<polygon fill="white" stroke="#666666" points="399.5,-30 259.5,-30 259.5,0 399.5,0 399.5,-30"/>
<text text-anchor="start" x="267.5" y="-18" font-family="Helvetica,sans-Serif" font-size="10.00">xronos::sdk::EventSource</text>
<text text-anchor="middle" x="329.5" y="-7" font-family="Helvetica,sans-Serif" font-size="10.00">&lt; void &gt;</text>
</a>
</g>
</g>
<!-- Node3&#45;&gt;Node1 -->
<g id="edge2_Node000001_Node000003" class="edge">
<title>Node3&#45;&gt;Node1</title>
<g id="a_edge2_Node000001_Node000003"><a xlink:title=" ">
<path fill="none" stroke="#63b8ff" d="M409.79,-24.77C445.97,-31.52 487.58,-40.32 518.68,-47.92"/>
<polygon fill="#63b8ff" stroke="#63b8ff" points="410.2,-21.29 399.74,-22.93 408.94,-28.18 410.2,-21.29"/>
</a>
</g>
</g>
<!-- Node3&#45;&gt;Node1 -->
<g id="edge5_Node000001_Node000003" class="edge">
<title>Node3&#45;&gt;Node1</title>
<g id="a_edge5_Node000001_Node000003"><a xlink:title=" ">
<path fill="none" stroke="#63b8ff" d="M387.01,-32.41C418.1,-39.75 457.07,-47.87 490.66,-54.05"/>
<polygon fill="#63b8ff" stroke="#63b8ff" points="387.75,-28.99 377.21,-30.06 386.12,-35.79 387.75,-28.99"/>
</a>
</g>
</g>
<!-- Node4 -->
<g id="Node000004" class="node">
<title>Node4</title>
<g id="a_Node000004"><a xlink:href="classxronos_1_1sdk_1_1EventSource.html" target="_top" xlink:title="Interface implemented by reactor elements that can be used as triggers of reactions.">
<polygon fill="white" stroke="#666666" points="168,-24.5 0,-24.5 0,-5.5 168,-5.5 168,-24.5"/>
<text text-anchor="middle" x="84" y="-12.5" font-family="Helvetica,sans-Serif" font-size="10.00">xronos::sdk::EventSource&lt; T &gt;</text>
</a>
</g>
</g>
<!-- Node4&#45;&gt;Node3 -->
<g id="edge3_Node000003_Node000004" class="edge">
<title>Node4&#45;&gt;Node3</title>
<g id="a_edge3_Node000003_Node000004"><a xlink:title=" ">
<path fill="none" stroke="orange" stroke-dasharray="5,2" d="M178.3,-15C205.16,-15 233.98,-15 259.11,-15"/>
<polygon fill="orange" stroke="orange" points="178.12,-11.5 168.12,-15 178.12,-18.5 178.12,-11.5"/>
</a>
</g>
<text text-anchor="start" x="189" y="-20.5" font-family="Helvetica,sans-Serif" font-size="10.00" fill="grey">&lt; void &gt;</text>
</g>
<!-- Node5&#45;&gt;Node1 -->
<g id="edge6_Node000001_Node000005" class="edge">
<title>Node5&#45;&gt;Node1</title>
<g id="a_edge6_Node000001_Node000005"><a xlink:title=" ">
<path fill="none" stroke="orange" stroke-dasharray="5,2" d="M415.23,-63C439.88,-63 466.62,-63 490.61,-63"/>
<polygon fill="orange" stroke="orange" points="415.18,-59.5 405.18,-63 415.18,-66.5 415.18,-59.5"/>
</a>
</g>
<text text-anchor="start" x="426" y="-68.5" font-family="Helvetica,sans-Serif" font-size="10.00" fill="grey">&lt; void &gt;</text>
</g>
<!-- Node6 -->
<g id="Node000006" class="node">
<title>Node6</title>
<g id="a_Node000006"><a xlink:href="classxronos_1_1sdk_1_1EventSource.html" target="_top" xlink:title="Interface implemented by reactor elements that can be used as triggers of reactions.">
<polygon fill="white" stroke="#666666" points="168,-65.5 0,-65.5 0,-46.5 168,-46.5 168,-65.5"/>
<text text-anchor="middle" x="84" y="-53.5" font-family="Helvetica,sans-Serif" font-size="10.00">xronos::sdk::EventSource&lt; T &gt;</text>
</a>
</g>
</g>
<!-- Node6&#45;&gt;Node5 -->
<g id="edge8_Node000005_Node000006" class="edge">
<title>Node6&#45;&gt;Node5</title>
<g id="a_edge8_Node000005_Node000006"><a xlink:title=" ">
<path fill="none" stroke="#63b8ff" d="M178.35,-58.68C203.36,-59.4 230.07,-60.17 253.92,-60.86"/>
<polygon fill="#63b8ff" stroke="#63b8ff" points="178.21,-55.18 168.12,-58.39 178.01,-62.18 178.21,-55.18"/>
</a>
</g>
</g>
</g>
</svg>
