<?xml version="1.0" encoding="UTF-8" standalone="no"?>
<!DOCTYPE svg PUBLIC "-//W3C//DTD SVG 1.1//EN"
 "http://www.w3.org/Graphics/SVG/1.1/DTD/svg11.dtd">
<!-- Generated by graphviz version 2.43.0 (0)
 -->
<!-- Title: xronos::sdk::EventSource&lt; void &gt; Pages: 1 -->
<svg width="590pt" height="246pt"
 viewBox="0.00 0.00 590.00 245.50" xmlns="http://www.w3.org/2000/svg" xmlns:xlink="http://www.w3.org/1999/xlink">
<g id="graph0" class="graph" transform="scale(1 1) rotate(0) translate(4 241.5)">
<title>xronos::sdk::EventSource&lt; void &gt;</title>
<!-- Node1 -->
<g id="Node000001" class="node">
<title>Node1</title>
<g id="a_Node000001"><a xlink:title="Interface implemented by reactor elements that can be used as triggers of reactions.">
<polygon fill="#999999" stroke="#666666" points="394,-141.5 254,-141.5 254,-111.5 394,-111.5 394,-141.5"/>
<text text-anchor="start" x="262" y="-129.5" font-family="Helvetica,sans-Serif" font-size="10.00">xronos::sdk::EventSource</text>
<text text-anchor="middle" x="324" y="-118.5" font-family="Helvetica,sans-Serif" font-size="10.00">&lt; void &gt;</text>
</a>
</g>
</g>
<!-- Node3 -->
<g id="Node000003" class="node">
<title>Node3</title>
<g id="a_Node000003"><a xlink:href="classxronos_1_1sdk_1_1PhysicalEvent_3_01void_01_4.html" target="_top" xlink:title="A reactor element for receiving events from external sources.">
<polygon fill="white" stroke="#666666" points="580,-237.5 433,-237.5 433,-207.5 580,-207.5 580,-237.5"/>
<text text-anchor="start" x="441" y="-225.5" font-family="Helvetica,sans-Serif" font-size="10.00">xronos::sdk::PhysicalEvent</text>
<text text-anchor="middle" x="506.5" y="-214.5" font-family="Helvetica,sans-Serif" font-size="10.00">&lt; void &gt;</text>
</a>
</g>
</g>
<!-- Node1&#45;&gt;Node3 -->
<g id="edge2_Node000001_Node000003" class="edge">
<title>Node1&#45;&gt;Node3</title>
<g id="a_edge2_Node000001_Node000003"><a xlink:title=" ">
<path fill="none" stroke="#63b8ff" d="M361.7,-147.23C381.41,-160.7 406.62,-177.6 431,-189.5 445.78,-196.71 463.23,-202.47 477.52,-207.48"/>
<polygon fill="#63b8ff" stroke="#63b8ff" points="363.56,-144.26 353.33,-141.51 359.61,-150.04 363.56,-144.26"/>
</a>
</g>
</g>
<!-- Node1&#45;&gt;Node3 -->
<g id="edge6_Node000001_Node000003" class="edge">
<title>Node1&#45;&gt;Node3</title>
<g id="a_edge6_Node000001_Node000003"><a xlink:title=" ">
<path fill="none" stroke="#63b8ff" d="M344.11,-148.67C364.59,-166.92 398.53,-191.65 431,-207.5 431.61,-207.8 432.23,-208.09 432.84,-208.39"/>
<polygon fill="#63b8ff" stroke="#63b8ff" points="346.41,-146.03 336.71,-141.78 341.65,-151.15 346.41,-146.03"/>
</a>
</g>
</g>
<!-- Node4 -->
<g id="Node000004" class="node">
<title>Node4</title>
<g id="a_Node000004"><a xlink:href="classxronos_1_1sdk_1_1Port_3_01void_01_4.html" target="_top" xlink:title="Base class for reactor elements that may send or receive messages.">
<polygon fill="white" stroke="#666666" points="560,-189.5 453,-189.5 453,-159.5 560,-159.5 560,-189.5"/>
<text text-anchor="start" x="461" y="-177.5" font-family="Helvetica,sans-Serif" font-size="10.00">xronos::sdk::Port&lt;</text>
<text text-anchor="middle" x="506.5" y="-166.5" font-family="Helvetica,sans-Serif" font-size="10.00"> void &gt;</text>
</a>
</g>
</g>
<!-- Node1&#45;&gt;Node4 -->
<g id="edge3_Node000001_Node000004" class="edge">
<title>Node1&#45;&gt;Node4</title>
<g id="a_edge3_Node000001_Node000004"><a xlink:title=" ">
<path fill="none" stroke="#63b8ff" d="M403.78,-140.75C426.74,-146.66 450.72,-153.43 469.62,-159.44"/>
<polygon fill="#63b8ff" stroke="#63b8ff" points="404.57,-137.34 394.01,-138.27 402.84,-144.12 404.57,-137.34"/>
</a>
</g>
</g>
<!-- Node1&#45;&gt;Node4 -->
<g id="edge7_Node000001_Node000004" class="edge">
<title>Node1&#45;&gt;Node4</title>
<g id="a_edge7_Node000001_Node000004"><a xlink:title=" ">
<path fill="none" stroke="#63b8ff" d="M370.69,-144.61C395.66,-152.21 426.7,-160.55 452.7,-166.66"/>
<polygon fill="#63b8ff" stroke="#63b8ff" points="371.68,-141.25 361.09,-141.62 369.6,-147.94 371.68,-141.25"/>
</a>
</g>
</g>
<!-- Node5 -->
<g id="Node000005" class="node">
<title>Node5</title>
<g id="a_Node000005"><a xlink:href="classxronos_1_1sdk_1_1ProgrammableTimer_3_01void_01_4.html" target="_top" xlink:title="A reactor element for scheduling new events.">
<polygon fill="white" stroke="#666666" points="582,-141.5 431,-141.5 431,-111.5 582,-111.5 582,-141.5"/>
<text text-anchor="start" x="439" y="-129.5" font-family="Helvetica,sans-Serif" font-size="10.00">xronos::sdk::Programmable</text>
<text text-anchor="middle" x="506.5" y="-118.5" font-family="Helvetica,sans-Serif" font-size="10.00">Timer&lt; void &gt;</text>
</a>
</g>
</g>
<!-- Node1&#45;&gt;Node5 -->
<g id="edge4_Node000001_Node000005" class="edge">
<title>Node1&#45;&gt;Node5</title>
<g id="a_edge4_Node000001_Node000005"><a xlink:title=" ">
<path fill="none" stroke="#63b8ff" d="M404.28,-119.79C413.1,-119.72 422.06,-119.74 430.82,-119.84"/>
<polygon fill="#63b8ff" stroke="#63b8ff" points="403.97,-116.3 394.01,-119.92 404.05,-123.3 403.97,-116.3"/>
</a>
</g>
</g>
<!-- Node1&#45;&gt;Node5 -->
<g id="edge8_Node000001_Node000005" class="edge">
<title>Node1&#45;&gt;Node5</title>
<g id="a_edge8_Node000001_Node000005"><a xlink:title=" ">
<path fill="none" stroke="#63b8ff" d="M404.28,-133.21C413.1,-133.28 422.06,-133.26 430.82,-133.16"/>
<polygon fill="#63b8ff" stroke="#63b8ff" points="404.05,-129.7 394.01,-133.08 403.97,-136.7 404.05,-129.7"/>
</a>
</g>
</g>
<!-- Node6 -->
<g id="Node000006" class="node">
<title>Node6</title>
<g id="a_Node000006"><a xlink:href="classxronos_1_1sdk_1_1PeriodicTimer.html" target="_top" xlink:title="A reactor element that emits events in regular intervals.">
<polygon fill="white" stroke="#666666" points="579.5,-93 433.5,-93 433.5,-74 579.5,-74 579.5,-93"/>
<text text-anchor="middle" x="506.5" y="-81" font-family="Helvetica,sans-Serif" font-size="10.00">xronos::sdk::PeriodicTimer</text>
</a>
</g>
</g>
<!-- Node1&#45;&gt;Node6 -->
<g id="edge5_Node000001_Node000006" class="edge">
<title>Node1&#45;&gt;Node6</title>
<g id="a_edge5_Node000001_Node000006"><a xlink:title=" ">
<path fill="none" stroke="#63b8ff" d="M397.91,-109.13C420.99,-103.63 445.65,-97.76 465.53,-93.02"/>
<polygon fill="#63b8ff" stroke="#63b8ff" points="397.05,-105.74 388.13,-111.46 398.67,-112.55 397.05,-105.74"/>
</a>
</g>
</g>
<!-- Node7 -->
<g id="Node000007" class="node">
<title>Node7</title>
<g id="a_Node000007"><a xlink:href="classxronos_1_1sdk_1_1Shutdown.html" target="_top" xlink:title="A reactor element that emits an event right before the program shuts down.">
<polygon fill="white" stroke="#666666" points="570,-56 443,-56 443,-37 570,-37 570,-56"/>
<text text-anchor="middle" x="506.5" y="-44" font-family="Helvetica,sans-Serif" font-size="10.00">xronos::sdk::Shutdown</text>
</a>
</g>
</g>
<!-- Node1&#45;&gt;Node7 -->
<g id="edge9_Node000001_Node000007" class="edge">
<title>Node1&#45;&gt;Node7</title>
<g id="a_edge9_Node000001_Node000007"><a xlink:title=" ">
<path fill="none" stroke="#63b8ff" d="M354.97,-105.77C375.56,-92.35 403.96,-75.4 431,-64.5 439.15,-61.22 448.04,-58.43 456.76,-56.1"/>
<polygon fill="#63b8ff" stroke="#63b8ff" points="352.77,-103.03 346.37,-111.47 356.64,-108.86 352.77,-103.03"/>
</a>
</g>
</g>
<!-- Node8 -->
<g id="Node000008" class="node">
<title>Node8</title>
<g id="a_Node000008"><a xlink:href="classxronos_1_1sdk_1_1Startup.html" target="_top" xlink:title="A reactor element that emits an event when the program starts up.">
<polygon fill="white" stroke="#666666" points="563.5,-19 449.5,-19 449.5,0 563.5,0 563.5,-19"/>
<text text-anchor="middle" x="506.5" y="-7" font-family="Helvetica,sans-Serif" font-size="10.00">xronos::sdk::Startup</text>
</a>
</g>
</g>
<!-- Node1&#45;&gt;Node8 -->
<g id="edge10_Node000001_Node000008" class="edge">
<title>Node1&#45;&gt;Node8</title>
<g id="a_edge10_Node000001_Node000008"><a xlink:title=" ">
<path fill="none" stroke="#63b8ff" d="M343.46,-103.37C362.86,-80.64 395.46,-46.65 431,-27.5 437.33,-24.09 444.3,-21.32 451.36,-19.07"/>
<polygon fill="#63b8ff" stroke="#63b8ff" points="340.66,-101.27 336.93,-111.19 346.03,-105.76 340.66,-101.27"/>
</a>
</g>
</g>
<!-- Node2 -->
<g id="Node000002" class="node">
<title>Node2</title>
<g id="a_Node000002"><a xlink:href="classxronos_1_1sdk_1_1EventSource.html" target="_top" xlink:title="Interface implemented by reactor elements that can be used as triggers of reactions.">
<polygon fill="white" stroke="#666666" points="168,-136 0,-136 0,-117 168,-117 168,-136"/>
<text text-anchor="middle" x="84" y="-124" font-family="Helvetica,sans-Serif" font-size="10.00">xronos::sdk::EventSource&lt; T &gt;</text>
</a>
</g>
</g>
<!-- Node2&#45;&gt;Node1 -->
<g id="edge1_Node000001_Node000002" class="edge">
<title>Node2&#45;&gt;Node1</title>
<g id="a_edge1_Node000001_Node000002"><a xlink:title=" ">
<path fill="none" stroke="orange" stroke-dasharray="5,2" d="M178.53,-126.5C203.69,-126.5 230.43,-126.5 253.99,-126.5"/>
<polygon fill="orange" stroke="orange" points="178.24,-123 168.24,-126.5 178.24,-130 178.24,-123"/>
</a>
</g>
<text text-anchor="start" x="189" y="-132" font-family="Helvetica,sans-Serif" font-size="10.00" fill="grey">&lt; void &gt;</text>
</g>
</g>
</svg>
