<?xml version="1.0" encoding="UTF-8" standalone="no"?>
<!DOCTYPE svg PUBLIC "-//W3C//DTD SVG 1.1//EN"
 "http://www.w3.org/Graphics/SVG/1.1/DTD/svg11.dtd">
<!-- Generated by graphviz version 2.43.0 (0)
 -->
<!-- Title: xronos::sdk::Startup Pages: 1 -->
<svg width="300pt" height="166pt"
 viewBox="0.00 0.00 299.50 166.00" xmlns="http://www.w3.org/2000/svg" xmlns:xlink="http://www.w3.org/1999/xlink">
<g id="graph0" class="graph" transform="scale(1 1) rotate(0) translate(4 162)">
<title>xronos::sdk::Startup</title>
<!-- Node1 -->
<g id="Node000001" class="node">
<title>Node1</title>
<g id="a_Node000001"><a xlink:title="A reactor element that emits an event when the program starts up.">
<polygon fill="#999999" stroke="#666666" points="128.5,-19 14.5,-19 14.5,0 128.5,0 128.5,-19"/>
<text text-anchor="middle" x="71.5" y="-7" font-family="Helvetica,sans-Serif" font-size="10.00">xronos::sdk::Startup</text>
</a>
</g>
</g>
<!-- Node2 -->
<g id="Node000002" class="node">
<title>Node2</title>
<g id="a_Node000002"><a xlink:href="classxronos_1_1sdk_1_1Element.html" target="_top" xlink:title="Base class for all reactor elements.">
<polygon fill="white" stroke="#666666" points="119,-80.5 0,-80.5 0,-61.5 119,-61.5 119,-80.5"/>
<text text-anchor="middle" x="59.5" y="-68.5" font-family="Helvetica,sans-Serif" font-size="10.00">xronos::sdk::Element</text>
</a>
</g>
</g>
<!-- Node2&#45;&gt;Node1 -->
<g id="edge1_Node000001_Node000002" class="edge">
<title>Node2&#45;&gt;Node1</title>
<g id="a_edge1_Node000001_Node000002"><a xlink:title=" ">
<path fill="none" stroke="#63b8ff" d="M63.2,-51.66C65.39,-40.77 68.07,-27.49 69.78,-19.01"/>
<polygon fill="#63b8ff" stroke="#63b8ff" points="59.77,-50.98 61.22,-61.48 66.63,-52.36 59.77,-50.98"/>
</a>
</g>
</g>
<!-- Node3 -->
<g id="Node000003" class="node">
<title>Node3</title>
<g id="a_Node000003"><a xlink:href="classxronos_1_1sdk_1_1EventSource_3_01void_01_4.html" target="_top" xlink:title="Interface implemented by reactor elements that can be used as triggers of reactions.">
<polygon fill="white" stroke="#666666" points="277.5,-86 137.5,-86 137.5,-56 277.5,-56 277.5,-86"/>
<text text-anchor="start" x="145.5" y="-74" font-family="Helvetica,sans-Serif" font-size="10.00">xronos::sdk::EventSource</text>
<text text-anchor="middle" x="207.5" y="-63" font-family="Helvetica,sans-Serif" font-size="10.00">&lt; void &gt;</text>
</a>
</g>
</g>
<!-- Node3&#45;&gt;Node1 -->
<g id="edge2_Node000001_Node000003" class="edge">
<title>Node3&#45;&gt;Node1</title>
<g id="a_edge2_Node000001_Node000003"><a xlink:title=" ">
<path fill="none" stroke="#63b8ff" d="M166.06,-51.87C141.24,-41.01 110.81,-27.7 91.29,-19.16"/>
<polygon fill="#63b8ff" stroke="#63b8ff" points="164.71,-55.1 175.27,-55.9 167.51,-48.68 164.71,-55.1"/>
</a>
</g>
</g>
<!-- Node4 -->
<g id="Node000004" class="node">
<title>Node4</title>
<g id="a_Node000004"><a xlink:href="classxronos_1_1sdk_1_1EventSource.html" target="_top" xlink:title="Interface implemented by reactor elements that can be used as triggers of reactions.">
<polygon fill="white" stroke="#666666" points="291.5,-158 123.5,-158 123.5,-139 291.5,-139 291.5,-158"/>
<text text-anchor="middle" x="207.5" y="-146" font-family="Helvetica,sans-Serif" font-size="10.00">xronos::sdk::EventSource&lt; T &gt;</text>
</a>
</g>
</g>
<!-- Node4&#45;&gt;Node3 -->
<g id="edge3_Node000003_Node000004" class="edge">
<title>Node4&#45;&gt;Node3</title>
<g id="a_edge3_Node000003_Node000004"><a xlink:title=" ">
<path fill="none" stroke="orange" stroke-dasharray="5,2" d="M207.5,-128.57C207.5,-115.43 207.5,-98.18 207.5,-86.21"/>
<polygon fill="orange" stroke="orange" points="204,-128.84 207.5,-138.84 211,-128.84 204,-128.84"/>
</a>
</g>
<text text-anchor="start" x="210.5" y="-109.5" font-family="Helvetica,sans-Serif" font-size="10.00" fill="grey">&lt; void &gt;</text>
</g>
</g>
</svg>
