<?xml version="1.0" encoding="UTF-8" standalone="no"?>
<!DOCTYPE svg PUBLIC "-//W3C//DTD SVG 1.1//EN"
 "http://www.w3.org/Graphics/SVG/1.1/DTD/svg11.dtd">
<!-- Generated by graphviz version 2.43.0 (0)
 -->
<!-- Title: xronos::sdk::Port&lt; void &gt; Pages: 1 -->
<svg width="500pt" height="193pt"
 viewBox="0.00 0.00 499.50 193.00" xmlns="http://www.w3.org/2000/svg" xmlns:xlink="http://www.w3.org/1999/xlink">
<g id="graph0" class="graph" transform="scale(1 1) rotate(0) translate(4 189)">
<title>xronos::sdk::Port&lt; void &gt;</title>
<!-- Node1 -->
<g id="Node000001" class="node">
<title>Node1</title>
<g id="a_Node000001"><a xlink:title="Base class for reactor elements that may send or receive messages.">
<polygon fill="#999999" stroke="#666666" points="214,-30 107,-30 107,0 214,0 214,-30"/>
<text text-anchor="start" x="115" y="-18" font-family="Helvetica,sans-Serif" font-size="10.00">xronos::sdk::Port&lt;</text>
<text text-anchor="middle" x="160.5" y="-7" font-family="Helvetica,sans-Serif" font-size="10.00"> void &gt;</text>
</a>
</g>
</g>
<!-- Node2 -->
<g id="Node000002" class="node">
<title>Node2</title>
<g id="a_Node000002"><a xlink:href="classxronos_1_1sdk_1_1Element.html" target="_top" xlink:title="Base class for all reactor elements.">
<polygon fill="white" stroke="#666666" points="119,-185 0,-185 0,-166 119,-166 119,-185"/>
<text text-anchor="middle" x="59.5" y="-173" font-family="Helvetica,sans-Serif" font-size="10.00">xronos::sdk::Element</text>
</a>
</g>
</g>
<!-- Node2&#45;&gt;Node1 -->
<g id="edge1_Node000001_Node000002" class="edge">
<title>Node2&#45;&gt;Node1</title>
<g id="a_edge1_Node000001_Node000002"><a xlink:title=" ">
<path fill="none" stroke="#63b8ff" d="M55.54,-155.55C56.8,-136.14 64.2,-105.68 78.5,-83 92.08,-61.46 114.36,-42.44 132.47,-30.21"/>
<polygon fill="#63b8ff" stroke="#63b8ff" points="52.04,-155.79 55.52,-165.8 59.04,-155.8 52.04,-155.79"/>
</a>
</g>
</g>
<!-- Node2&#45;&gt;Node1 -->
<g id="edge4_Node000001_Node000002" class="edge">
<title>Node2&#45;&gt;Node1</title>
<g id="a_edge4_Node000001_Node000002"><a xlink:title=" ">
<path fill="none" stroke="#63b8ff" d="M68.87,-156.09C74.66,-136.71 82.06,-105.9 96.5,-83 110.08,-61.46 132.36,-42.44 147,-30.21"/>
<polygon fill="#63b8ff" stroke="#63b8ff" points="65.47,-155.2 65.69,-165.8 72.13,-157.38 65.47,-155.2"/>
</a>
</g>
</g>
<!-- Node5 -->
<g id="Node000005" class="node">
<title>Node5</title>
<g id="a_Node000005"><a xlink:href="classxronos_1_1sdk_1_1Port.html" target="_top" xlink:title="Base class for reactor elements that may send or receive messages.">
<polygon fill="white" stroke="#666666" points="224,-107.5 97,-107.5 97,-88.5 224,-88.5 224,-107.5"/>
<text text-anchor="middle" x="160.5" y="-95.5" font-family="Helvetica,sans-Serif" font-size="10.00">xronos::sdk::Port&lt; T &gt;</text>
</a>
</g>
</g>
<!-- Node2&#45;&gt;Node5 -->
<g id="edge7_Node000005_Node000002" class="edge">
<title>Node2&#45;&gt;Node5</title>
<g id="a_edge7_Node000005_Node000002"><a xlink:title=" ">
<path fill="none" stroke="#63b8ff" d="M79.23,-159.75C100.03,-144.2 132.08,-120.24 149.05,-107.56"/>
<polygon fill="#63b8ff" stroke="#63b8ff" points="77,-157.05 71.09,-165.84 81.19,-162.66 77,-157.05"/>
</a>
</g>
</g>
<!-- Node3 -->
<g id="Node000003" class="node">
<title>Node3</title>
<g id="a_Node000003"><a xlink:href="classxronos_1_1sdk_1_1EventSource_3_01void_01_4.html" target="_top" xlink:title="Interface implemented by reactor elements that can be used as triggers of reactions.">
<polygon fill="white" stroke="#666666" points="382.5,-113 242.5,-113 242.5,-83 382.5,-83 382.5,-113"/>
<text text-anchor="start" x="250.5" y="-101" font-family="Helvetica,sans-Serif" font-size="10.00">xronos::sdk::EventSource</text>
<text text-anchor="middle" x="312.5" y="-90" font-family="Helvetica,sans-Serif" font-size="10.00">&lt; void &gt;</text>
</a>
</g>
</g>
<!-- Node3&#45;&gt;Node1 -->
<g id="edge2_Node000001_Node000003" class="edge">
<title>Node3&#45;&gt;Node1</title>
<g id="a_edge2_Node000001_Node000003"><a xlink:title=" ">
<path fill="none" stroke="#63b8ff" d="M271.69,-78.34C242.76,-63.69 205.22,-43.59 181.9,-30.22"/>
<polygon fill="#63b8ff" stroke="#63b8ff" points="270.25,-81.53 280.76,-82.89 273.39,-75.28 270.25,-81.53"/>
</a>
</g>
</g>
<!-- Node3&#45;&gt;Node1 -->
<g id="edge5_Node000001_Node000003" class="edge">
<title>Node3&#45;&gt;Node1</title>
<g id="a_edge5_Node000001_Node000003"><a xlink:title=" ">
<path fill="none" stroke="#63b8ff" d="M282.56,-77.94C256.43,-63.27 218.83,-43.33 192.19,-30.08"/>
<polygon fill="#63b8ff" stroke="#63b8ff" points="280.87,-81 291.29,-82.89 284.32,-74.91 280.87,-81"/>
</a>
</g>
</g>
<!-- Node4 -->
<g id="Node000004" class="node">
<title>Node4</title>
<g id="a_Node000004"><a xlink:href="classxronos_1_1sdk_1_1EventSource.html" target="_top" xlink:title="Interface implemented by reactor elements that can be used as triggers of reactions.">
<polygon fill="white" stroke="#666666" points="491.5,-185 323.5,-185 323.5,-166 491.5,-166 491.5,-185"/>
<text text-anchor="middle" x="407.5" y="-173" font-family="Helvetica,sans-Serif" font-size="10.00">xronos::sdk::EventSource&lt; T &gt;</text>
</a>
</g>
</g>
<!-- Node4&#45;&gt;Node3 -->
<g id="edge3_Node000003_Node000004" class="edge">
<title>Node4&#45;&gt;Node3</title>
<g id="a_edge3_Node000003_Node000004"><a xlink:title=" ">
<path fill="none" stroke="orange" stroke-dasharray="5,2" d="M388.53,-159.42C371.59,-145.96 346.97,-126.39 330.38,-113.21"/>
<polygon fill="orange" stroke="orange" points="386.6,-162.36 396.6,-165.84 390.95,-156.88 386.6,-162.36"/>
</a>
</g>
<text text-anchor="start" x="377.5" y="-136.5" font-family="Helvetica,sans-Serif" font-size="10.00" fill="grey">&lt; void &gt;</text>
</g>
<!-- Node5&#45;&gt;Node1 -->
<g id="edge6_Node000001_Node000005" class="edge">
<title>Node5&#45;&gt;Node1</title>
<g id="a_edge6_Node000001_Node000005"><a xlink:title=" ">
<path fill="none" stroke="orange" stroke-dasharray="5,2" d="M160.5,-77.91C160.5,-63.22 160.5,-43.25 160.5,-30.01"/>
<polygon fill="orange" stroke="orange" points="157,-78.33 160.5,-88.33 164,-78.33 157,-78.33"/>
</a>
</g>
<text text-anchor="start" x="163.5" y="-53.5" font-family="Helvetica,sans-Serif" font-size="10.00" fill="grey">&lt; void &gt;</text>
</g>
<!-- Node6 -->
<g id="Node000006" class="node">
<title>Node6</title>
<g id="a_Node000006"><a xlink:href="classxronos_1_1sdk_1_1EventSource.html" target="_top" xlink:title="Interface implemented by reactor elements that can be used as triggers of reactions.">
<polygon fill="white" stroke="#666666" points="305.5,-185 137.5,-185 137.5,-166 305.5,-166 305.5,-185"/>
<text text-anchor="middle" x="221.5" y="-173" font-family="Helvetica,sans-Serif" font-size="10.00">xronos::sdk::EventSource&lt; T &gt;</text>
</a>
</g>
</g>
<!-- Node6&#45;&gt;Node5 -->
<g id="edge8_Node000005_Node000006" class="edge">
<title>Node6&#45;&gt;Node5</title>
<g id="a_edge8_Node000005_Node000006"><a xlink:title=" ">
<path fill="none" stroke="#63b8ff" d="M208.21,-158.05C195.65,-142.5 177.3,-119.79 167.42,-107.56"/>
<polygon fill="#63b8ff" stroke="#63b8ff" points="205.5,-160.26 214.5,-165.84 210.94,-155.86 205.5,-160.26"/>
</a>
</g>
</g>
</g>
</svg>
