<?xml version="1.0" encoding="UTF-8" standalone="no"?>
<!DOCTYPE svg PUBLIC "-//W3C//DTD SVG 1.1//EN"
 "http://www.w3.org/Graphics/SVG/1.1/DTD/svg11.dtd">
<!-- Generated by graphviz version 2.43.0 (0)
 -->
<!-- Title: Graphical Class Hierarchy Pages: 1 -->
<svg width="425pt" height="76pt"
 viewBox="0.00 0.00 425.00 75.50" xmlns="http://www.w3.org/2000/svg" xmlns:xlink="http://www.w3.org/1999/xlink">
<g id="graph0" class="graph" transform="scale(1 1) rotate(0) translate(4 71.5)">
<title>Graphical Class Hierarchy</title>
<!-- Node0 -->
<g id="Node000000" class="node">
<title>Node0</title>
<g id="a_Node000000"><a xlink:title=" ">
<polygon fill="#e0e0e0" stroke="#999999" points="86,-40 0,-40 0,-21 86,-21 86,-40"/>
<text text-anchor="middle" x="43" y="-28" font-family="Helvetica,sans-Serif" font-size="10.00">std::exception</text>
</a>
</g>
</g>
<!-- Node1 -->
<g id="Node000001" class="node">
<title>Node1</title>
<g id="a_Node000001"><a xlink:title=" ">
<polygon fill="#e0e0e0" stroke="#999999" points="226,-40 122,-40 122,-21 226,-21 226,-40"/>
<text text-anchor="middle" x="174" y="-28" font-family="Helvetica,sans-Serif" font-size="10.00">std::runtime_error</text>
</a>
</g>
</g>
<!-- Node0&#45;&gt;Node1 -->
<g id="edge1_Node000000_Node000001" class="edge">
<title>Node0&#45;&gt;Node1</title>
<g id="a_edge1_Node000000_Node000001"><a xlink:title=" ">
<path fill="none" stroke="#63b8ff" d="M96.27,-30.5C104.65,-30.5 113.31,-30.5 121.66,-30.5"/>
<polygon fill="#63b8ff" stroke="#63b8ff" points="96.24,-27 86.24,-30.5 96.24,-34 96.24,-27"/>
</a>
</g>
</g>
<!-- Node2 -->
<g id="Node000002" class="node">
<title>Node2</title>
<g id="a_Node000002"><a xlink:href="classxronos_1_1sdk_1_1DuplicateNameError.html" target="_top" xlink:title="Exception that is thrown when creating an element with a name that is already in use.">
<polygon fill="white" stroke="#666666" points="417,-67.5 262,-67.5 262,-37.5 417,-37.5 417,-67.5"/>
<text text-anchor="start" x="270" y="-55.5" font-family="Helvetica,sans-Serif" font-size="10.00">xronos::sdk::DuplicateName</text>
<text text-anchor="middle" x="339.5" y="-44.5" font-family="Helvetica,sans-Serif" font-size="10.00">Error</text>
</a>
</g>
</g>
<!-- Node1&#45;&gt;Node2 -->
<g id="edge2_Node000001_Node000002" class="edge">
<title>Node1&#45;&gt;Node2</title>
<g id="a_edge2_Node000001_Node000002"><a xlink:title=" ">
<path fill="none" stroke="#63b8ff" d="M236.31,-38.75C244.68,-39.88 253.35,-41.04 261.95,-42.2"/>
<polygon fill="#63b8ff" stroke="#63b8ff" points="236.66,-35.27 226.28,-37.4 235.73,-42.2 236.66,-35.27"/>
</a>
</g>
</g>
<!-- Node3 -->
<g id="Node000003" class="node">
<title>Node3</title>
<g id="a_Node000003"><a xlink:href="classxronos_1_1sdk_1_1ValidationError.html" target="_top" xlink:title="Exception that is thrown when a program reaches an invalid state.">
<polygon fill="white" stroke="#666666" points="415,-19 264,-19 264,0 415,0 415,-19"/>
<text text-anchor="middle" x="339.5" y="-7" font-family="Helvetica,sans-Serif" font-size="10.00">xronos::sdk::ValidationError</text>
</a>
</g>
</g>
<!-- Node1&#45;&gt;Node3 -->
<g id="edge3_Node000001_Node000003" class="edge">
<title>Node1&#45;&gt;Node3</title>
<g id="a_edge3_Node000001_Node000003"><a xlink:title=" ">
<path fill="none" stroke="#63b8ff" d="M236.4,-22.61C245.52,-21.44 255,-20.22 264.35,-19.02"/>
<polygon fill="#63b8ff" stroke="#63b8ff" points="235.76,-19.17 226.28,-23.91 236.65,-26.11 235.76,-19.17"/>
</a>
</g>
</g>
</g>
</svg>
